<svg xmlns="http://www.w3.org/2000/svg" width="50" height="50" viewBox="0 0 50 50"><title>Amazon-RDS_MariaDB_instance_light-bg</title><g id="Working"><path d="M10.42,15.58V9.51L9,13.44H7.48L6,9.54v6H4.46V6.92h2l1.79,4.85L10,6.92h2v8.66Z" style="fill:#3b48cc"/><path d="M16.59,15.58,16.44,15a1.63,1.63,0,0,1-.62.53,1.68,1.68,0,0,1-.81.2,1.58,1.58,0,0,1-1.22-.5,2,2,0,0,1-.45-1.4,2,2,0,0,1,.55-1.48,2,2,0,0,1,1.49-.54,4,4,0,0,1,1,.15v-.58a1.64,1.64,0,0,0-.17-.88.74.74,0,0,0-.63-.23,5.42,5.42,0,0,0-1.84.4V9.54a3.14,3.14,0,0,1,1-.37A5.32,5.32,0,0,1,15.85,9a2.17,2.17,0,0,1,1.57.49,2.18,2.18,0,0,1,.49,1.59v4.47Zm-1.08-1a1.2,1.2,0,0,0,.83-.4V12.92a2.13,2.13,0,0,0-.65-.09.71.71,0,0,0-.56.23,1,1,0,0,0-.19.67,1,1,0,0,0,.15.59A.5.5,0,0,0,15.51,14.54Z" style="fill:#3b48cc"/><path d="M19.36,15.58V9.19h1.4L21,10a3,3,0,0,1,.74-.68,1.58,1.58,0,0,1,.79-.21,1.72,1.72,0,0,1,.39,0v1.51a3.85,3.85,0,0,0-.66-.06,2.31,2.31,0,0,0-1.14.3v4.66Z" style="fill:#3b48cc"/><path d="M24.55,8.16a1,1,0,0,1-.74-.26.9.9,0,0,1-.27-.69.91.91,0,0,1,.27-.7,1,1,0,0,1,.74-.25,1,1,0,0,1,.72.25.88.88,0,0,1,.28.7.88.88,0,0,1-.28.69A1,1,0,0,1,24.55,8.16Zm-.86,7.42V9.19H25.4v6.39Z" style="fill:#3b48cc"/><path d="M29.92,15.58,29.77,15a1.6,1.6,0,0,1-.61.53,1.7,1.7,0,0,1-.81.2,1.58,1.58,0,0,1-1.23-.5,2,2,0,0,1-.45-1.4,1.88,1.88,0,0,1,2-2,3.89,3.89,0,0,1,1,.15v-.58a1.66,1.66,0,0,0-.16-.88.78.78,0,0,0-.64-.23,5.37,5.37,0,0,0-1.83.4V9.54A3.14,3.14,0,0,1,28,9.17,5.32,5.32,0,0,1,29.19,9a2.17,2.17,0,0,1,1.57.49,2.18,2.18,0,0,1,.49,1.59v4.47Zm-1.07-1a1.18,1.18,0,0,0,.82-.4V12.92a2.08,2.08,0,0,0-.65-.09.69.69,0,0,0-.55.23,1,1,0,0,0-.2.67,1,1,0,0,0,.16.59A.47.47,0,0,0,28.85,14.54Z" style="fill:#3b48cc"/><path d="M32.81,15.58V6.92h2.61A2.88,2.88,0,0,1,37.87,8a5.24,5.24,0,0,1,.84,3.22,5.34,5.34,0,0,1-.82,3.24,2.82,2.82,0,0,1-2.4,1.1Zm1.75-7.32v6h.74a1.3,1.3,0,0,0,1.21-.7,4.52,4.52,0,0,0,.4-2.17v-.25A4.61,4.61,0,0,0,36.52,9a1.31,1.31,0,0,0-1.23-.69Z" style="fill:#3b48cc"/><path d="M40.19,15.58V6.92H42.8a2.33,2.33,0,0,1,1.7.64,2.2,2.2,0,0,1,.66,1.66,2.28,2.28,0,0,1-.26,1.11,1.67,1.67,0,0,1-.76.7,2,2,0,0,1,1,.78,2.32,2.32,0,0,1,.36,1.33,2.26,2.26,0,0,1-.73,1.78,2.77,2.77,0,0,1-1.94.66Zm1.65-7.41v2.4h.7a.87.87,0,0,0,.69-.31,1.42,1.42,0,0,0,.25-.88,1.6,1.6,0,0,0-.22-.89.69.69,0,0,0-.61-.32Zm0,3.59v2.57h1a.9.9,0,0,0,.73-.32,1.54,1.54,0,0,0,.25-.95,1.48,1.48,0,0,0-.28-1,1,1,0,0,0-.8-.33Z" style="fill:#3b48cc"/><path d="M40,20.28c-5,0-10,1.56-10,4.55V45.17c0,3,5,4.55,10,4.55s10-1.56,10-4.55V24.83C50,21.84,45,20.28,40,20.28Zm.13,2c5.19,0,8,1.68,8,2.55s-2.83,2.56-8,2.56-8-1.69-8-2.56S34.93,22.28,40.13,22.28Zm0,25.44c-5.2,0-8-1.68-8-2.55V41.75a16.66,16.66,0,0,0,8,1.74,16.65,16.65,0,0,0,8-1.74v3.42C48.15,46,45.32,47.72,40.13,47.72Zm0-6.23c-5.2,0-8-1.69-8-2.56V34.77a16.78,16.78,0,0,0,8,1.73,16.77,16.77,0,0,0,8-1.73v4.16C48.15,39.8,45.32,41.49,40.13,41.49Zm0-7c-5.2,0-8-1.69-8-2.56V27.65a16.66,16.66,0,0,0,8,1.74,16.65,16.65,0,0,0,8-1.74v4.29C48.15,32.81,45.32,34.5,40.13,34.5Z" style="fill:#3b48cc"/><path d="M43.55,0H6.45A6.45,6.45,0,0,0,0,6.45v37.1A6.45,6.45,0,0,0,6.45,50H30V48H6.45A4.46,4.46,0,0,1,2,43.55V6.45A4.46,4.46,0,0,1,6.45,2h37.1A4.46,4.46,0,0,1,48,6.45V21h2V6.45A6.45,6.45,0,0,0,43.55,0Z" style="fill:#3b48cc"/></g></svg>