<svg xmlns="http://www.w3.org/2000/svg" width="100" height="100" viewBox="0 0 75 75">
    <defs>
        <style>
            .cls-1{fill:#cd2264}
        </style>
    </defs>
    <title>
        Amazon-Simple-Notification-Service-SNS_HTTP-Notification_light-bg
    </title>
    <g id="Working">
        <path class="cls-1" d="M47.5,20.38H2.5a1,1,0,0,1-1-1V14.69h2v3.69h43V10.06H16.56v-2H47.5a1,1,0,0,1,1,1V19.38A1,1,0,0,1,47.5,20.38Z"/>
        <path class="cls-1" d="M47.5,34.44h-2v-2h1v-1h2v2A1,1,0,0,1,47.5,34.44Z"/>
        <path class="cls-1" d="M43.64,34.44H39.91v-2h3.73Zm-5.59,0H34.32v-2h3.73Zm-5.6,0H28.73v-2h3.72Zm-5.59,0H23.14v-2h3.72Zm-5.59,0H17.55v-2h3.72Zm-5.59,0H12v-2h3.73Zm-5.59,0H6.36v-2h3.73Z"/>
        <path class="cls-1" d="M4.5,34.44h-2a1,1,0,0,1-1-1v-2h2v1h1Z"/>
        <rect class="cls-1" x="1.5" y="26.7" width="2" height="3.16"/>
        <path class="cls-1" d="M3.5,25.12h-2v-2a1,1,0,0,1,1-1h2v2h-1Z"/>
        <path class="cls-1" d="M43.64,24.12H39.91v-2h3.73Zm-5.59,0H34.32v-2h3.73Zm-5.6,0H28.73v-2h3.72Zm-5.59,0H23.14v-2h3.72Zm-5.59,0H17.55v-2h3.72Zm-5.59,0H12v-2h3.73Zm-5.59,0H6.36v-2h3.73Z"/>
        <path class="cls-1" d="M48.5,25.12h-2v-1h-1v-2h2a1,1,0,0,1,1,1Z"/>
        <rect class="cls-1" x="46.5" y="26.7" width="2" height="3.16"/>
        <path class="cls-1" d="M47.5,48.5h-2v-2h1v-1h2v2A1,1,0,0,1,47.5,48.5Z"/>
        <path class="cls-1" d="M43.64,48.5H39.91v-2h3.73Zm-5.59,0H34.32v-2h3.73Zm-5.6,0H28.73v-2h3.72Zm-5.59,0H23.14v-2h3.72Zm-5.59,0H17.55v-2h3.72Zm-5.59,0H12v-2h3.73Zm-5.59,0H6.36v-2h3.73Z"/>
        <path class="cls-1" d="M4.5,48.5h-2a1,1,0,0,1-1-1v-2h2v1h1Z"/>
        <rect class="cls-1" x="1.5" y="40.77" width="2" height="3.16"/>
        <path class="cls-1" d="M3.5,39.19h-2v-2a1,1,0,0,1,1-1h2v2h-1Z"/>
        <path class="cls-1" d="M43.64,38.19H39.91v-2h3.73Zm-5.59,0H34.32v-2h3.73Zm-5.6,0H28.73v-2h3.72Zm-5.59,0H23.14v-2h3.72Zm-5.59,0H17.55v-2h3.72Zm-5.59,0H12v-2h3.73Zm-5.59,0H6.36v-2h3.73Z"/>
        <path class="cls-1" d="M48.5,39.19h-2v-1h-1v-2h2a1,1,0,0,1,1,1Z"/>
        <rect class="cls-1" x="46.5" y="40.77" width="2" height="3.16"/>
        <path class="cls-1" d="M23,17.59V14.66H19.71v2.93h-.95V11.1h.95v2.79H23V11.1h.95v6.49Z"/>
        <path class="cls-1" d="M26.91,17.59V11.88H24.84V11.1h5.1v.78H27.87v5.71Z"/>
        <path class="cls-1" d="M32.58,17.59V11.88H30.5V11.1h5.1v.78H33.53v5.71Z"/>
        <path class="cls-1" d="M37.46,15.08v2.51h-.93V11.1h2.35a2.08,2.08,0,0,1,1.51.54A1.9,1.9,0,0,1,41,13.09a1.9,1.9,0,0,1-.57,1.45,2.08,2.08,0,0,1-1.51.54Zm0-.76H38.8a1.18,1.18,0,0,0,.89-.31,1.29,1.29,0,0,0,.3-.92,1.07,1.07,0,0,0-1.19-1.23H37.46Z"/>
        <path class="cls-1" d="M8.12,14.75a6.63,6.63,0,1,1,6.63-6.63A6.63,6.63,0,0,1,8.12,14.75Zm0-11.25a4.63,4.63,0,1,0,4.63,4.62A4.62,4.62,0,0,0,8.12,3.5Z"/>
    </g>
</svg>
