<svg xmlns="http://www.w3.org/2000/svg" viewBox="0 0 50 50">
    <defs>
        <style>
            .cls-1 {
                fill: #a166ff;
            }
        </style>
    </defs>
    <title>Amazon-VPC_Customer-Gateway_dark-bg</title>
    <g id="Working" transform="scale(0.8)">
        <path class="cls-1"
            d="M25,48.5A23.5,23.5,0,1,1,48.5,25,23.52,23.52,0,0,1,25,48.5Zm0-45A21.5,21.5,0,1,0,46.5,25,21.52,21.52,0,0,0,25,3.5Z" />
        <path class="cls-1" d="M29,11.64l-4-4-4,4-1.41-1.41,4.68-4.69a1,1,0,0,1,1.42,0l4.68,4.69Z" />
        <rect class="cls-1" x="24" y="7" width="2" height="36" />
        <path class="cls-1"
            d="M25,44.75a1,1,0,0,1-.71-.29l-4.68-4.69L21,38.36l4,4,4-4,1.41,1.41-4.68,4.69A1,1,0,0,1,25,44.75Z" />
        <path class="cls-1" d="M39.77,30.39,38.36,29l4-4-4-4,1.41-1.41,4.69,4.68a1,1,0,0,1,0,1.42Z" />
        <rect class="cls-1" x="7" y="24" width="36" height="2" />
        <path class="cls-1" d="M10.23,30.39,5.54,25.71a1,1,0,0,1,0-1.42l4.69-4.68L11.65,21l-4,4,4,4Z" />
    </g>
    <style type="text/css">
        .st4 {
            fill: #d13212
        }
    </style>
    <g id="grid_x5F_locked" />
    <g id="icon" transform="scale(0.6)">
        <g transform="translate(58,-0)">
            <path class="st4" d="M13.7,2.3C12.1,0.8,10.1,0,8,0S3.9,0.8,2.3,2.3C0.8,3.9,0,5.9,0,8s0.8,4.1,2.3,5.7C3.9,15.2,5.9,16,8,16
			s4.1-0.8,5.7-2.3C15.2,12.1,16,10.1,16,8S15.2,3.9,13.7,2.3z M12.2,12.2C11.1,13.4,9.6,14,8,14s-3.1-0.6-4.2-1.8S2,9.6,2,8
			s0.6-3.1,1.8-4.2S6.4,2,8,2s3.1,0.6,4.2,1.8S14,6.4,14,8S13.4,11.1,12.2,12.2z" />
            <polygon class="st4" points="10.1,4.5 8,6.6 5.9,4.5 4.5,5.9 6.6,8 4.5,10.1 5.9,11.5 8,9.4 10.1,11.5 11.5,10.1 9.4,8 11.5,5.9 
					" />
        </g>
    </g>
</svg>