<svg xmlns="http://www.w3.org/2000/svg" width="100" height="100" viewBox="0 0 75 75">
    <defs>
        <style>
            .cls-1 {
                fill: #fff;
            }

            .cls-2 {
                fill: #3b48cc;
            }
        </style>
    </defs>
    <title>Amazon-Redshift_light-bg-parameter</title>
    <g id="Reference">
        <rect id="Blue_Light_BG" data-name="Blue Light BG" class="cls-1"/>
        <g id="Product_Icon" data-name="Product Icon"  transform="translate(7,-6)">
            <path class="cls-2"
                d="M37.5,62.5c-8.24,0-17-2.39-17-6.82V19.32h2V55.68c0,2,5.71,4.82,15,4.82s15-2.8,15-4.82V19.32h2V55.68C54.5,60.11,45.74,62.5,37.5,62.5Z" />
            <path class="cls-2"
                d="M37.5,62.5c-8.24,0-17-2.39-17-6.82V19.32h2V55.68c0,2,5.71,4.82,15,4.82s15-2.8,15-4.82V19.32h2V55.68C54.5,60.11,45.74,62.5,37.5,62.5Z" />
            <path class="cls-2"
                d="M37.5,26.13c-8.24,0-17-2.39-17-6.81s8.76-6.82,17-6.82,17,2.39,17,6.82S45.74,26.13,37.5,26.13Zm0-11.63c-9.29,0-15,2.8-15,4.82s5.71,4.81,15,4.81,15-2.8,15-4.81S46.79,14.5,37.5,14.5Z" />
            <rect class="cls-2" x="36.48" y="38.02" width="2" height="6.22"
                transform="translate(-10.94 68.55) rotate(-77.19)" />
            <rect class="cls-2" x="42.05" y="35.78" width="6.3" height="2"
                transform="translate(-5.61 65.32) rotate(-68.46)" />
            <rect class="cls-2" x="27.4" y="43.59" width="5.2" height="2"
                transform="translate(-22.78 54.68) rotate(-66.89)" />
            <path class="cls-2"
                d="M28,52.77a3.5,3.5,0,1,1,3.5-3.5A3.5,3.5,0,0,1,28,52.77Zm0-5a1.5,1.5,0,1,0,1.5,1.5A1.5,1.5,0,0,0,28,47.77Z" />
            <path class="cls-2"
                d="M32,43.39a3.5,3.5,0,1,1,3.5-3.5A3.5,3.5,0,0,1,32,43.39Zm0-5a1.5,1.5,0,1,0,1.5,1.5h0A1.5,1.5,0,0,0,32,38.39Z" />
            <path class="cls-2"
                d="M43,45.5A3.5,3.5,0,1,1,46.5,42,3.5,3.5,0,0,1,43,45.5Zm0-5A1.5,1.5,0,1,0,44.5,42,1.5,1.5,0,0,0,43,40.5Z" />
            <path class="cls-2"
                d="M47,35a3.5,3.5,0,1,1,3.5-3.5v.05A3.51,3.51,0,0,1,47,35Zm0-5a1.5,1.5,0,1,0,1.5,1.55A1.5,1.5,0,0,0,47,30Z" />
        </g>
        <g id="Product_Icon"  transform="translate(2,40)">
            <path d="M17.51,17.83a2.38,2.38,0,0,0-.5,4.71v3.29h1V22.54a2.38,2.38,0,0,0-.5-4.71Zm0,3.76a1.38,1.38,0,1,1,1.38-1.38A1.38,1.38,0,0,1,17.51,21.59Z" style="fill:#3b48cc"/>
            <path d="M22.72,14.3V11.63a5.22,5.22,0,1,0-10.44,0V14.3H9.14V28.59H25.86V14.3Zm-9.44-2.67a4.22,4.22,0,1,1,8.44,0V14.3H13.28Zm11.58,16H10.14V15.3H24.86Z" style="fill:#3b48cc"/>
        </g>
    </g>
</svg>