<svg id="Layer_1" data-name="Layer 1" xmlns="http://www.w3.org/2000/svg" width="100" height="100" viewBox="0 0 75 75">
    <title>
        Amazon-VPC_Endpoints_light-bg
    </title>
    <g id="Working" transform="scale(1.5)">
        <path d="M25,41.94c-5,0-8.76-2.61-10.77-7.54a21.33,21.33,0,0,1-1.45-6.52l2-.13a19.52,19.52,0,0,0,1.3,5.89c1.7,4.18,4.7,6.3,8.92,6.3,10.1,0,10.25-11.52,10.25-12V14.27L25,10.14,14.75,14.27v7.92h-2v-8.6a1,1,0,0,1,.63-.93L24.63,8.13a1,1,0,0,1,.74,0l11.25,4.53a1,1,0,0,1,.63.93V27.93C37.25,28.07,37.11,41.94,25,41.94Z" style="fill:#693cc5"/>
        <path d="M25,37.62c-6.76,0-8.42-8.77-8.48-9.14a1.1,1.1,0,0,1,0-.18v-.49h2v.39c.17.81,1.7,7.42,6.5,7.42S31.33,29,31.5,28.2V17.64L25,15l-6.5,2.61v4.55h-2V17a1,1,0,0,1,.63-.93l7.5-3a1,1,0,0,1,.74,0l7.5,3a1,1,0,0,1,.63.93V28.3a1.1,1.1,0,0,1,0,.18C33.42,28.85,31.76,37.62,25,37.62Z" style="fill:#693cc5"/>
        <path d="M25,48.5A23.5,23.5,0,1,1,48.5,25,23.52,23.52,0,0,1,25,48.5Zm0-45A21.5,21.5,0,1,0,46.5,25,21.52,21.52,0,0,0,25,3.5Z" style="fill:#693cc5"/>
        <path d="M22.89,30.39,21.48,29l4-4-4-4,1.41-1.41,4.69,4.68a1,1,0,0,1,0,1.42Z" style="fill:#693cc5"/>
        <rect x="6.25" y="24" width="20.63" height="2" style="fill:#693cc5"/>
    </g>
</svg>
