<svg xmlns="http://www.w3.org/2000/svg" viewBox="0 0 50 50"><defs><style>.cls-1{fill:#a166ff;}</style></defs><title>Amazon-VPC_VPN-Connection_dark-bg</title><g id="Working"><path class="cls-1" d="M40.38,48.5h-30a1,1,0,0,1-1-1V24.06a1,1,0,0,1,1-1h30a1,1,0,0,1,.71.3,1,1,0,0,1,.29.7V47.5A1,1,0,0,1,40.38,48.5Zm-29-2h28V25.07h-28Z"/><path class="cls-1" d="M25.4,35.75h0a4.14,4.14,0,0,1,0-8.28h0a4.14,4.14,0,0,1,0,8.28Zm0-6.28a2.13,2.13,0,0,0-2.13,2.14,2.13,2.13,0,0,0,2.13,2.14h0a2.14,2.14,0,0,0,1.51-.62,2.17,2.17,0,0,0,.62-1.52h0a2.13,2.13,0,0,0-.62-1.51,2.16,2.16,0,0,0-1.52-.63Z"/><rect class="cls-1" x="24.39" y="34.87" width="2" height="6.32"/><rect class="cls-1" x="15.09" y="18.44" width="2" height="5.63"/><rect class="cls-1" x="33.8" y="18.44" width="2" height="5.63"/><path class="cls-1" d="M35.8,12.77h-2v-.32c0-4.92-3.71-8.93-8.3-8.95a8.66,8.66,0,0,0-8.41,8.86v.41h-2v-.42A10.66,10.66,0,0,1,25.46,1.5a10.66,10.66,0,0,1,10.34,11Z"/><path class="cls-1" d="M41.16,21l-1.42-1.41,4-4-4.07-3.91L41,10.25l4.79,4.61a1,1,0,0,1,.31.71,1,1,0,0,1-.29.72Z"/><rect class="cls-1" x="5.05" y="14.65" width="40.29" height="2"/><path class="cls-1" d="M8.9,21,4.17,16.32a1,1,0,0,1,0-1.42L8.9,10.23l1.41,1.42-4,4,4,4Z"/></g></svg>