<svg xmlns="http://www.w3.org/2000/svg" height="100" width="100" viewBox="0 0 100 100">
    <defs>
        <style>
            .cls-1 {
                fill: #3b48cc;
            }

            .cls-2 {
                fill: #fff;
            }
        </style>
    </defs>
    <title>Amazon-Quantum-Ledger-Database_QLDB_light-bg</title>
    <g id="Reference">
        <g id="Product_Icon" data-name="Product Icon" transform="scale(1.5)">
            <path class="cls-1"
                d="M28.56,27.56c-8.85,0-15.52-2.8-15.52-6.51s6.67-6.51,15.52-6.51,15.53,2.8,15.53,6.51S37.41,27.56,28.56,27.56Zm0-11.5c-8.25,0-14,2.63-14,5s5.75,5,14,5,14-2.63,14-5S36.82,16.06,28.56,16.06Z" />
            <rect class="cls-1" x="42.57" y="21.05" width="1.52" height="11.09" />
            <path class="cls-1"
                d="M28.56,60.46C19.71,60.46,13,57.66,13,54V21.05h1.52V54c0,2.36,5.75,5,14,5s14-2.63,14-5V47h1.52v7C44.09,57.66,37.41,60.46,28.56,60.46Z" />
            <path class="cls-1" d="M22.13,38.5c-5.65-1.06-9-3.28-9-6h1.52c0,1.8,3.13,3.58,7.77,4.45Z" />
            <path class="cls-1"
                d="M28.6,50.37c-8.83,0-15.49-2.8-15.49-6.51h1.52c0,2.36,5.74,5,14,5,6.62,0,10.11-1.56,10.15-1.57l.63,1.38C39.23,48.73,35.58,50.37,28.6,50.37Z" />
            <path class="cls-1"
                d="M31.77,43H28.39a1.78,1.78,0,0,1-1.77-1.78V37.81A1.78,1.78,0,0,1,28.39,36h3.38a1.78,1.78,0,0,1,1.78,1.78v3.37A1.78,1.78,0,0,1,31.77,43Zm-3.38-5.41a.26.26,0,0,0-.25.26v3.37a.25.25,0,0,0,.25.25h3.38a.25.25,0,0,0,.25-.25V37.81a.26.26,0,0,0-.25-.26Z" />
            <path class="cls-1"
                d="M44.67,43H41.29a1.78,1.78,0,0,1-1.77-1.78V37.81A1.78,1.78,0,0,1,41.29,36h3.38a1.78,1.78,0,0,1,1.77,1.78v3.37A1.78,1.78,0,0,1,44.67,43Zm-3.38-5.41a.26.26,0,0,0-.25.26v3.37a.25.25,0,0,0,.25.25h3.38a.25.25,0,0,0,.25-.25V37.81a.26.26,0,0,0-.25-.26Z" />
            <path class="cls-1"
                d="M57.56,43H54.19a1.78,1.78,0,0,1-1.78-1.78V37.81A1.78,1.78,0,0,1,54.19,36h3.37a1.78,1.78,0,0,1,1.78,1.78v3.37A1.78,1.78,0,0,1,57.56,43Zm-3.37-5.41a.26.26,0,0,0-.26.26v3.37a.26.26,0,0,0,.26.25h3.37a.26.26,0,0,0,.26-.25V37.81a.26.26,0,0,0-.26-.26Z" />
            <path class="cls-1"
                d="M60.43,45.56H51.36A1.54,1.54,0,0,1,49.83,44v-2.4h-.77V44a1.53,1.53,0,0,1-1.53,1.53H38.46A1.54,1.54,0,0,1,36.93,44V41.62h-.81V44a1.54,1.54,0,0,1-1.53,1.53H25.52A1.54,1.54,0,0,1,24,44V35a1.54,1.54,0,0,1,1.53-1.53h9.07A1.54,1.54,0,0,1,36.12,35v3h.81V35a1.54,1.54,0,0,1,1.53-1.53h9.07A1.53,1.53,0,0,1,49.06,35v3h.77V35a1.54,1.54,0,0,1,1.53-1.53h9.07A1.53,1.53,0,0,1,62,35V44A1.53,1.53,0,0,1,60.43,45.56Zm-9.07-5.45V44h9.08V35H51.36v4.52H47.54V35H38.46v4.52H34.6V35H25.52V44h9.08V40.11l3.86,0v4h9.07V40.12Z" />
        </g>
    </g>
    <style type="text/css">
        .st4{fill:#1d8102}
    </style>
    <g id="grid_x5F_locked"/>
    <g id="icon">
        <g transform="translate(55,5)">
            <path class="st4" d="M8,0C3.6,0,0,3.6,0,8s3.6,8,8,8s8-3.6,8-8S12.4,0,8,0z M8,14c-3.3,0-6-2.7-6-6s2.7-6,6-6s6,2.7,6,6
			S11.3,14,8,14z"/>
            <polygon class="st4" points="7,8.6 5,6.6 3.6,8 7,11.4 11.9,6.5 10.5,5.1 		"/>
        </g>
    </g>
</svg>