<svg id="Layer_1" data-name="Layer 1" xmlns="http://www.w3.org/2000/svg" width="75" height="75" viewBox="0 0 75 75">
    <title>Amazon-Elastic-Container-Service_Service_light-bg</title>
    <g id="Art" transform="scale(1.5)">
        <path
            d="M43.15,48.5h-27a1,1,0,0,1-1-1v-36a1,1,0,0,1,1-1h27a1,1,0,0,1,1,1v36A1,1,0,0,1,43.15,48.5Zm-26-2h25v-34h-25Z"
            style="fill:#d86613" />
        <path
            d="M24.39,21.5h-4.5a1,1,0,0,1-1-1V16a1,1,0,0,1,1-1h4.5a1,1,0,0,1,1,1v4.5A1,1,0,0,1,24.39,21.5Zm-3.5-2h2.5V17h-2.5Z"
            style="fill:#d86613" />
        <path
            d="M24.39,32h-4.5a1,1,0,0,1-1-1V26.5a1,1,0,0,1,1-1h4.5a1,1,0,0,1,1,1V31A1,1,0,0,1,24.39,32Zm-3.5-2h2.5V27.5h-2.5Z"
            style="fill:#d86613" />
        <path
            d="M24.39,42.51h-4.5a1,1,0,0,1-1-1V37a1,1,0,0,1,1-1h4.5a1,1,0,0,1,1,1v4.51A1,1,0,0,1,24.39,42.51Zm-3.5-2h2.5V38h-2.5Z"
            style="fill:#d86613" />
        <rect x="26.65" y="17.25" width="13.51" height="2" style="fill:#d86613" />
        <rect x="26.65" y="27.74" width="13.51" height="2" style="fill:#d86613" />
        <rect x="26.65" y="38.25" width="13.51" height="2" style="fill:#d86613" />
        <path d="M16.15,44h-4.5a1,1,0,0,1-1-1V7a1,1,0,0,1,1-1h27a1,1,0,0,1,1,1v4.5h-2V8h-25V42h3.5Z"
            style="fill:#d86613" />
        <path d="M11.35,39.51H6.85a1,1,0,0,1-1-1V2.5a1,1,0,0,1,1-1h27a1,1,0,0,1,1,1V7h-2V3.5h-25v34h3.5Z"
            style="fill:#d86613" />
    </g>
    <style type="text/css">
        .st4 {
            fill: #d13212
        }
    </style>
    <g id="grid_x5F_locked" />
    <g id="icon">
        <g transform="translate(59,2)">
            <path class="st4" d="M13.7,2.3C12.1,0.8,10.1,0,8,0S3.9,0.8,2.3,2.3C0.8,3.9,0,5.9,0,8s0.8,4.1,2.3,5.7C3.9,15.2,5.9,16,8,16
			s4.1-0.8,5.7-2.3C15.2,12.1,16,10.1,16,8S15.2,3.9,13.7,2.3z M12.2,12.2C11.1,13.4,9.6,14,8,14s-3.1-0.6-4.2-1.8S2,9.6,2,8
			s0.6-3.1,1.8-4.2S6.4,2,8,2s3.1,0.6,4.2,1.8S14,6.4,14,8S13.4,11.1,12.2,12.2z" />
            <polygon class="st4" points="10.1,4.5 8,6.6 5.9,4.5 4.5,5.9 6.6,8 4.5,10.1 5.9,11.5 8,9.4 10.1,11.5 11.5,10.1 9.4,8 11.5,5.9 
					" />
        </g>
    </g>
</svg>