<svg xmlns="http://www.w3.org/2000/svg" width="100" height="100" viewBox="0 0 75 75">
    <title>
        Amazon-RDS_PostgreSQL_instance_light-bg
    </title>
    <g id="Working" transform="translate(5,15)">
        <path d="M4.27,10.75v2.69H3.33V6.51h2a1.79,1.79,0,0,1,1,.27A1.76,1.76,0,0,1,7,7.53a2.57,2.57,0,0,1,.23,1.1,2.26,2.26,0,0,1-.52,1.54,1.7,1.7,0,0,1-1.35.58Zm0-.77h1A.86.86,0,0,0,6,9.62a1.62,1.62,0,0,0,.27-1,1.63,1.63,0,0,0-.27-1,.88.88,0,0,0-.73-.35h-1Z" style="fill:#3b48cc"/>
        <path d="M10,13.57a1.7,1.7,0,0,1-1.46-.69,3.29,3.29,0,0,1-.5-2,3.28,3.28,0,0,1,.5-2A1.7,1.7,0,0,1,10,8.24a1.69,1.69,0,0,1,1.45.69,3.28,3.28,0,0,1,.51,2,3.29,3.29,0,0,1-.51,2A1.69,1.69,0,0,1,10,13.57Zm0-.76a.83.83,0,0,0,.77-.47A3.23,3.23,0,0,0,11,10.9a3.26,3.26,0,0,0-.25-1.44A.83.83,0,0,0,10,9a.81.81,0,0,0-.77.46,3.12,3.12,0,0,0-.25,1.44,3.09,3.09,0,0,0,.25,1.44A.81.81,0,0,0,10,12.81Z" style="fill:#3b48cc"/>
        <path d="M14.81,12.08c0-.29-.19-.52-.56-.7l-.65-.32a1.43,1.43,0,0,1-.89-1.38,1.4,1.4,0,0,1,.41-1,1.51,1.51,0,0,1,1.09-.4,2.49,2.49,0,0,1,1.21.32v.68A2.63,2.63,0,0,0,14.29,9a.8.8,0,0,0-.54.18.63.63,0,0,0-.19.49.64.64,0,0,0,.13.42,1.4,1.4,0,0,0,.46.33l.6.3a1.65,1.65,0,0,1,.69.55,1.41,1.41,0,0,1,.21.79,1.5,1.5,0,0,1-.42,1.11,1.58,1.58,0,0,1-1.15.42,2.73,2.73,0,0,1-1.41-.37v-.68a3.73,3.73,0,0,0,1.35.31.77.77,0,0,0,.58-.2A.71.71,0,0,0,14.81,12.08Z" style="fill:#3b48cc"/>
        <path d="M18.83,13.32a2.38,2.38,0,0,1-.91.18,1.14,1.14,0,0,1-.92-.34,1.57,1.57,0,0,1-.29-1.05v-3H16V8.51l.75-.12L16.88,7h.77V8.37h1.16v.76H17.65V12a.88.88,0,0,0,.12.53.51.51,0,0,0,.44.16,1.91,1.91,0,0,0,.62-.1Z" style="fill:#3b48cc"/>
        <path d="M22.29,12.83a1.67,1.67,0,0,1-1.14.51,1.31,1.31,0,0,1-.88-.32,2,2,0,0,1-.57-.87,4.07,4.07,0,0,1-.2-1.32A3.39,3.39,0,0,1,20,8.94a1.36,1.36,0,0,1,1.21-.7,1.79,1.79,0,0,1,1.21.54l.06-.41h.79v4.78c0,1.65-.67,2.47-2,2.47a2.74,2.74,0,0,1-1.4-.37v-.72a3.47,3.47,0,0,0,1.32.31,1,1,0,0,0,.89-.38,2.34,2.34,0,0,0,.25-1.26Zm-.87-.26a1.39,1.39,0,0,0,.87-.38V9.37A1.51,1.51,0,0,0,21.38,9a.75.75,0,0,0-.71.43,3.11,3.11,0,0,0-.23,1.36,2.7,2.7,0,0,0,.25,1.33A.77.77,0,0,0,21.42,12.57Z" style="fill:#3b48cc"/>
        <path d="M24.56,13.44V8.37h.78l.09.61a1.87,1.87,0,0,1,.57-.5,1.47,1.47,0,0,1,.67-.15,1.66,1.66,0,0,1,.32,0v.87a2.74,2.74,0,0,0-.45,0,1.64,1.64,0,0,0-1,.37v3.88Z" style="fill:#3b48cc"/>
        <path d="M28.32,11.11a2.27,2.27,0,0,0,.32,1.3,1.13,1.13,0,0,0,1,.4,3.06,3.06,0,0,0,1.26-.31v.69a2.64,2.64,0,0,1-1.42.38,1.79,1.79,0,0,1-1.52-.66,3.34,3.34,0,0,1-.5-2,3.36,3.36,0,0,1,.5-2,1.67,1.67,0,0,1,1.43-.69,1.42,1.42,0,0,1,1.2.52,2.47,2.47,0,0,1,.4,1.53,3.6,3.6,0,0,1-.08.83Zm1-2.16a.82.82,0,0,0-.71.38,2.26,2.26,0,0,0-.29,1.14h1.8s0-.08,0-.13V10.2a1.72,1.72,0,0,0-.2-.95A.67.67,0,0,0,29.32,9Z" style="fill:#3b48cc"/>
        <path d="M33.16,10.14a2.64,2.64,0,0,1-1-.78,1.86,1.86,0,0,1-.3-1.08,1.87,1.87,0,0,1,.53-1.38,1.94,1.94,0,0,1,1.39-.52,3.8,3.8,0,0,1,1.5.36v.78a3.35,3.35,0,0,0-1.43-.31,1,1,0,0,0-.74.27,1.05,1.05,0,0,0-.28.75,1.07,1.07,0,0,0,.19.63,1.86,1.86,0,0,0,.63.49l.71.36a2.41,2.41,0,0,1,1,.78,1.9,1.9,0,0,1,.3,1.08A2,2,0,0,1,35.08,13a2.11,2.11,0,0,1-1.52.55,3.22,3.22,0,0,1-.88-.11,2.35,2.35,0,0,1-.74-.3v-.77a4.12,4.12,0,0,0,1.59.35,1,1,0,0,0,1.14-1.13,1.24,1.24,0,0,0-.79-1.13Z" style="fill:#3b48cc"/>
        <path d="M36.6,10a4.47,4.47,0,0,1,.69-2.66,2.45,2.45,0,0,1,3.86,0A4.47,4.47,0,0,1,41.84,10a5,5,0,0,1-.48,2.33A2.25,2.25,0,0,1,40,13.48a3.41,3.41,0,0,0,.83.49,4,4,0,0,0,1,.23v.85a4.2,4.2,0,0,1-1.44-.47,5,5,0,0,1-1.25-1,2.4,2.4,0,0,1-1.35-.48,2.68,2.68,0,0,1-.84-1.24A5.6,5.6,0,0,1,36.6,10Zm1,0A4.24,4.24,0,0,0,38,12.06a1.4,1.4,0,0,0,2.44,0A4.13,4.13,0,0,0,40.85,10a4.13,4.13,0,0,0-.41-2.08A1.41,1.41,0,0,0,38,7.9,4.24,4.24,0,0,0,37.59,10Z" style="fill:#3b48cc"/>
        <path d="M43.18,13.44V6.51h1v6.12h2.52v.81Z" style="fill:#3b48cc"/>
        <path d="M40,20.28c-5,0-10,1.56-10,4.55V45.17c0,3,5,4.55,10,4.55s10-1.56,10-4.55V24.83C50,21.84,45,20.28,40,20.28Zm.13,2c5.19,0,8,1.68,8,2.55s-2.83,2.56-8,2.56-8-1.69-8-2.56S34.93,22.28,40.13,22.28Zm0,25.44c-5.2,0-8-1.68-8-2.55V41.75a16.66,16.66,0,0,0,8,1.74,16.65,16.65,0,0,0,8-1.74v3.42C48.15,46,45.32,47.72,40.13,47.72Zm0-6.23c-5.2,0-8-1.69-8-2.56V34.77a16.78,16.78,0,0,0,8,1.73,16.77,16.77,0,0,0,8-1.73v4.16C48.15,39.8,45.32,41.49,40.13,41.49Zm0-7c-5.2,0-8-1.69-8-2.56V27.65a16.66,16.66,0,0,0,8,1.74,16.65,16.65,0,0,0,8-1.74v4.29C48.15,32.81,45.32,34.5,40.13,34.5Z" style="fill:#3b48cc"/>
        <path d="M43.55,0H6.45A6.45,6.45,0,0,0,0,6.45v37.1A6.45,6.45,0,0,0,6.45,50H30V48H6.45A4.46,4.46,0,0,1,2,43.55V6.45A4.46,4.46,0,0,1,6.45,2h37.1A4.46,4.46,0,0,1,48,6.45V21h2V6.45A6.45,6.45,0,0,0,43.55,0Z" style="fill:#3b48cc"/>
    </g>
    <style type="text/css">
        .st4{fill:#d13212}
    </style>
    <g id="grid_x5F_locked"/>
    <g id="icon">
        <g transform="translate(50,0)">
            <path class="st4" d="M13.7,2.3C12.1,0.8,10.1,0,8,0S3.9,0.8,2.3,2.3C0.8,3.9,0,5.9,0,8s0.8,4.1,2.3,5.7C3.9,15.2,5.9,16,8,16
			s4.1-0.8,5.7-2.3C15.2,12.1,16,10.1,16,8S15.2,3.9,13.7,2.3z M12.2,12.2C11.1,13.4,9.6,14,8,14s-3.1-0.6-4.2-1.8S2,9.6,2,8
			s0.6-3.1,1.8-4.2S6.4,2,8,2s3.1,0.6,4.2,1.8S14,6.4,14,8S13.4,11.1,12.2,12.2z"/>
            <polygon class="st4" points="10.1,4.5 8,6.6 5.9,4.5 4.5,5.9 6.6,8 4.5,10.1 5.9,11.5 8,9.4 10.1,11.5 11.5,10.1 9.4,8 11.5,5.9 
					"/>
        </g>
    </g>
</svg>
