<svg id="Product_Icon" data-name="Product Icon" 
    xmlns="http://www.w3.org/2000/svg" 
    xmlns:xlink="http://www.w3.org/1999/xlink" width="100" height="100" viewBox="0 0 75 75">

    <title>Amazon-Elastic-Container-Service</title>
    <rect id="Orange_Gradient" data-name="Orange Gradient" width="75" height="75" style="fill:transparent"/>
    <g id="Icon_Test" data-name="Icon Test">
        <path d="M37.29,64.44a1,1,0,0,1-.53-.14L14,51.18a1.06,1.06,0,0,1-.53-.92V23.68a1.06,1.06,0,0,1,.53-.92L34.93,10.7a1,1,0,0,1,1.57.9V23.11A1.05,1.05,0,0,1,36,24l-10.47,6V43.94l11.79,6.81,10.31-6a1,1,0,0,1,1,0l9.92,5.7a1.06,1.06,0,0,1,.53.92,1,1,0,0,1-.53.91l-20.75,12A1,1,0,0,1,37.29,64.44ZM15.5,49.54,37.83,62.43,57,51.35l-8-4.61L38.37,52.88a1.11,1.11,0,0,1-1.09,0L24,45.22a1.05,1.05,0,0,1-.53-.91V29.46a1,1,0,0,1,.53-.91l10.47-6V13.37l-19,11Z" style="fill:#c8511b"/>
        <path d="M60.44,49a1.13,1.13,0,0,1-.53-.14L50,43.13a1,1,0,0,1-.53-.91V30.11L39,24.07a1.05,1.05,0,0,1-.53-.91V11.65a1,1,0,0,1,.52-.9,1,1,0,0,1,1,0L61,22.82a1.05,1.05,0,0,1,.53.91V47.9a1.06,1.06,0,0,1-.53.92A1.1,1.1,0,0,1,60.44,49ZM51.5,41.55l8,4.6V24.4l-19-11v9.13L51,28.61a1,1,0,0,1,.53.91Z" style="fill:#c8511b"/>
    </g>
    <style type="text/css">
        .st4{fill:#d13212}
    </style>
    <g id="grid_x5F_locked"/>
    <g id="icon">
        <g transform="translate(59,2)">
            <path class="st4" d="M13.7,2.3C12.1,0.8,10.1,0,8,0S3.9,0.8,2.3,2.3C0.8,3.9,0,5.9,0,8s0.8,4.1,2.3,5.7C3.9,15.2,5.9,16,8,16
			s4.1-0.8,5.7-2.3C15.2,12.1,16,10.1,16,8S15.2,3.9,13.7,2.3z M12.2,12.2C11.1,13.4,9.6,14,8,14s-3.1-0.6-4.2-1.8S2,9.6,2,8
			s0.6-3.1,1.8-4.2S6.4,2,8,2s3.1,0.6,4.2,1.8S14,6.4,14,8S13.4,11.1,12.2,12.2z"/>
            <polygon class="st4" points="10.1,4.5 8,6.6 5.9,4.5 4.5,5.9 6.6,8 4.5,10.1 5.9,11.5 8,9.4 10.1,11.5 11.5,10.1 9.4,8 11.5,5.9 
					"/>
        </g>
    </g>
</svg>