<svg id="Layer_1" data-name="Layer 1" xmlns="http://www.w3.org/2000/svg" width="100" height="100" viewBox="0 0 75 75">
    <title>
        Amazon-VPC_NAT-Gateway_light-bg
    </title>
    <g transform="scale(1.25) translate(2,5)">
        <path d="M25,48.5A23.5,23.5,0,1,1,48.5,25,23.52,23.52,0,0,1,25,48.5Zm0-45A21.5,21.5,0,1,0,46.5,25,21.52,21.52,0,0,0,25,3.5Z" style="fill:#693cc5"/>
        <path d="M27.81,38.19H19.57v-2h7.24V15.69H19.57v-2h8.24a1,1,0,0,1,1,1v22.5A1,1,0,0,1,27.81,38.19Z" style="fill:#693cc5"/>
        <rect x="19.37" y="24.94" width="17.81" height="2" style="fill:#693cc5"/>
        <path d="M12.81,19.44a1,1,0,0,1-.43-.1,1,1,0,0,1-.57-.9v-7.5a1,1,0,0,1,.57-.9,1,1,0,0,1,1.06.12l4.68,3.75a1,1,0,0,1,.38.78,1,1,0,0,1-.38.78l-4.68,3.75A1,1,0,0,1,12.81,19.44Zm1-6.42v3.34l2.09-1.67Z" style="fill:#693cc5"/>
        <path d="M12.81,30.69a1,1,0,0,1-.43-.1,1,1,0,0,1-.57-.9v-7.5a1,1,0,0,1,.57-.9,1,1,0,0,1,1.06.12l4.68,3.75a1,1,0,0,1,.38.78,1,1,0,0,1-.38.78l-4.68,3.75A1,1,0,0,1,12.81,30.69Zm1-6.42v3.34l2.09-1.67Z" style="fill:#693cc5"/>
        <path d="M38.12,31.62a1.06,1.06,0,0,1-.38-.07,1,1,0,0,1-.62-.93V21.25a1,1,0,0,1,1.71-.71l4.69,4.69a1,1,0,0,1,0,1.41l-4.69,4.69A1,1,0,0,1,38.12,31.62Zm1-8v4.55l2.28-2.27Z" style="fill:#693cc5"/>
        <path d="M12.81,41a1,1,0,0,1-.43-.1,1,1,0,0,1-.57-.9V32.5a1,1,0,0,1,1.63-.78l4.68,3.75a1,1,0,0,1,0,1.56l-4.68,3.75A1,1,0,0,1,12.81,41Zm1-6.42v3.34l2.09-1.67Z" style="fill:#693cc5"/>
    </g>
    <style type="text/css">
        .st4{fill:#f90}
    </style>
    <g id="grid_x5F_locked"/>
    <g id="icon">
        <g transform="translate(57,0)">
            <path class="st4" d="M15.9,14.6l-7-14c-0.3-0.7-1.5-0.7-1.8,0l-7,14c-0.2,0.3-0.1,0.7,0,1C0.3,15.8,0.7,16,1,16h14
			c0.3,0,0.7-0.2,0.9-0.5C16,15.2,16,14.9,15.9,14.6z M2.6,14L8,3.2L13.4,14H2.6z"/>
            <polygon class="st4" points="7,11 7,13 9,13 9,11 		"/>
            <rect x="7" y="6" class="st4" width="2" height="4"/>
        </g>
    </g>
</svg>
