<svg id="Layer_1" data-name="Layer 1" xmlns="http://www.w3.org/2000/svg" width="50" height="50" viewBox="0 0 50 50"><title>Amazon-EC2_Instances_light-bg</title><path d="M46.35,48.5H26.15A2.15,2.15,0,0,1,24,46.35V26.21A2.21,2.21,0,0,1,26.21,24H46.29a2.21,2.21,0,0,1,2.21,2.21V46.35A2.15,2.15,0,0,1,46.35,48.5ZM26.21,26a.22.22,0,0,0-.21.21V46.35a.15.15,0,0,0,.15.15h20.2a.15.15,0,0,0,.15-.15V26.21a.22.22,0,0,0-.21-.21Z" style="fill:#d86613"/><path d="M22.12,37.25H14A2.22,2.22,0,0,1,11.81,35V15A2.22,2.22,0,0,1,14,12.75H34.1A2.21,2.21,0,0,1,36.31,15v7.23h-2V15a.21.21,0,0,0-.21-.21H14a.22.22,0,0,0-.22.21V35a.22.22,0,0,0,.22.21h8.09Z" style="fill:#d86613"/><path d="M10,26H3.71A2.21,2.21,0,0,1,1.5,23.79V3.71A2.21,2.21,0,0,1,3.71,1.5H23.79A2.21,2.21,0,0,1,26,3.71v7.23H24V3.71a.22.22,0,0,0-.21-.21H3.71a.22.22,0,0,0-.21.21V23.79a.22.22,0,0,0,.21.21H10Z" style="fill:#d86613"/></svg>