<svg xmlns="http://www.w3.org/2000/svg" width="100" height="100" viewBox="0 0 75 75">
    <title>
        Amazon-RDS_MySQL_instance_light-bg
    </title>
    <g id="Working" transform="translate(5, 15)">
        <polygon points="15.26 16.18 15.26 7.18 13.23 7.18 11.38 12.22 9.52 7.18 7.44 7.18 7.44 16.18 9.06 16.18 9.06 9.91 10.57 13.96 12.12 13.96 13.64 9.87 13.64 16.18 15.26 16.18" style="fill:#3b48cc"/>
        <path d="M18,17.42a1,1,0,0,1-.74.26,5,5,0,0,1-.62-.05v1.19a3.6,3.6,0,0,0,1.14.2,1.67,1.67,0,0,0,1.2-.43,3.16,3.16,0,0,0,.73-1.39l2.19-7.66H20.06l-1,4.89-1-4.89H16.2l2.14,6.77,0,.24A1.47,1.47,0,0,1,18,17.42Z" style="fill:#3b48cc"/>
        <path d="M24.68,14.92a5.52,5.52,0,0,1-1-.12,7,7,0,0,1-1.08-.3v1.36a3.89,3.89,0,0,0,1,.38,5.73,5.73,0,0,0,1.23.14,3.17,3.17,0,0,0,2.2-.72,2.53,2.53,0,0,0,.8-2,2.9,2.9,0,0,0-.19-1.08A2.41,2.41,0,0,0,27,11.8,5.2,5.2,0,0,0,26,11.08l-.7-.38a2.57,2.57,0,0,1-.77-.57,1,1,0,0,1-.2-.67.93.93,0,0,1,.31-.75,1.27,1.27,0,0,1,.86-.27,5.43,5.43,0,0,1,1.85.39V7.45a4.82,4.82,0,0,0-2-.47,3.22,3.22,0,0,0-1.45.32,2.42,2.42,0,0,0-1,.91,2.6,2.6,0,0,0-.36,1.38,2.46,2.46,0,0,0,.41,1.46,4,4,0,0,0,1.38,1.12l.7.37a2.52,2.52,0,0,1,.76.57,1.18,1.18,0,0,1-.1,1.52A1.32,1.32,0,0,1,24.68,14.92Z" style="fill:#3b48cc"/>
        <path d="M35.55,14.57a6.37,6.37,0,0,0,.59-2.9,5.56,5.56,0,0,0-1-3.46,3.5,3.5,0,0,0-5.33,0,5.56,5.56,0,0,0-.95,3.46,5.7,5.7,0,0,0,.9,3.42,3.11,3.11,0,0,0,2.54,1.29A5.86,5.86,0,0,0,34,17.72a6,6,0,0,0,2,.69V16.93a5.64,5.64,0,0,1-1.21-.26,3.33,3.33,0,0,1-.9-.51A3.15,3.15,0,0,0,35.55,14.57Zm-1.72-.48a1.44,1.44,0,0,1-2.6,0,5.14,5.14,0,0,1-.44-2.42,5.4,5.4,0,0,1,.42-2.43,1.41,1.41,0,0,1,1.32-.79,1.4,1.4,0,0,1,1.31.79,5.25,5.25,0,0,1,.43,2.43A5.27,5.27,0,0,1,33.83,14.09Z" style="fill:#3b48cc"/>
        <polygon points="37.67 7.18 37.67 16.18 42.56 16.18 42.56 14.74 39.49 14.74 39.49 7.18 37.67 7.18" style="fill:#3b48cc"/>
        <path d="M40,20.28c-5,0-10,1.56-10,4.55V45.17c0,3,5,4.55,10,4.55s10-1.56,10-4.55V24.83C50,21.84,45,20.28,40,20.28Zm.13,2c5.19,0,8,1.68,8,2.55s-2.83,2.56-8,2.56-8-1.69-8-2.56S34.93,22.28,40.13,22.28Zm0,25.44c-5.2,0-8-1.68-8-2.55V41.75a16.66,16.66,0,0,0,8,1.74,16.65,16.65,0,0,0,8-1.74v3.42C48.15,46,45.32,47.72,40.13,47.72Zm0-6.23c-5.2,0-8-1.69-8-2.56V34.77a16.78,16.78,0,0,0,8,1.73,16.77,16.77,0,0,0,8-1.73v4.16C48.15,39.8,45.32,41.49,40.13,41.49Zm0-7c-5.2,0-8-1.69-8-2.56V27.65a16.66,16.66,0,0,0,8,1.74,16.65,16.65,0,0,0,8-1.74v4.29C48.15,32.81,45.32,34.5,40.13,34.5Z" style="fill:#3b48cc"/>
        <path d="M43.55,0H6.45A6.45,6.45,0,0,0,0,6.45v37.1A6.45,6.45,0,0,0,6.45,50H30V48H6.45A4.46,4.46,0,0,1,2,43.55V6.45A4.46,4.46,0,0,1,6.45,2h37.1A4.46,4.46,0,0,1,48,6.45V21h2V6.45A6.45,6.45,0,0,0,43.55,0Z" style="fill:#3b48cc"/>
    </g>
     <style type="text/css">
        .st4{fill:#f90}
    </style>
    <g id="grid_x5F_locked"/>
    <g id="icon">
        <g transform="translate(55,0)">
            <path class="st4" d="M15.9,14.6l-7-14c-0.3-0.7-1.5-0.7-1.8,0l-7,14c-0.2,0.3-0.1,0.7,0,1C0.3,15.8,0.7,16,1,16h14
			c0.3,0,0.7-0.2,0.9-0.5C16,15.2,16,14.9,15.9,14.6z M2.6,14L8,3.2L13.4,14H2.6z"/>
            <polygon class="st4" points="7,11 7,13 9,13 9,11 		"/>
            <rect x="7" y="6" class="st4" width="2" height="4"/>
        </g>
    </g>
</svg>
