<svg xmlns="http://www.w3.org/2000/svg" widht="75" height="75" viewBox="0 0 75 75">
    <defs>
        <style>
            .cls-1{fill:#d6242d}
        </style>
    </defs>
    <title>
        Amazon-API-Gateway_Endpoint_light-bg
    </title>
    <g id="Working">
        <path class="cls-1" d="M34.53,2H15.47L2,15.47V34.53L15.47,48H34.53L48,34.53V15.47ZM46,33.7,33.7,46H16.3L4,33.7V16.3L16.3,4H33.7L46,16.3Z"/>
        <path class="cls-1" d="M17.74,9.25l-8,7A1.53,1.53,0,0,0,9,17.51V32.63a1.53,1.53,0,0,0,.77,1.31l7.71,6.78.26.17a3,3,0,0,0,1,.18,1.6,1.6,0,0,0,.77-.17l.51-.29V9.53l-.52-.29A2.35,2.35,0,0,0,17.74,9.25ZM18,38.52l-7-6.16V17.78l7-6.16Z"/>
        <path class="cls-1" d="M32.26,9.25a2.35,2.35,0,0,0-1.74,0L30,9.53V40.61l.51.29a1.6,1.6,0,0,0,.77.17,3,3,0,0,0,1-.18l8-7A1.53,1.53,0,0,0,41,32.63V17.51a1.53,1.53,0,0,0-.77-1.31L32.52,9.42ZM39,32.36l-7,6.16V11.62l7,6.16Z"/>
        <rect class="cls-1" x="21" y="24" width="2" height="2"/>
        <rect class="cls-1" x="24" y="24" width="2" height="2"/>
        <rect class="cls-1" x="27" y="24" width="2" height="2"/>
    </g>
</svg>
