<svg id="Layer_1" data-name="Layer 1" xmlns="http://www.w3.org/2000/svg" width="75" height="75" viewBox="0 0 75 75">
    <title>
        Amazon-CloudWatch_Alarm_light-bg
    </title>
    <path d="M14.69,44.75H5.31a1,1,0,0,1-1-1V23.12a1,1,0,0,1,1-1h9.38a1,1,0,0,1,1,1V43.75A1,1,0,0,1,14.69,44.75Zm-8.38-2h7.38V24.12H6.31Z" style="fill:#cd2264"/>
    <path d="M29.69,44.75H20.31a1,1,0,0,1-1-1V27.81a1,1,0,0,1,1-1h9.38a1,1,0,0,1,1,1V43.75A1,1,0,0,1,29.69,44.75Zm-8.38-2h7.38V28.81H21.31Z" style="fill:#cd2264"/>
    <rect x="1.56" y="46.5" width="46.87" height="2" style="fill:#cd2264"/>
    <path d="M40,16.62a7.56,7.56,0,1,1,7.56-7.56A7.57,7.57,0,0,1,40,16.62ZM40,3.5a5.56,5.56,0,1,0,5.56,5.56A5.57,5.57,0,0,0,40,3.5Z" style="fill:#cd2264"/>
    <path d="M44.69,44.75H35.31a1,1,0,0,1-1-1V18.89a1,1,0,0,1,.47-.85,1,1,0,0,1,1-.05,10,10,0,0,0,8.52,0,1,1,0,0,1,1,.05,1,1,0,0,1,.47.85V43.75A1,1,0,0,1,44.69,44.75Zm-8.38-2h7.38V20.36a11.93,11.93,0,0,1-7.38,0Z" style="fill:#cd2264"/>
</svg>
