<svg id="Layer_1" data-name="Layer 1" xmlns="http://www.w3.org/2000/svg" width="100" height="100" viewBox="0 0 75 75">
    <title>
        Amazon-VPC_NAT-Gateway_light-bg
    </title>
    <g transform="scale(1.25) translate(2,5)">
        <path d="M25,48.5A23.5,23.5,0,1,1,48.5,25,23.52,23.52,0,0,1,25,48.5Zm0-45A21.5,21.5,0,1,0,46.5,25,21.52,21.52,0,0,0,25,3.5Z" style="fill:#693cc5"/>
        <path d="M27.81,38.19H19.57v-2h7.24V15.69H19.57v-2h8.24a1,1,0,0,1,1,1v22.5A1,1,0,0,1,27.81,38.19Z" style="fill:#693cc5"/>
        <rect x="19.37" y="24.94" width="17.81" height="2" style="fill:#693cc5"/>
        <path d="M12.81,19.44a1,1,0,0,1-.43-.1,1,1,0,0,1-.57-.9v-7.5a1,1,0,0,1,.57-.9,1,1,0,0,1,1.06.12l4.68,3.75a1,1,0,0,1,.38.78,1,1,0,0,1-.38.78l-4.68,3.75A1,1,0,0,1,12.81,19.44Zm1-6.42v3.34l2.09-1.67Z" style="fill:#693cc5"/>
        <path d="M12.81,30.69a1,1,0,0,1-.43-.1,1,1,0,0,1-.57-.9v-7.5a1,1,0,0,1,.57-.9,1,1,0,0,1,1.06.12l4.68,3.75a1,1,0,0,1,.38.78,1,1,0,0,1-.38.78l-4.68,3.75A1,1,0,0,1,12.81,30.69Zm1-6.42v3.34l2.09-1.67Z" style="fill:#693cc5"/>
        <path d="M38.12,31.62a1.06,1.06,0,0,1-.38-.07,1,1,0,0,1-.62-.93V21.25a1,1,0,0,1,1.71-.71l4.69,4.69a1,1,0,0,1,0,1.41l-4.69,4.69A1,1,0,0,1,38.12,31.62Zm1-8v4.55l2.28-2.27Z" style="fill:#693cc5"/>
        <path d="M12.81,41a1,1,0,0,1-.43-.1,1,1,0,0,1-.57-.9V32.5a1,1,0,0,1,1.63-.78l4.68,3.75a1,1,0,0,1,0,1.56l-4.68,3.75A1,1,0,0,1,12.81,41Zm1-6.42v3.34l2.09-1.67Z" style="fill:#693cc5"/>
    </g>
    <style type="text/css">
        .st4{fill:#d13212}
    </style>
    <g id="grid_x5F_locked"/>
    <g id="icon">
        <g transform="translate(55,0)">
            <path class="st4" d="M13.7,2.3C12.1,0.8,10.1,0,8,0S3.9,0.8,2.3,2.3C0.8,3.9,0,5.9,0,8s0.8,4.1,2.3,5.7C3.9,15.2,5.9,16,8,16
			s4.1-0.8,5.7-2.3C15.2,12.1,16,10.1,16,8S15.2,3.9,13.7,2.3z M12.2,12.2C11.1,13.4,9.6,14,8,14s-3.1-0.6-4.2-1.8S2,9.6,2,8
			s0.6-3.1,1.8-4.2S6.4,2,8,2s3.1,0.6,4.2,1.8S14,6.4,14,8S13.4,11.1,12.2,12.2z"/>
            <polygon class="st4" points="10.1,4.5 8,6.6 5.9,4.5 4.5,5.9 6.6,8 4.5,10.1 5.9,11.5 8,9.4 10.1,11.5 11.5,10.1 9.4,8 11.5,5.9 
					"/>
        </g>
    </g>
</svg>
