<svg id="Product_Icon" data-name="Product Icon" 
    xmlns="http://www.w3.org/2000/svg" 
    xmlns:xlink="http://www.w3.org/1999/xlink" width="75" height="75" viewBox="0 0 75 75">

    <title>Amazon-Elastic-Container-Service</title>
    <rect id="Orange_Gradient" data-name="Orange Gradient" width="75" height="75" style="fill:transparent"/>
    <g id="Icon_Test" data-name="Icon Test">
        <path d="M37.29,64.44a1,1,0,0,1-.53-.14L14,51.18a1.06,1.06,0,0,1-.53-.92V23.68a1.06,1.06,0,0,1,.53-.92L34.93,10.7a1,1,0,0,1,1.57.9V23.11A1.05,1.05,0,0,1,36,24l-10.47,6V43.94l11.79,6.81,10.31-6a1,1,0,0,1,1,0l9.92,5.7a1.06,1.06,0,0,1,.53.92,1,1,0,0,1-.53.91l-20.75,12A1,1,0,0,1,37.29,64.44ZM15.5,49.54,37.83,62.43,57,51.35l-8-4.61L38.37,52.88a1.11,1.11,0,0,1-1.09,0L24,45.22a1.05,1.05,0,0,1-.53-.91V29.46a1,1,0,0,1,.53-.91l10.47-6V13.37l-19,11Z" style="fill:#c8511b"/>
        <path d="M60.44,49a1.13,1.13,0,0,1-.53-.14L50,43.13a1,1,0,0,1-.53-.91V30.11L39,24.07a1.05,1.05,0,0,1-.53-.91V11.65a1,1,0,0,1,.52-.9,1,1,0,0,1,1,0L61,22.82a1.05,1.05,0,0,1,.53.91V47.9a1.06,1.06,0,0,1-.53.92A1.1,1.1,0,0,1,60.44,49ZM51.5,41.55l8,4.6V24.4l-19-11v9.13L51,28.61a1,1,0,0,1,.53.91Z" style="fill:#c8511b"/>
    </g>
</svg>