<svg id="Layer_1" data-name="Layer 1" xmlns="http://www.w3.org/2000/svg" width="50" height="50" viewBox="0 0 50 50"><title>Amazon-EC2_DB-on-Instance_light-bg</title><rect x="10.12" y="0.81" width="2" height="5.13" style="fill:#d86613"/><rect x="15.77" y="0.81" width="2" height="5.13" style="fill:#d86613"/><rect x="21.43" y="0.81" width="2" height="5.13" style="fill:#d86613"/><rect x="27.09" y="0.81" width="2" height="5.13" style="fill:#d86613"/><rect x="32.75" y="0.81" width="2" height="5.13" style="fill:#d86613"/><rect x="10.12" y="38.94" width="2" height="5.13" style="fill:#d86613"/><rect x="15.77" y="38.94" width="2" height="5.13" style="fill:#d86613"/><rect x="21.43" y="38.94" width="2" height="5.13" style="fill:#d86613"/><rect x="39.14" y="10.13" width="5.13" height="2" style="fill:#d86613"/><rect x="39.14" y="15.79" width="5.13" height="2" style="fill:#d86613"/><polygon points="29.09 44.07 27.09 44.07 27.09 39.94 5.15 39.94 5.15 4.95 40.14 4.95 40.14 21.44 44.27 21.44 44.27 23.44 38.14 23.44 38.14 6.95 7.15 6.95 7.15 37.94 29.09 37.94 29.09 44.07" style="fill:#d86613"/><rect x="1.02" y="10.13" width="5.13" height="2" style="fill:#d86613"/><rect x="1.02" y="15.79" width="5.13" height="2" style="fill:#d86613"/><rect x="1.02" y="21.44" width="5.13" height="2" style="fill:#d86613"/><rect x="1.02" y="27.1" width="5.13" height="2" style="fill:#d86613"/><rect x="1.02" y="32.76" width="5.13" height="2" style="fill:#d86613"/><path d="M40.87,50.19c-4.39,0-9.11-1.22-9.11-3.88V29.85c0-2.67,4.72-3.88,9.11-3.88S50,27.18,50,29.85V46.31C50,49,45.26,50.19,40.87,50.19Zm0-22.22c-4.66,0-7.11,1.39-7.11,1.88V46.31c0,.48,2.45,1.88,7.11,1.88S48,46.79,48,46.31V29.85C48,29.36,45.54,28,40.87,28Z" style="fill:#d86613"/><path d="M40.87,33.23c-4.39,0-9.11-1.22-9.11-3.88h2c0,.48,2.45,1.88,7.11,1.88S48,29.83,48,29.35h2C50,32,45.26,33.23,40.87,33.23Z" style="fill:#d86613"/></svg>