<svg xmlns="http://www.w3.org/2000/svg" width="75" height="75" viewBox="0 0 50 50">
    <title>
        Amazon-Redshift-Snapshot
    </title>
    <text transform="translate(-6, 4)" font-size="9" fill="#3b48cc"
          font-family="Amazon Ember, Helvetica, Arial, sans-serif" font-weight="bold">
        <tspan x="1em" dy="1em">Snapshot</tspan>
    </text>
    <defs>
        <style>
            .cls-1 {
            fill: #fff;
            }

            .cls-2 {
            fill: #3b48cc;
            }
        </style>
    </defs>
    <g id="Working">
        <!-- <path d="M9.77,14.91,9.3,12.76H7.15l-.46,2.15H4.78l2.49-9h2l2.48,9ZM7.42,11.46H9L8.21,7.73Z" style="fill:#3b48cc"/> -->
        <!-- <path d="M19.17,14.91V10.53A1.68,1.68,0,0,0,19,9.71a.52.52,0,0,0-.5-.26,1.62,1.62,0,0,0-.86.31.61.61,0,0,1,0,.14v5H15.89V10.53a1.68,1.68,0,0,0-.15-.82.51.51,0,0,0-.5-.26,1.59,1.59,0,0,0-.84.31v5.15H12.62V8.26h1.45l.15.6a3.35,3.35,0,0,1,2-.77,1.34,1.34,0,0,1,1.3.8,3.4,3.4,0,0,1,2-.8,1.32,1.32,0,0,1,1.12.51A2.28,2.28,0,0,1,21,10v4.88Z" style="fill:#3b48cc"/> -->
        <!-- <path d="M25.59,14.91l-.15-.6a1.73,1.73,0,0,1-.64.55,1.89,1.89,0,0,1-.85.22,1.62,1.62,0,0,1-1.27-.53,2.11,2.11,0,0,1-.47-1.45,2.08,2.08,0,0,1,.57-1.54A2.1,2.1,0,0,1,24.33,11a4.34,4.34,0,0,1,1,.16v-.6a1.72,1.72,0,0,0-.17-.91.78.78,0,0,0-.66-.25,5.66,5.66,0,0,0-1.91.42V8.63a2.84,2.84,0,0,1,1-.39,5.13,5.13,0,0,1,1.24-.15,2.24,2.24,0,0,1,1.64.52A2.25,2.25,0,0,1,27,10.25v4.66Zm-1.12-1.08a1.25,1.25,0,0,0,.86-.42V12.14a2.29,2.29,0,0,0-.68-.09.69.69,0,0,0-.57.24,1,1,0,0,0-.21.69,1,1,0,0,0,.17.62A.51.51,0,0,0,24.47,13.83Z" style="fill:#3b48cc"/> -->
        <!-- <path d="M28,14.91V13.65l2.69-4H28.14V8.26H32.6V9.52l-2.69,4h2.74v1.37Z" style="fill:#3b48cc"/> -->
        <!-- <path d="M36.15,15.08a2.38,2.38,0,0,1-2-.91,4.15,4.15,0,0,1-.7-2.58A4.16,4.16,0,0,1,34.16,9a2.63,2.63,0,0,1,4,0,4.22,4.22,0,0,1,.7,2.59,4.21,4.21,0,0,1-.7,2.58A2.38,2.38,0,0,1,36.15,15.08Zm0-1.36a.72.72,0,0,0,.69-.51,4.31,4.31,0,0,0,.22-1.62A4.31,4.31,0,0,0,36.84,10a.71.71,0,0,0-.69-.52.72.72,0,0,0-.7.52,4.57,4.57,0,0,0-.21,1.62,4.57,4.57,0,0,0,.21,1.62A.73.73,0,0,0,36.15,13.72Z" style="fill:#3b48cc"/> -->
        <!-- <path d="M43.44,14.91V10.54a1.6,1.6,0,0,0-.16-.83.55.55,0,0,0-.53-.26,1.62,1.62,0,0,0-.88.31v5.15H40.09V8.26h1.45l.15.6a3.38,3.38,0,0,1,2-.77,1.37,1.37,0,0,1,1.15.5,2.23,2.23,0,0,1,.4,1.44v4.88Z" style="fill:#3b48cc"/> -->
        <!-- <path d="M9.64,27.91,8.07,24.57h-.7v3.34H5.58v-9H8.43a2.49,2.49,0,0,1,1.91.76,2.93,2.93,0,0,1,.7,2.07,3.29,3.29,0,0,1-.35,1.58,2.16,2.16,0,0,1-1,1l1.82,3.62Zm-2.27-4.7h.84A.87.87,0,0,0,9,22.84a1.89,1.89,0,0,0,.27-1.11A1.88,1.88,0,0,0,9,20.63a.88.88,0,0,0-.77-.38H7.37Z" style="fill:#3b48cc"/> -->
        <!-- <path d="M12.51,27.91v-9h2.72A3,3,0,0,1,17.78,20a5.5,5.5,0,0,1,.87,3.36,5.55,5.55,0,0,1-.86,3.36,2.9,2.9,0,0,1-2.49,1.15Zm1.82-7.62v6.23h.77a1.37,1.37,0,0,0,1.26-.74,4.68,4.68,0,0,0,.42-2.25v-.26A4.78,4.78,0,0,0,16.37,21a1.37,1.37,0,0,0-1.28-.72Z" style="fill:#3b48cc"/> -->
        <!-- <path d="M21.48,23.89a4,4,0,0,1-1.38-1.12,2.53,2.53,0,0,1-.41-1.45,2.64,2.64,0,0,1,.36-1.39,2.51,2.51,0,0,1,1-.91,3.19,3.19,0,0,1,1.45-.32,4.89,4.89,0,0,1,2,.47v1.38a5.44,5.44,0,0,0-1.86-.39,1.28,1.28,0,0,0-.86.27,1,1,0,0,0-.31.76,1.08,1.08,0,0,0,.2.66,2.71,2.71,0,0,0,.77.57l.71.38a5.08,5.08,0,0,1,1.07.73,2.25,2.25,0,0,1,.58.81A2.71,2.71,0,0,1,25,25.42a2.48,2.48,0,0,1-.8,2,3.15,3.15,0,0,1-2.2.72A5.57,5.57,0,0,1,20.81,28a4,4,0,0,1-1-.38V26.22a6.82,6.82,0,0,0,1.09.3,5.45,5.45,0,0,0,1,.13,1.35,1.35,0,0,0,1-.3,1.22,1.22,0,0,0,.1-1.52,2.81,2.81,0,0,0-.76-.56Z" style="fill:#3b48cc"/> -->
        <g id="Product_Icon" data-name="Product Icon" transform="translate(20,15) scale(0.55)">
            <path class="cls-2"
                  d="M37.5,62.5c-8.24,0-17-2.39-17-6.82V19.32h2V55.68c0,2,5.71,4.82,15,4.82s15-2.8,15-4.82V19.32h2V55.68C54.5,60.11,45.74,62.5,37.5,62.5Z" />
            <path class="cls-2"
                  d="M37.5,62.5c-8.24,0-17-2.39-17-6.82V19.32h2V55.68c0,2,5.71,4.82,15,4.82s15-2.8,15-4.82V19.32h2V55.68C54.5,60.11,45.74,62.5,37.5,62.5Z" />
            <path class="cls-2"
                  d="M37.5,26.13c-8.24,0-17-2.39-17-6.81s8.76-6.82,17-6.82,17,2.39,17,6.82S45.74,26.13,37.5,26.13Zm0-11.63c-9.29,0-15,2.8-15,4.82s5.71,4.81,15,4.81,15-2.8,15-4.81S46.79,14.5,37.5,14.5Z" />
            <rect class="cls-2" x="36.48" y="38.02" width="2" height="6.22"
                  transform="translate(-10.94 68.55) rotate(-77.19)" />
            <rect class="cls-2" x="42.05" y="35.78" width="6.3" height="2"
                  transform="translate(-5.61 65.32) rotate(-68.46)" />
            <rect class="cls-2" x="27.4" y="43.59" width="5.2" height="2"
                  transform="translate(-22.78 54.68) rotate(-66.89)" />
            <path class="cls-2"
                  d="M28,52.77a3.5,3.5,0,1,1,3.5-3.5A3.5,3.5,0,0,1,28,52.77Zm0-5a1.5,1.5,0,1,0,1.5,1.5A1.5,1.5,0,0,0,28,47.77Z" />
            <path class="cls-2"
                  d="M32,43.39a3.5,3.5,0,1,1,3.5-3.5A3.5,3.5,0,0,1,32,43.39Zm0-5a1.5,1.5,0,1,0,1.5,1.5h0A1.5,1.5,0,0,0,32,38.39Z" />
            <path class="cls-2"
                  d="M43,45.5A3.5,3.5,0,1,1,46.5,42,3.5,3.5,0,0,1,43,45.5Zm0-5A1.5,1.5,0,1,0,44.5,42,1.5,1.5,0,0,0,43,40.5Z" />
            <path class="cls-2"
                  d="M47,35a3.5,3.5,0,1,1,3.5-3.5v.05A3.51,3.51,0,0,1,47,35Zm0-5a1.5,1.5,0,1,0,1.5,1.55A1.5,1.5,0,0,0,47,30Z" />
        </g>
        <path d="M43.55,0H6.45A6.45,6.45,0,0,0,0,6.45v37.1A6.45,6.45,0,0,0,6.45,50H30V48H6.45A4.46,4.46,0,0,1,2,43.55V6.45A4.46,4.46,0,0,1,6.45,2h37.1A4.46,4.46,0,0,1,48,6.45V21h2V6.45A6.45,6.45,0,0,0,43.55,0Z" style="fill:#3b48cc"/>
    </g>
</svg>
