<svg xmlns="http://www.w3.org/2000/svg" width="100" height="100" viewBox="0 0 75 75">
    <defs>
        <style>
            .cls-1{fill:#3f8624}
        </style>
    </defs>
    <title>
        Amazon-Elastic-Block-Store-EBS_Volume_light-bg
    </title>
    <g id="Working" transform="scale(1.25) translate(0,10)">
        <path class="cls-1" d="M42.84,48.5H7.22a1,1,0,0,1-1-1V14.69a1,1,0,0,1,1-1H42.84a1,1,0,0,1,1,1V47.5A1,1,0,0,1,42.84,48.5Zm-34.62-2H41.84V15.69H8.22Z"/>
        <path class="cls-1" d="M42.84,11.94H7.16a1,1,0,0,1-.9-.56,1,1,0,0,1,.1-1L12.7,1.9a1,1,0,0,1,.8-.4h23a1,1,0,0,1,.8.4l6.34,8.44a1,1,0,0,1,.1,1A1,1,0,0,1,42.84,11.94Zm-33.68-2H40.84L36,3.5H14Z"/>
    </g>
    <style type="text/css">
        .st4{fill:#1d8102}
    </style>
    <g id="grid_x5F_locked"/>
    <g id="icon">
        <g transform="translate(52,0)">
            <path class="st4" d="M8,0C3.6,0,0,3.6,0,8s3.6,8,8,8s8-3.6,8-8S12.4,0,8,0z M8,14c-3.3,0-6-2.7-6-6s2.7-6,6-6s6,2.7,6,6
			S11.3,14,8,14z"/>
            <polygon class="st4" points="7,8.6 5,6.6 3.6,8 7,11.4 11.9,6.5 10.5,5.1 		"/>
        </g>
    </g>
</svg>
