<svg id="Layer_1" data-name="Layer 1" 
    xmlns="http://www.w3.org/2000/svg" width="50" height="50" viewBox="0 0 50 50">
    <title>Amazon-VPC_Internet-Gateway_light-bg</title>
    <path d="M25,48.5A23.5,23.5,0,1,1,48.5,25,23.52,23.52,0,0,1,25,48.5Zm0" stroke="#693cc5" fill="#FFFFFF" fill-opacity="1.0"/>
    <path d="M36.25,39.12H32.49a1,1,0,0,1-1-1V18.72a14.3,14.3,0,0,0-6.25-1.58,14.67,14.67,0,0,0-6.77,1.8V38.12a1,1,0,0,1-1,1H13.75a1,1,0,0,1-1-1V16.3a1,1,0,0,1,.34-.75,18.48,18.48,0,0,1,12.16-4.17,19,19,0,0,1,11.62,3.71,1,1,0,0,1,.38.79V38.12A1,1,0,0,1,36.25,39.12Zm-2.76-2h1.76V16.37a17.18,17.18,0,0,0-10-3,16.73,16.73,0,0,0-10.5,3.38V37.12h1.72V18.32a1,1,0,0,1,.55-.9,17.55,17.55,0,0,1,8.22-2.28,17.12,17.12,0,0,1,7.57,2l.1,0a1,1,0,0,1,.58.91Z" style="fill:#693cc5"/>
</svg>