<svg id="Layer_1" data-name="Layer 1" xmlns="http://www.w3.org/2000/svg" width="100" height="100" viewBox="0 0 75 75">
    <title>
        Amazon-EC2_T2-Instance_light-bg
    </title>
    <g transform="translate(4, 5) scale(1.25)">
        <text transform="translate(-3, 16)" font-size="14" fill="#d86613" font-family="Amazon Ember, Helvetica, Arial, sans-serif" font-weight="bold">
            <tspan x="1em" dy="1em">M6i</tspan>
        </text>
        <path d="M44.31,44.31H5.69V5.69H44.31Zm-36.62-2H42.31V7.69H7.69Z" style="fill:#d86613"/>
        <rect x="11.21" y="1" width="2" height="5.69" style="fill:#d86613"/>
        <rect x="17.48" y="1" width="2" height="5.69" style="fill:#d86613"/>
        <rect x="23.76" y="1" width="2" height="5.69" style="fill:#d86613"/>
        <rect x="30.04" y="1" width="2" height="5.69" style="fill:#d86613"/>
        <rect x="36.32" y="1" width="2" height="5.69" style="fill:#d86613"/>
        <rect x="11.21" y="43.31" width="2" height="5.69" style="fill:#d86613"/>
        <rect x="17.48" y="43.31" width="2" height="5.69" style="fill:#d86613"/>
        <rect x="23.76" y="43.31" width="2" height="5.69" style="fill:#d86613"/>
        <rect x="30.04" y="43.31" width="2" height="5.69" style="fill:#d86613"/>
        <rect x="36.32" y="43.31" width="2" height="5.69" style="fill:#d86613"/>
        <rect x="43.31" y="11.45" width="5.69" height="2" style="fill:#d86613"/>
        <rect x="43.31" y="17.72" width="5.69" height="2" style="fill:#d86613"/>
        <rect x="43.31" y="24" width="5.69" height="2" style="fill:#d86613"/>
        <rect x="43.31" y="30.28" width="5.69" height="2" style="fill:#d86613"/>
        <rect x="43.31" y="36.55" width="5.69" height="2" style="fill:#d86613"/>
        <rect x="1" y="11.45" width="5.69" height="2" style="fill:#d86613"/>
        <rect x="1" y="17.72" width="5.69" height="2" style="fill:#d86613"/>
        <rect x="1" y="24" width="5.69" height="2" style="fill:#d86613"/>
        <rect x="1" y="30.28" width="5.69" height="2" style="fill:#d86613"/>
        <rect x="1" y="36.55" width="5.69" height="2" style="fill:#d86613"/>
    </g>
    <style type="text/css">
        .st4{fill:#d13212}
    </style>
    <g id="grid_x5F_locked"/>
    <g id="icon">
        <g transform="translate(59,0)">
            <path class="st4" d="M13.7,2.3C12.1,0.8,10.1,0,8,0S3.9,0.8,2.3,2.3C0.8,3.9,0,5.9,0,8s0.8,4.1,2.3,5.7C3.9,15.2,5.9,16,8,16
			s4.1-0.8,5.7-2.3C15.2,12.1,16,10.1,16,8S15.2,3.9,13.7,2.3z M12.2,12.2C11.1,13.4,9.6,14,8,14s-3.1-0.6-4.2-1.8S2,9.6,2,8
			s0.6-3.1,1.8-4.2S6.4,2,8,2s3.1,0.6,4.2,1.8S14,6.4,14,8S13.4,11.1,12.2,12.2z"/>
            <polygon class="st4" points="10.1,4.5 8,6.6 5.9,4.5 4.5,5.9 6.6,8 4.5,10.1 5.9,11.5 8,9.4 10.1,11.5 11.5,10.1 9.4,8 11.5,5.9 
					"/>
        </g>
    </g>
</svg>
