<svg xmlns="http://www.w3.org/2000/svg" width="100" height="100" viewBox="0 0 75 75">
    <defs>
        <style>
            .cls-2{fill:#cc2264}
        </style>
    </defs>
    <title>
        Amazon-Simple-Notification-Service-SNS_light-bg
    </title>
    <g id="Working">
        <rect id="Pink_Light_BG" data-name="Pink Light BG" width="75" height="75" style="fill:transparent"/>
        <g id="Product_Icon" data-name="Product Icon">
            <path class="cls-2" d="M54.58,50.92l0,.83c0-.1,0-.2,0-.3A2.33,2.33,0,0,1,54.58,50.92Z"/>
            <path class="cls-2" d="M41.45,31l-.1.19a.72.72,0,0,0,.09-.2Z"/>
            <path class="cls-2" d="M32.78,27.53c-.89,0-8.75-.07-8.75,2.9a1.42,1.42,0,0,0,.1.55,2,2,0,0,0,.1.21l5.44,12v6.21c0,.63.26,1,.81,1h.26a8.76,8.76,0,0,0,3.42-1.77l.67-.47a1,1,0,0,0,.47-.84V43.22l6.05-12h0a.72.72,0,0,0,.09-.2,1.42,1.42,0,0,0,.1-.55C41.54,27.46,33.68,27.53,32.78,27.53Zm0,1.84c3.53,0,5.8.62,6.56,1.06-.76.44-3,1.06-6.56,1.06s-5.79-.62-6.55-1.06C27,30,29.25,29.37,32.78,29.37Zm.73,13c0,.14,0,.39,0,.65v3.91l-.39.24c-.57.33-1.07.56-1.64.86V43a1.14,1.14,0,0,0-.08-.4l-4.26-9.74a25.91,25.91,0,0,0,5.64.62,26.37,26.37,0,0,0,5.48-.58Z"/>
            <path class="cls-2" d="M51,55.17A22.8,22.8,0,0,1,37.54,59.5C26.66,59.5,17.38,52.43,15.2,42a4.51,4.51,0,0,0,4.18-3.49h5.1V36.62H19.4A4.49,4.49,0,0,0,15.22,33a23,23,0,0,1,35.4-13.42L51.76,18A25,25,0,0,0,13.08,33.44a4.48,4.48,0,0,0,0,8.13A25,25,0,0,0,37.54,61.5a24.77,24.77,0,0,0,14.58-4.71ZM12.5,37.5A2.5,2.5,0,0,1,14.7,35H15a2.5,2.5,0,1,1-2.49,2.5Z"/>
            <path class="cls-2" d="M14.86,35a0,0,0,0,0,0,0l-.15,0Z"/>
            <path class="cls-2" d="M60,42a4.5,4.5,0,1,0-4.4-5.43h-5.2l0-12.37h2.7a4.5,4.5,0,1,0,.08-1.61l-3.68-.05a.83.83,0,0,0-1,.88V36.54H40.81v1.85H48.5V51.47a1,1,0,0,0,1,1h3.14a4.5,4.5,0,1,0,0-1.77H50.46l-.05-12.32H55.6A4.51,4.51,0,0,0,60,42Zm0-7a2.5,2.5,0,1,1-2.5,2.5A2.5,2.5,0,0,1,60,35Zm-2.5-13.91A2.49,2.49,0,1,1,55,23.56,2.49,2.49,0,0,1,57.51,21.07ZM57,49a2.5,2.5,0,1,1-2.47,2.81v0c0-.1,0-.2,0-.3a2.33,2.33,0,0,1,.06-.53h0A2.51,2.51,0,0,1,57,49Z"/>
        </g>
    </g>
</svg>
