<svg xmlns="http://www.w3.org/2000/svg" width="100" height="100" viewBox="0 0 75 75">
    <defs>
        <style>
            .cls-2{fill:#cc2264}
        </style>
    </defs>
    <title>
        Amazon-Simple-Queue-Service-SQS_light-bg
    </title>
    <g id="Working">
        <rect id="Pink_Light_BG" data-name="Pink Light BG" width="75" height="75" style="fill:transparent"/>
        <g id="Product_Icon" data-name="Product Icon">
            <path class="cls-2" d="M21.69,22a22.18,22.18,0,0,1,36.6,8.36l1.89-.66a24.18,24.18,0,0,0-45.65,0l1.89.66A21.84,21.84,0,0,1,21.69,22Z"/>
            <path class="cls-2" d="M53,53a22.19,22.19,0,0,1-31.36,0,22,22,0,0,1-5.27-8.42l-1.89.66a24.18,24.18,0,0,0,39.93,9.17,23.89,23.89,0,0,0,5.78-9.25l-1.89-.64A22,22,0,0,1,53,53Z"/>
            <path class="cls-2" d="M20.15,37.46a5.84,5.84,0,1,0-1.71,4.12A5.78,5.78,0,0,0,20.15,37.46ZM17,40.17a3.93,3.93,0,0,1-5.41,0,3.83,3.83,0,0,1,2.7-6.53A3.86,3.86,0,0,1,17,34.76a3.83,3.83,0,0,1,0,5.41Z"/>
            <path class="cls-2" d="M64.8,33.41a5.82,5.82,0,1,0,0,8.23h0A5.82,5.82,0,0,0,64.8,33.41Zm-1.42,6.81a3.82,3.82,0,0,1-5.4,0,3.81,3.81,0,0,1,0-5.4,3.82,3.82,0,1,1,5.4,5.4Z"/>
            <path class="cls-2" d="M29.18,47.18c4.1-4.1,12.45-4.1,16.55,0a1,1,0,0,0,.7.29,1,1,0,0,0,1-1,1,1,0,0,0-.29-.71,11.66,11.66,0,0,1-3-8.27,11.67,11.67,0,0,1,3-8.27,1,1,0,0,0,0-1.41,1,1,0,0,0-1.41,0c-4.1,4.09-12.45,4.09-16.55,0a1,1,0,0,0-1.41,0,1,1,0,0,0,0,1.41,11.67,11.67,0,0,1,3.05,8.27,11.66,11.66,0,0,1-3.05,8.27,1,1,0,0,0-.29.71,1,1,0,0,0,.29.71A1,1,0,0,0,29.18,47.18Zm2.59-15.36a15.6,15.6,0,0,0,11.37,0,15.86,15.86,0,0,0,0,11.35,15.6,15.6,0,0,0-11.37,0,15.86,15.86,0,0,0,0-11.35Z"/>
            <path class="cls-2" d="M49.63,41.59,53,38.18a1,1,0,0,0,0-1.41l-3.39-3.39-1.42,1.41,1.71,1.7H45.38v2H49.9l-1.69,1.69Z"/>
            <path class="cls-2" d="M25.46,41.61l3.41-3.41a1,1,0,0,0,0-1.41l-3.41-3.41-1.41,1.41,1.7,1.7H21.38v2h4.37l-1.7,1.71Z"/>
        </g>
    </g>
</svg>
