<svg id="Layer_1" data-name="Layer 1" xmlns="http://www.w3.org/2000/svg" width="100" height="100" viewBox="0 0 75 75">
    <title>
        Amazon-EC2_T2-Instance_light-bg
    </title>
    <g transform="translate(4, 5) scale(1.25)">
        <text transform="translate(2, 16)" font-size="14" fill="#d86613" font-family="Amazon Ember, Helvetica, Arial, sans-serif" font-weight="bold">
            <tspan x="1em" dy="1em">G5</tspan>
        </text>
        <path d="M44.31,44.31H5.69V5.69H44.31Zm-36.62-2H42.31V7.69H7.69Z" style="fill:#d86613"/>
        <rect x="11.21" y="1" width="2" height="5.69" style="fill:#d86613"/>
        <rect x="17.48" y="1" width="2" height="5.69" style="fill:#d86613"/>
        <rect x="23.76" y="1" width="2" height="5.69" style="fill:#d86613"/>
        <rect x="30.04" y="1" width="2" height="5.69" style="fill:#d86613"/>
        <rect x="36.32" y="1" width="2" height="5.69" style="fill:#d86613"/>
        <rect x="11.21" y="43.31" width="2" height="5.69" style="fill:#d86613"/>
        <rect x="17.48" y="43.31" width="2" height="5.69" style="fill:#d86613"/>
        <rect x="23.76" y="43.31" width="2" height="5.69" style="fill:#d86613"/>
        <rect x="30.04" y="43.31" width="2" height="5.69" style="fill:#d86613"/>
        <rect x="36.32" y="43.31" width="2" height="5.69" style="fill:#d86613"/>
        <rect x="43.31" y="11.45" width="5.69" height="2" style="fill:#d86613"/>
        <rect x="43.31" y="17.72" width="5.69" height="2" style="fill:#d86613"/>
        <rect x="43.31" y="24" width="5.69" height="2" style="fill:#d86613"/>
        <rect x="43.31" y="30.28" width="5.69" height="2" style="fill:#d86613"/>
        <rect x="43.31" y="36.55" width="5.69" height="2" style="fill:#d86613"/>
        <rect x="1" y="11.45" width="5.69" height="2" style="fill:#d86613"/>
        <rect x="1" y="17.72" width="5.69" height="2" style="fill:#d86613"/>
        <rect x="1" y="24" width="5.69" height="2" style="fill:#d86613"/>
        <rect x="1" y="30.28" width="5.69" height="2" style="fill:#d86613"/>
        <rect x="1" y="36.55" width="5.69" height="2" style="fill:#d86613"/>
    </g>
     <style type="text/css">
        .st4{fill:#f90}
    </style>
    <g id="grid_x5F_locked"/>
    <g id="icon">
        <g transform="translate(60,0)">
            <path class="st4" d="M15.9,14.6l-7-14c-0.3-0.7-1.5-0.7-1.8,0l-7,14c-0.2,0.3-0.1,0.7,0,1C0.3,15.8,0.7,16,1,16h14
			c0.3,0,0.7-0.2,0.9-0.5C16,15.2,16,14.9,15.9,14.6z M2.6,14L8,3.2L13.4,14H2.6z"/>
            <polygon class="st4" points="7,11 7,13 9,13 9,11 		"/>
            <rect x="7" y="6" class="st4" width="2" height="4"/>
        </g>
    </g>
</svg>
