<svg id="Layer_1" data-name="Layer 1" xmlns="http://www.w3.org/2000/svg" width="75" height="75" viewBox="0 0 75 75">
    <title>
        Amazon-Elastic-Container-Service_Task_light-bg
    </title>
    <g id="Art" transform="scale(1.5)">
        <path
            d="M41.88,48.5H8.12a1,1,0,0,1-1-1V2.5a1,1,0,0,1,1-1H41.88a1,1,0,0,1,1,1v45A1,1,0,0,1,41.88,48.5Zm-32.76-2H40.88V3.5H9.12Z"
            style="fill:#d86613" />
        <path
            d="M18.42,14.76H12.8a1,1,0,0,1-1-1V8.13a1,1,0,0,1,1-1h5.62a1,1,0,0,1,1,1v5.63A1,1,0,0,1,18.42,14.76Zm-4.62-2h3.62V9.13H13.8Z"
            style="fill:#d86613" />
        <path
            d="M18.42,27.88H12.8a1,1,0,0,1-1-1V21.25a1,1,0,0,1,1-1h5.62a1,1,0,0,1,1,1v5.63A1,1,0,0,1,18.42,27.88Zm-4.62-2h3.62V22.25H13.8Z"
            style="fill:#d86613" />
        <path
            d="M18.42,41H12.8a1,1,0,0,1-1-1V34.38a1,1,0,0,1,1-1h5.62a1,1,0,0,1,1,1V40A1,1,0,0,1,18.42,41ZM13.8,39h3.62V35.38H13.8Z"
            style="fill:#d86613" />
        <rect x="21.25" y="9.94" width="16.88" height="2" style="fill:#d86613" />
        <rect x="21.25" y="23.06" width="16.88" height="2" style="fill:#d86613" />
        <rect x="21.25" y="36.19" width="16.88" height="2" style="fill:#d86613" />
    </g>
    <style type="text/css">
        .st4 {
            fill: #f90
        }
    </style>
    <g id="grid_x5F_locked" />
    <g id="icon">
        <g transform="translate(60,2)">
            <path class="st4" d="M15.9,14.6l-7-14c-0.3-0.7-1.5-0.7-1.8,0l-7,14c-0.2,0.3-0.1,0.7,0,1C0.3,15.8,0.7,16,1,16h14
			c0.3,0,0.7-0.2,0.9-0.5C16,15.2,16,14.9,15.9,14.6z M2.6,14L8,3.2L13.4,14H2.6z" />
            <polygon class="st4" points="7,11 7,13 9,13 9,11 		" />
            <rect x="7" y="6" class="st4" width="2" height="4" />
        </g>
    </g>
</svg>