<svg xmlns="http://www.w3.org/2000/svg" xmlns:xlink="http://www.w3.org/1999/xlink" width="75" height="75" viewBox="0 0 75 75"><defs><linearGradient id="Orange_Gradient" x1="-20.83" y1="131.69" x2="-20.83" y2="-18.31" gradientTransform="translate(92.31 12.14) rotate(45)" gradientUnits="userSpaceOnUse"><stop offset="0" stop-color="#c8511b"/><stop offset="1" stop-color="#f90"/></linearGradient></defs><title>Application-Auto-Scaling</title><g id="Example"><rect id="Green_Gradient" data-name="Green Gradient" width="75" height="75" style="fill:url(#Orange_Gradient)"/><path d="M36.5,16v9.45h2V16l4.66,4.65,1.41-1.41-6.36-6.37a1,1,0,0,0-1.41,0h0l-6.36,6.37,1.41,1.41Zm2,43V49.44h-2V59l-4.66-4.66-1.41,1.41,6.36,6.36a1,1,0,0,0,1.41,0h0l6.36-6.36-1.41-1.41ZM18.77,30.43l-1.41,1.42L22,36.44H12.5v2h9.59l-4.73,4.72,1.41,1.41,6.37-6.36a1,1,0,0,0,0-1.41Zm43.73,6H53.05l4.59-4.59-1.42-1.42L49.86,36.8a1,1,0,0,0,0,1.41l6.36,6.36,1.42-1.41-4.73-4.72H62.5ZM37.5,46.8a3.57,3.57,0,0,1-.8-.09,3.38,3.38,0,0,1-2.5-2.45,3.56,3.56,0,0,1,0-1.62H31.28a1,1,0,0,1-1-1V30.51a2.32,2.32,0,0,1,2.31-2.31H43.72a1,1,0,0,1,1,1v4.23a1,1,0,0,1-1.72.69,1.46,1.46,0,0,0-2.14.09,1.42,1.42,0,0,0-.26,1.23,1.39,1.39,0,0,0,1,1A1.44,1.44,0,0,0,43,36.07a1,1,0,0,1,1.09-.24,1,1,0,0,1,.63.93v4.88a1,1,0,0,1-1,1H40.84a3.65,3.65,0,0,1,.08.74,3.38,3.38,0,0,1-1.3,2.68A3.42,3.42,0,0,1,37.5,46.8Zm-5.22-6.16h3.56a1,1,0,0,1,.92.63,1,1,0,0,1-.23,1.09,1.42,1.42,0,0,0-.4,1.41,1.4,1.4,0,0,0,1,1,1.43,1.43,0,0,0,1.77-1.38,1.4,1.4,0,0,0-.45-1,1,1,0,0,1-.23-1.09,1,1,0,0,1,.92-.63h3.56V38.43a3.6,3.6,0,0,1-1.63,0,3.4,3.4,0,0,1-2.44-2.5,3.42,3.42,0,0,1,4.07-4.14V30.2H32.59a.31.31,0,0,0-.31.31Z" style="fill:#fff"/></g></svg>