<svg xmlns="http://www.w3.org/2000/svg" width="100" height="100" viewBox="0 0 75 75">
    <title>
        Amazon-Neptune_light-bg
    </title>
    <g id="Reference">
        <rect id="Blue_Light_BG" data-name="Blue Light BG" width="75" height="75" style="fill:transparent"/>
        <g id="Product_Icon" data-name="Product Icon">
            <path d="M44.47,32.42a4.51,4.51,0,0,1,2,1.88V19.72c0-4.69-8.76-7.22-17-7.22s-17,2.53-17,7.22V55.28c0,4.69,8.76,7.22,17,7.22s17-2.53,17-7.22V50.5h-2v4.78c0,2.47-6.16,5.22-15,5.22s-15-2.75-15-5.22V47.86c3,2.44,9.17,3.73,15,3.73a39.08,39.08,0,0,0,5.09-.33,5.24,5.24,0,0,1-.9-1.89,39.6,39.6,0,0,1-4.19.22c-8.81,0-15-2.75-15-5.22H14.5V35.64c3,2.44,9.17,3.73,15,3.73a37.71,37.71,0,0,0,8.91-1,4.49,4.49,0,0,1-.39-1.84v-.11a35,35,0,0,1-8.52,1c-8.81,0-15-2.75-15-5.22H14.5v-8.9c3.07,2.42,9.17,3.69,15,3.69s11.93-1.27,15-3.69v8.9A1.24,1.24,0,0,1,44.47,32.42Zm-15-7.48c-8.84,0-15-2.75-15-5.22s6.16-5.22,15-5.22,15,2.75,15,5.22S38.34,24.94,29.5,24.94ZM60,50.5A2.5,2.5,0,0,0,57.5,53a2.33,2.33,0,0,0,.06.53L54.25,55.6a3.88,3.88,0,0,0-1.92-1l-.2-4.45a5.16,5.16,0,0,0,2.22-8.85L57.47,36a3.22,3.22,0,0,0,1,.16,3.5,3.5,0,1,0-3.5-3.5,3.43,3.43,0,0,0,.81,2.23l-3.18,5.35A5,5,0,0,0,50.9,40a5,5,0,0,0-2.8.84l-3.28-3.36A2.46,2.46,0,0,0,45,36.5,2.5,2.5,0,1,0,42.5,39a2.55,2.55,0,0,0,.88-.16l3.28,3.35a5,5,0,0,0-.93,2.94v0L41.86,46a3.49,3.49,0,1,0,.64,2,.34.34,0,0,0,0-.1l3.65-.76a5.15,5.15,0,0,0,4,3.09l.2,4.44A4,4,0,1,0,55.5,58.5a3.68,3.68,0,0,0-.19-1.2l3.43-2.14A2.45,2.45,0,0,0,60,55.5a2.5,2.5,0,0,0,0-5ZM58.5,31.19a1.5,1.5,0,1,1-1.5,1.5A1.5,1.5,0,0,1,58.5,31.19ZM42.5,37a.5.5,0,0,1,0-1,.5.5,0,0,1,0,1ZM39,49.5A1.5,1.5,0,1,1,40.5,48,1.5,1.5,0,0,1,39,49.5Zm8.73-4.37A3.17,3.17,0,1,1,50.9,48.3,3.17,3.17,0,0,1,47.73,45.13ZM51.5,60.5a2,2,0,1,1,2-2A2,2,0,0,1,51.5,60.5Zm8.5-7a.5.5,0,0,1,0-1,.5.5,0,0,1,0,1Z" style="fill:#3b48cc"/>
        </g>
    </g>
    <style type="text/css">
        .st4{fill:#1d8102}
    </style>
    <g id="grid_x5F_locked"/>
    <g id="icon">
        <g transform="translate(50,2)">
            <path class="st4" d="M8,0C3.6,0,0,3.6,0,8s3.6,8,8,8s8-3.6,8-8S12.4,0,8,0z M8,14c-3.3,0-6-2.7-6-6s2.7-6,6-6s6,2.7,6,6
			S11.3,14,8,14z"/>
            <polygon class="st4" points="7,8.6 5,6.6 3.6,8 7,11.4 11.9,6.5 10.5,5.1 		"/>
        </g>
    </g>
</svg>
