<svg xmlns="http://www.w3.org/2000/svg" width="75" height="75" viewBox="0 0 75 75">
    <title>
        Amazon-RDS_SQL-Server_instance_light-bg
    </title>
    <g id="Working">
        <path d="M4.86,10.6A3,3,0,0,1,3.8,9.74a1.87,1.87,0,0,1-.32-1.12,2,2,0,0,1,.28-1.07,1.84,1.84,0,0,1,.76-.7,2.49,2.49,0,0,1,1.12-.24A3.74,3.74,0,0,1,7.21,7V8a4.21,4.21,0,0,0-1.43-.3,1,1,0,0,0-.66.21.73.73,0,0,0-.24.58A.85.85,0,0,0,5,9a1.92,1.92,0,0,0,.6.44l.54.29a3.76,3.76,0,0,1,.82.56,1.79,1.79,0,0,1,.45.62,2.09,2.09,0,0,1,.15.83A1.93,1.93,0,0,1,7,13.28a2.43,2.43,0,0,1-1.69.56,3.73,3.73,0,0,1-.94-.12,2.78,2.78,0,0,1-.79-.29v-1a5.19,5.19,0,0,0,.83.23,4.45,4.45,0,0,0,.8.1,1.06,1.06,0,0,0,.73-.23.84.84,0,0,0,.25-.65A.78.78,0,0,0,6,11.32a1.93,1.93,0,0,0-.58-.43Z" style="fill:#3b48cc"/>
        <path d="M8.44,10.22a4.26,4.26,0,0,1,.73-2.67,2.43,2.43,0,0,1,2.05-.94,2.44,2.44,0,0,1,2,.94A4.33,4.33,0,0,1,14,10.22a4.87,4.87,0,0,1-.46,2.22,2.45,2.45,0,0,1-1.31,1.23,2.31,2.31,0,0,0,.69.38,3.56,3.56,0,0,0,.93.21v1.13a4.43,4.43,0,0,1-1.52-.52,4.5,4.5,0,0,1-1.25-1,2.41,2.41,0,0,1-1.95-1A4.36,4.36,0,0,1,8.44,10.22Zm1.44,0a4,4,0,0,0,.34,1.86,1.11,1.11,0,0,0,2,0,4.11,4.11,0,0,0,.34-1.86,4.06,4.06,0,0,0-.33-1.87,1.14,1.14,0,0,0-2,0A3.93,3.93,0,0,0,9.88,10.22Z" style="fill:#3b48cc"/>
        <path d="M15.18,13.68V6.76h1.4v5.82h2.36v1.1Z" style="fill:#3b48cc"/>
        <path d="M22.88,10.6a3.16,3.16,0,0,1-1.07-.86,1.94,1.94,0,0,1-.32-1.12,2,2,0,0,1,.29-1.07,1.84,1.84,0,0,1,.76-.7,2.45,2.45,0,0,1,1.11-.24A3.75,3.75,0,0,1,25.23,7V8a4.21,4.21,0,0,0-1.43-.3,1,1,0,0,0-.66.21.73.73,0,0,0-.24.58.85.85,0,0,0,.15.51,1.92,1.92,0,0,0,.6.44l.54.29a3.76,3.76,0,0,1,.82.56,1.79,1.79,0,0,1,.45.62,2.09,2.09,0,0,1,.14.83A1.92,1.92,0,0,1,25,13.28a2.43,2.43,0,0,1-1.69.56,3.87,3.87,0,0,1-.95-.12,3,3,0,0,1-.79-.29v-1a5.64,5.64,0,0,0,.84.23,4.45,4.45,0,0,0,.8.1,1.06,1.06,0,0,0,.73-.23.84.84,0,0,0,.25-.65.78.78,0,0,0-.18-.52,1.87,1.87,0,0,0-.59-.43Z" style="fill:#3b48cc"/>
        <path d="M27.56,11.48a1.63,1.63,0,0,0,.3,1,1.16,1.16,0,0,0,.87.3,2.67,2.67,0,0,0,.57-.08,5.67,5.67,0,0,0,.67-.2v.91a2.43,2.43,0,0,1-.69.29,3.88,3.88,0,0,1-.82.09c-1.43,0-2.15-.89-2.15-2.67a3.24,3.24,0,0,1,.53-2,1.8,1.8,0,0,1,1.52-.69c1.13,0,1.7.69,1.7,2.08a4.69,4.69,0,0,1-.1,1Zm.75-2.1c-.47,0-.73.41-.75,1.24H28.9v-.23a1.66,1.66,0,0,0-.14-.78A.48.48,0,0,0,28.31,9.38Z" style="fill:#3b48cc"/>
        <path d="M31,13.68V8.58h1.13l.15.66a2.07,2.07,0,0,1,.59-.54,1.19,1.19,0,0,1,.62-.17,1.84,1.84,0,0,1,.33,0V9.77a2.55,2.55,0,0,0-.53,0,1.82,1.82,0,0,0-.91.24v3.72Z" style="fill:#3b48cc"/>
        <path d="M35.81,13.68l-1.54-5.1h1.46l.74,3.64.76-3.64h1.41l-1.54,5.1Z" style="fill:#3b48cc"/>
        <path d="M40.27,11.48a1.76,1.76,0,0,0,.3,1,1.18,1.18,0,0,0,.88.3,2.67,2.67,0,0,0,.57-.08,5,5,0,0,0,.66-.2v.91a2.21,2.21,0,0,1-.69.29,3.75,3.75,0,0,1-.82.09c-1.42,0-2.14-.89-2.14-2.67a3.24,3.24,0,0,1,.53-2,1.78,1.78,0,0,1,1.51-.69c1.14,0,1.7.69,1.7,2.08a4.07,4.07,0,0,1-.1,1ZM41,9.38c-.47,0-.73.41-.76,1.24h1.34v-.23a1.69,1.69,0,0,0-.13-.78A.49.49,0,0,0,41,9.38Z" style="fill:#3b48cc"/>
        <path d="M43.72,13.68V8.58h1.11l.15.66a2.23,2.23,0,0,1,.6-.54,1.17,1.17,0,0,1,.63-.17,1.63,1.63,0,0,1,.31,0V9.77a2.44,2.44,0,0,0-.53,0,1.85,1.85,0,0,0-.91.24v3.72Z" style="fill:#3b48cc"/>
        <path d="M40,20.28c-5,0-10,1.56-10,4.55V45.17c0,3,5,4.55,10,4.55s10-1.56,10-4.55V24.83C50,21.84,45,20.28,40,20.28Zm.13,2c5.19,0,8,1.68,8,2.55s-2.83,2.56-8,2.56-8-1.69-8-2.56S34.93,22.28,40.13,22.28Zm0,25.44c-5.2,0-8-1.68-8-2.55V41.75a16.66,16.66,0,0,0,8,1.74,16.65,16.65,0,0,0,8-1.74v3.42C48.15,46,45.32,47.72,40.13,47.72Zm0-6.23c-5.2,0-8-1.69-8-2.56V34.77a16.78,16.78,0,0,0,8,1.73,16.77,16.77,0,0,0,8-1.73v4.16C48.15,39.8,45.32,41.49,40.13,41.49Zm0-7c-5.2,0-8-1.69-8-2.56V27.65a16.66,16.66,0,0,0,8,1.74,16.65,16.65,0,0,0,8-1.74v4.29C48.15,32.81,45.32,34.5,40.13,34.5Z" style="fill:#3b48cc"/>
        <path d="M43.55,0H6.45A6.45,6.45,0,0,0,0,6.45v37.1A6.45,6.45,0,0,0,6.45,50H30V48H6.45A4.46,4.46,0,0,1,2,43.55V6.45A4.46,4.46,0,0,1,6.45,2h37.1A4.46,4.46,0,0,1,48,6.45V21h2V6.45A6.45,6.45,0,0,0,43.55,0Z" style="fill:#3b48cc"/>
    </g>
</svg>
