<svg xmlns="http://www.w3.org/2000/svg" width="50" height="50" viewBox="0 0 50 50"><title>Amazon-RDS_Oracle_instance_light-bg</title><g id="Working"><path d="M5.75,12.24A6.65,6.65,0,0,1,6.88,8.11a3.76,3.76,0,0,1,3.18-1.46,3.79,3.79,0,0,1,3.18,1.46,6.65,6.65,0,0,1,1.13,4.13,6.68,6.68,0,0,1-1.13,4.14,3.8,3.8,0,0,1-3.18,1.47,3.77,3.77,0,0,1-3.18-1.47A6.68,6.68,0,0,1,5.75,12.24Zm2.23,0a6.23,6.23,0,0,0,.53,2.88,1.72,1.72,0,0,0,3.1,0,6.23,6.23,0,0,0,.53-2.88,6.33,6.33,0,0,0-.52-2.9,1.66,1.66,0,0,0-1.56-.94,1.67,1.67,0,0,0-1.57.94A6.35,6.35,0,0,0,8,12.24Z" style="fill:#3b48cc"/><path d="M16.06,17.62V9.7h1.73l.23,1A3.53,3.53,0,0,1,19,9.88a2,2,0,0,1,1-.26,2.72,2.72,0,0,1,.49.05v1.87a4.78,4.78,0,0,0-.82-.07,2.8,2.8,0,0,0-1.41.37v5.78Z" style="fill:#3b48cc"/><path d="M25.11,17.62l-.19-.71a1.88,1.88,0,0,1-.76.65,2,2,0,0,1-1,.26,1.91,1.91,0,0,1-1.52-.63,2.47,2.47,0,0,1-.56-1.73A2.34,2.34,0,0,1,23.6,13a5.22,5.22,0,0,1,1.2.19v-.71a2,2,0,0,0-.21-1.1.91.91,0,0,0-.78-.28,6.84,6.84,0,0,0-2.28.49V10.13a3.72,3.72,0,0,1,1.18-.46,6.11,6.11,0,0,1,1.48-.17,2.68,2.68,0,0,1,2,.61,2.72,2.72,0,0,1,.6,2v5.55Zm-1.33-1.29a1.48,1.48,0,0,0,1-.49V14.32a2.78,2.78,0,0,0-.81-.11.83.83,0,0,0-.69.29,1.25,1.25,0,0,0-.24.83,1.22,1.22,0,0,0,.2.73A.61.61,0,0,0,23.78,16.33Z" style="fill:#3b48cc"/><path d="M33.23,17.26a2.49,2.49,0,0,1-.82.37,4.42,4.42,0,0,1-1,.13,2.83,2.83,0,0,1-2.37-1,4.86,4.86,0,0,1-.81-3,4.76,4.76,0,0,1,.86-3,2.92,2.92,0,0,1,2.41-1.08A3.49,3.49,0,0,1,33.2,10v1.42a3.79,3.79,0,0,0-1.32-.27,1.31,1.31,0,0,0-1.2.57,3.48,3.48,0,0,0-.36,1.82v.21a3.49,3.49,0,0,0,.35,1.82,1.29,1.29,0,0,0,1.16.56,3.84,3.84,0,0,0,1.4-.3Z" style="fill:#3b48cc"/><path d="M37.66,17.48a3.26,3.26,0,0,1-1.24.23A1.72,1.72,0,0,1,35,17.19a2.31,2.31,0,0,1-.46-1.59V6.15H36.7v9.22a1.26,1.26,0,0,0,.1.57.45.45,0,0,0,.41.16,4,4,0,0,0,.45-.05Z" style="fill:#3b48cc"/><path d="M40.38,14.19a2.49,2.49,0,0,0,.46,1.58,1.75,1.75,0,0,0,1.36.47,4.05,4.05,0,0,0,.88-.12,7.56,7.56,0,0,0,1-.3v1.41a3.52,3.52,0,0,1-1.07.44,5.51,5.51,0,0,1-1.27.15q-3.32,0-3.32-4.15a5,5,0,0,1,.82-3.1A2.75,2.75,0,0,1,41.62,9.5c1.75,0,2.63,1.07,2.63,3.22a6.65,6.65,0,0,1-.15,1.47Zm1.17-3.25q-1.11,0-1.17,1.92h2.07V12.5a2.57,2.57,0,0,0-.21-1.2A.76.76,0,0,0,41.55,10.94Z" style="fill:#3b48cc"/><path d="M40,20.28c-5,0-10,1.56-10,4.55V45.17c0,3,5,4.55,10,4.55s10-1.56,10-4.55V24.83C50,21.84,45,20.28,40,20.28Zm.13,2c5.19,0,8,1.68,8,2.55s-2.83,2.56-8,2.56-8-1.69-8-2.56S34.93,22.28,40.13,22.28Zm0,25.44c-5.2,0-8-1.68-8-2.55V41.75a16.66,16.66,0,0,0,8,1.74,16.65,16.65,0,0,0,8-1.74v3.42C48.15,46,45.32,47.72,40.13,47.72Zm0-6.23c-5.2,0-8-1.69-8-2.56V34.77a16.78,16.78,0,0,0,8,1.73,16.77,16.77,0,0,0,8-1.73v4.16C48.15,39.8,45.32,41.49,40.13,41.49Zm0-7c-5.2,0-8-1.69-8-2.56V27.65a16.66,16.66,0,0,0,8,1.74,16.65,16.65,0,0,0,8-1.74v4.29C48.15,32.81,45.32,34.5,40.13,34.5Z" style="fill:#3b48cc"/><path d="M43.55,0H6.45A6.45,6.45,0,0,0,0,6.45v37.1A6.45,6.45,0,0,0,6.45,50H30V48H6.45A4.46,4.46,0,0,1,2,43.55V6.45A4.46,4.46,0,0,1,6.45,2h37.1A4.46,4.46,0,0,1,48,6.45V21h2V6.45A6.45,6.45,0,0,0,43.55,0Z" style="fill:#3b48cc"/></g></svg>