<svg xmlns="http://www.w3.org/2000/svg" width="100" height="100" viewBox="0 0 75 75">
    <defs>
        <style>
            .cls-1 {
                fill: #fff;
            }

            .cls-2 {
                fill: #3b48cc;
            }
        </style>
    </defs>
    <title>Amazon-Redshift_light-bg-parameter</title>
    <g id="Reference">
        <rect id="Blue_Light_BG" data-name="Blue Light BG" class="cls-1"/>
        <g id="Product_Icon" data-name="Product Icon"  transform="translate(7,-6)">
            <path class="cls-2"
                d="M37.5,62.5c-8.24,0-17-2.39-17-6.82V19.32h2V55.68c0,2,5.71,4.82,15,4.82s15-2.8,15-4.82V19.32h2V55.68C54.5,60.11,45.74,62.5,37.5,62.5Z" />
            <path class="cls-2"
                d="M37.5,62.5c-8.24,0-17-2.39-17-6.82V19.32h2V55.68c0,2,5.71,4.82,15,4.82s15-2.8,15-4.82V19.32h2V55.68C54.5,60.11,45.74,62.5,37.5,62.5Z" />
            <path class="cls-2"
                d="M37.5,26.13c-8.24,0-17-2.39-17-6.81s8.76-6.82,17-6.82,17,2.39,17,6.82S45.74,26.13,37.5,26.13Zm0-11.63c-9.29,0-15,2.8-15,4.82s5.71,4.81,15,4.81,15-2.8,15-4.81S46.79,14.5,37.5,14.5Z" />
            <rect class="cls-2" x="36.48" y="38.02" width="2" height="6.22"
                transform="translate(-10.94 68.55) rotate(-77.19)" />
            <rect class="cls-2" x="42.05" y="35.78" width="6.3" height="2"
                transform="translate(-5.61 65.32) rotate(-68.46)" />
            <rect class="cls-2" x="27.4" y="43.59" width="5.2" height="2"
                transform="translate(-22.78 54.68) rotate(-66.89)" />
            <path class="cls-2"
                d="M28,52.77a3.5,3.5,0,1,1,3.5-3.5A3.5,3.5,0,0,1,28,52.77Zm0-5a1.5,1.5,0,1,0,1.5,1.5A1.5,1.5,0,0,0,28,47.77Z" />
            <path class="cls-2"
                d="M32,43.39a3.5,3.5,0,1,1,3.5-3.5A3.5,3.5,0,0,1,32,43.39Zm0-5a1.5,1.5,0,1,0,1.5,1.5h0A1.5,1.5,0,0,0,32,38.39Z" />
            <path class="cls-2"
                d="M43,45.5A3.5,3.5,0,1,1,46.5,42,3.5,3.5,0,0,1,43,45.5Zm0-5A1.5,1.5,0,1,0,44.5,42,1.5,1.5,0,0,0,43,40.5Z" />
            <path class="cls-2"
                d="M47,35a3.5,3.5,0,1,1,3.5-3.5v.05A3.51,3.51,0,0,1,47,35Zm0-5a1.5,1.5,0,1,0,1.5,1.55A1.5,1.5,0,0,0,47,30Z" />
        </g>
        <g id="Product_Icon"  transform="translate(10,48) scale(0.5)">
            <path d="M35.5886,36.7588 C35.5886,37.1338 35.8946,37.4408 36.2696,37.4408 L36.2706,37.4408 C36.4516,37.4408 36.6226,37.3698 36.7506,37.2418 C36.8796,37.1128 36.9506,36.9418 36.9506,36.7588 L36.9506,36.7568 C36.9506,36.5758 36.8806,36.4048 36.7526,36.2778 C36.6236,36.1488 36.4526,36.0768 36.2706,36.0768 L36.2696,36.0768 C36.0876,36.0768 35.9166,36.1478 35.7886,36.2768 C35.6596,36.4048 35.5886,36.5758 35.5886,36.7588 L35.5886,36.7588 Z M33.5886,36.7578 C33.5896,36.0408 33.8686,35.3678 34.3746,34.8618 C34.8806,34.3558 35.5536,34.0768 36.2686,34.0768 L36.2716,34.0768 C36.9876,34.0768 37.6616,34.3568 38.1686,34.8638 C38.6746,35.3718 38.9526,36.0448 38.9506107,36.7608 C38.9496,37.4778 38.6706,38.1508 38.1646,38.6558 C37.9046,38.9158 37.6006,39.1128 37.2696,39.2458 L37.2706,42.0428 L35.2706,42.0428 L35.2696,39.2428 C34.2856,38.8458 33.5886,37.8828 33.5886,36.7578 L33.5886,36.7578 Z M43.1156,32.7748 L29.4286,32.7688 L29.4246,43.8378 L43.1096,43.8448 L43.1156,32.7748 Z M32.9016,30.7708 L39.614618,30.7728 L39.614618,28.3028 C39.6206,26.2818 38.1276,24.6358 36.2866,24.6298 L36.2756,24.6298 C35.3936,24.6298 34.5606,24.9978 33.9276,25.6658 C33.2766,26.3548 32.9166,27.2758 32.9136,28.2598 L32.9016,30.7708 Z M45.1156,31.7748 L45.1096,44.8448 C45.1096,45.3978 44.6616,45.8448 44.1096,45.8448 L28.4246,45.8378 C27.8716,45.8378 27.4246,45.3898 27.4246,44.8378 L27.4286,31.7688 C27.4286,31.5028 27.5336,31.2488 27.7216,31.0618 C27.9086,30.8738 28.1636,30.7688 28.4286,30.7688 L30.9016,30.7698 L30.9136,28.2518 C30.9186,26.7588 31.4726,25.3518 32.4746,24.2918 C33.4886,23.2198 34.8386,22.6298 36.2756,22.6298 L36.2926,22.6298 C39.2366,22.6398 41.6246,25.1858 41.6146,28.3058 L41.6146,30.7738 L44.1156,30.7748 C44.3816,30.7748 44.6356,30.8798 44.8226,31.0678 C45.0106,31.2548 45.1156,31.5098 45.1156,31.7748 L45.1156,31.7748 Z M14.4756,31.0248 L21.4496,31.0248 L21.4496,29.0248 L14.4756,29.0248 L14.4756,31.0248 Z M14.4756,27.5378 L21.4496,27.5378 L21.4496,25.5378 L14.4756,25.5378 L14.4756,27.5378 Z M14.4756,24.0508 L21.4496,24.0508 L21.4496,22.0508 L14.4756,22.0508 L14.4756,24.0508 Z M12.9056,33.3838 L23.1096,33.3838 L23.1096,19.6928 L12.9056,19.6928 L12.9056,33.3838 Z M25.1096,18.6928 L25.1096,34.3838 C25.1096,34.9368 24.6626,35.3838 24.1096,35.3838 L11.9056,35.3838 C11.3536,35.3838 10.9056,34.9368 10.9056,34.3838 L10.9056,18.6928 C10.9056,18.1398 11.3536,17.6928 11.9056,17.6928 L24.1096,17.6928 C24.6626,17.6928 25.1096,18.1398 25.1096,18.6928 L25.1096,18.6928 Z M5.9406,8.9748 L30.0166,8.9748 L26.4706,3.9998 L9.4856,3.9998 L5.9406,8.9748 Z M3.1106,10.4328 C2.9396,10.0998 2.9686,9.6988 3.1856,9.3948 L8.1556,2.4198 C8.3436,2.1558 8.6476,1.9998 8.9706,1.9998 L26.9856,1.9998 C27.3096,1.9998 27.6126,2.1558 27.8006,2.4198 L32.7716,9.3948 C32.9876,9.6988 33.0176,10.0998 32.8456,10.4328 C32.6746,10.7658 32.3306,10.9748 31.9566,10.9748 L3.9996,10.9748 C3.6256,10.9748 3.2816,10.7658 3.1106,10.4328 L3.1106,10.4328 Z M5.0496,39.4868 L24.9376,39.4868 L24.9376,41.4868 L4.0496,41.4868 C3.4966,41.4868 3.0496,41.0388 3.0496,40.4868 L3.0496,13.4618 C3.0496,12.9088 3.4966,12.4618 4.0496,12.4618 L31.9546,12.4618 C32.5076,12.4618 32.9546,12.9088 32.9546,13.4618 L32.9546,22.1788 L30.9546,22.1788 L30.9546,14.4618 L5.0496,14.4618 L5.0496,39.4868 Z" id="AWS-System-Manager_Parameter-Store_Resource-Icon_light-bg" fill="#3b48cc"></path>
        </g>
    </g>
</svg>