<svg xmlns="http://www.w3.org/2000/svg" width="100" height="100" viewBox="0 0 75 75">
    <title>
        Amazon-RDS_Amazon-Aurora_instance_light-bg
    </title>
    <g id="Working" transform="translate(5,15)">
        <path d="M43.55,0H6.45A6.45,6.45,0,0,0,0,6.45v37.1A6.45,6.45,0,0,0,6.45,50H30V48H6.45A4.46,4.46,0,0,1,2,43.55V6.45A4.46,4.46,0,0,1,6.45,2h37.1A4.46,4.46,0,0,1,48,6.45V21h2V6.45A6.45,6.45,0,0,0,43.55,0Z" style="fill:#3b48cc"/>
        <path d="M8.9,11.48,8.56,9.91H7l-.34,1.57H5.26L7.08,4.9H8.55l1.81,6.58ZM7.19,9H8.36l-.6-2.72Z" style="fill:#3b48cc"/>
        <path d="M15.75,11.48V8.28a1.31,1.31,0,0,0-.11-.6.37.37,0,0,0-.36-.19,1.22,1.22,0,0,0-.63.23.31.31,0,0,1,0,.1v3.66h-1.3V8.28a1.19,1.19,0,0,0-.11-.6.37.37,0,0,0-.36-.19,1.22,1.22,0,0,0-.62.23v3.76H11V6.62H12l.1.44a2.48,2.48,0,0,1,1.42-.56,1,1,0,0,1,.95.58A2.52,2.52,0,0,1,16,6.5a.94.94,0,0,1,.81.37,1.66,1.66,0,0,1,.29,1v3.56Z" style="fill:#3b48cc"/>
        <path d="M20.43,11.48,20.32,11a1.19,1.19,0,0,1-.47.41,1.34,1.34,0,0,1-.61.15,1.21,1.21,0,0,1-.93-.38A1.54,1.54,0,0,1,18,10.16a1.43,1.43,0,0,1,1.54-1.54,3.23,3.23,0,0,1,.73.11V8.3a1.18,1.18,0,0,0-.13-.67.53.53,0,0,0-.47-.18,4.06,4.06,0,0,0-1.4.31V6.89A2.4,2.4,0,0,1,19,6.61a4,4,0,0,1,.91-.11,1.64,1.64,0,0,1,1.2.38,1.69,1.69,0,0,1,.37,1.2v3.4Zm-.81-.79a.92.92,0,0,0,.62-.3V9.46a1.45,1.45,0,0,0-.49-.07.52.52,0,0,0-.42.18.73.73,0,0,0-.15.5.81.81,0,0,0,.12.46A.36.36,0,0,0,19.62,10.69Z" style="fill:#3b48cc"/>
        <path d="M22.21,11.48v-.92l2-2.94H22.29v-1h3.25v.93l-2,2.93h2v1Z" style="fill:#3b48cc"/>
        <path d="M28.13,11.6a1.75,1.75,0,0,1-1.46-.66,3,3,0,0,1-.51-1.88,3,3,0,0,1,.51-1.89,1.73,1.73,0,0,1,1.46-.67,1.7,1.7,0,0,1,1.44.67,3,3,0,0,1,.52,1.89,3,3,0,0,1-.52,1.88A1.71,1.71,0,0,1,28.13,11.6Zm0-1a.52.52,0,0,0,.5-.38,3.13,3.13,0,0,0,.16-1.18,3.19,3.19,0,0,0-.16-1.19.53.53,0,0,0-1,0,3.19,3.19,0,0,0-.16,1.19,3.13,3.13,0,0,0,.16,1.18A.53.53,0,0,0,28.13,10.62Z" style="fill:#3b48cc"/>
        <path d="M33.44,11.48V8.29a1.32,1.32,0,0,0-.11-.61.42.42,0,0,0-.39-.19,1.25,1.25,0,0,0-.65.23v3.76H31V6.62h1.06l.1.44a2.51,2.51,0,0,1,1.45-.56,1,1,0,0,1,.84.36,1.69,1.69,0,0,1,.29,1.06v3.56Z" style="fill:#3b48cc"/>
        <path d="M8.9,21l-.34-1.57H7L6.65,21H5.26L7.08,14.4H8.55L10.36,21ZM7.19,18.46H8.36l-.6-2.72Z" style="fill:#3b48cc"/>
        <path d="M13.54,21l-.1-.44a2.31,2.31,0,0,1-1.4.56.93.93,0,0,1-.81-.37A1.78,1.78,0,0,1,11,19.66V16.12h1.29v3.13a1.56,1.56,0,0,0,.11.67.37.37,0,0,0,.35.2,1.11,1.11,0,0,0,.6-.22V16.12H14.6V21Z" style="fill:#3b48cc"/>
        <path d="M15.72,21V16.12h1.06l.15.63a2.16,2.16,0,0,1,.56-.51,1.14,1.14,0,0,1,.59-.16l.31,0v1.15a2.32,2.32,0,0,0-.51-.05,1.66,1.66,0,0,0-.86.23V21Z" style="fill:#3b48cc"/>
        <path d="M20.72,21.1a1.71,1.71,0,0,1-1.44-.66,3,3,0,0,1-.52-1.88,3,3,0,0,1,.52-1.89,1.89,1.89,0,0,1,2.89,0,3,3,0,0,1,.52,1.89,3,3,0,0,1-.52,1.88A1.72,1.72,0,0,1,20.72,21.1Zm0-1a.53.53,0,0,0,.51-.38,3.13,3.13,0,0,0,.16-1.18,3.19,3.19,0,0,0-.16-1.19.53.53,0,0,0-1,0,3.19,3.19,0,0,0-.16,1.19,3.13,3.13,0,0,0,.16,1.18A.52.52,0,0,0,20.72,20.12Z" style="fill:#3b48cc"/>
        <path d="M23.6,21V16.12h1.06l.14.63a2.33,2.33,0,0,1,.56-.51,1.16,1.16,0,0,1,.59-.16,1.55,1.55,0,0,1,.31,0v1.15a2.29,2.29,0,0,0-.5-.05,1.69,1.69,0,0,0-.87.23V21Z" style="fill:#3b48cc"/>
        <path d="M29.13,21,29,20.54a1.26,1.26,0,0,1-.47.41,1.37,1.37,0,0,1-.61.15,1.18,1.18,0,0,1-.93-.38,1.54,1.54,0,0,1-.34-1.06,1.51,1.51,0,0,1,.41-1.13,1.57,1.57,0,0,1,1.13-.41,3.23,3.23,0,0,1,.73.11V17.8a1.18,1.18,0,0,0-.13-.67.54.54,0,0,0-.48-.18,4,4,0,0,0-1.39.31v-.87a2.21,2.21,0,0,1,.72-.28,4,4,0,0,1,.91-.11,1.6,1.6,0,0,1,1.19.38,1.64,1.64,0,0,1,.37,1.2V21Zm-.82-.79a.93.93,0,0,0,.63-.3V19a1.45,1.45,0,0,0-.49-.07.49.49,0,0,0-.42.18.73.73,0,0,0-.15.5A.81.81,0,0,0,28,20,.36.36,0,0,0,28.31,20.19Z" style="fill:#3b48cc"/>
        <path d="M40,20.28c-5,0-10,1.56-10,4.55V45.17c0,3,5,4.55,10,4.55s10-1.56,10-4.55V24.83C50,21.84,45,20.28,40,20.28Zm.13,2c5.19,0,8,1.68,8,2.55s-2.83,2.56-8,2.56-8-1.69-8-2.56S34.93,22.28,40.13,22.28Zm0,25.44c-5.2,0-8-1.68-8-2.55V41.75a16.66,16.66,0,0,0,8,1.74,16.65,16.65,0,0,0,8-1.74v3.42C48.15,46,45.32,47.72,40.13,47.72Zm0-6.23c-5.2,0-8-1.69-8-2.56V34.77a16.78,16.78,0,0,0,8,1.73,16.77,16.77,0,0,0,8-1.73v4.16C48.15,39.8,45.32,41.49,40.13,41.49Zm0-7c-5.2,0-8-1.69-8-2.56V27.65a16.66,16.66,0,0,0,8,1.74,16.65,16.65,0,0,0,8-1.74v4.29C48.15,32.81,45.32,34.5,40.13,34.5Z" style="fill:#3b48cc"/>
    </g>
     <style type="text/css">
        .st4{fill:#1d8102}
    </style>
    <g id="grid_x5F_locked"/>
    <g id="icon">
        <g transform="translate(55,2)">
            <path class="st4" d="M8,0C3.6,0,0,3.6,0,8s3.6,8,8,8s8-3.6,8-8S12.4,0,8,0z M8,14c-3.3,0-6-2.7-6-6s2.7-6,6-6s6,2.7,6,6
			S11.3,14,8,14z"/>
            <polygon class="st4" points="7,8.6 5,6.6 3.6,8 7,11.4 11.9,6.5 10.5,5.1 		"/>
        </g>
    </g>
</svg>
