<svg id="Product_Icon" data-name="Product Icon" xmlns="http://www.w3.org/2000/svg" xmlns:xlink="http://www.w3.org/1999/xlink" width="75" height="75" viewBox="0 0 75 75"><defs><linearGradient id="BlueGradient" x1="-15.53" y1="90.53" x2="90.53" y2="-15.53" gradientTransform="translate(0 0)" gradientUnits="userSpaceOnUse"><stop offset="0" stop-color="#2e27ad"/><stop offset="1" stop-color="#527fff"/></linearGradient></defs><title>Amazon-DynamoDB</title><rect id="Blue_Gradient" data-name="Blue Gradient" width="75" height="75" style="fill:url(#BlueGradient)"/><g id="Icon_Test" data-name="Icon Test"><path d="M50.25,40.48l-6.61,6.6a16.23,16.23,0,0,0,3.42-1.39,2.58,2.58,0,0,1,1.19,1.8c0,1.83-3.88,3.82-9.64,4.63a42.23,42.23,0,0,1-5.36.38h-1c-8.08-.19-14-2.74-14-5a2.58,2.58,0,0,1,1.19-1.8c3.14,1.75,8.23,2.79,13.81,2.79h.11l.56-2c-.22,0-.44,0-.67,0-5.5,0-10.6-1.09-13.31-2.81-1.08-.71-1.68-1.48-1.69-2.15V36.9c3.06,2.34,9.16,3.56,15,3.56.79,0,1.58,0,2.35-.07l.57-2c-1,.07-1.93.1-2.92.1-8.58,0-15-2.63-15-5a2.58,2.58,0,0,1,1.19-1.8c2.76,1.55,7,2.52,11.81,2.74l.05-2c-4.73-.23-9-1.25-11.36-2.76-1.07-.69-1.67-1.47-1.69-2.15V22.9c3.06,2.34,9.16,3.56,15,3.56h.22l1.06-2-1.28,0c-8.58,0-15-2.63-15-5s6.42-5,15-5a36,36,0,0,1,8.58,1h5.49c-3-1.83-8.18-3-14.07-3-8.24,0-17,2.44-17,7v8.05a4.06,4.06,0,0,0,1.51,2.95,4.07,4.07,0,0,0-1.51,3v8a4.06,4.06,0,0,0,1.51,3,4.07,4.07,0,0,0-1.51,3v8a1.25,1.25,0,0,0,0,.21c.27,4.39,8.87,6.75,17,6.75s16.73-2.36,17-6.77a.75.75,0,0,0,0-.21v-8a4,4,0,0,0-1.51-3,4.06,4.06,0,0,0,1.51-3Zm-2,15c0,2.36-6.42,5-15,5s-15-2.61-15-5v-4.6c3.06,2.32,9.16,3.54,15,3.54s11.94-1.22,15-3.54Z" style="fill:#fff"/><circle cx="21.25" cy="27.52" r="1.25" style="fill:#fff"/><circle cx="21.25" cy="41.52" r="1.25" style="fill:#fff"/><circle cx="21.25" cy="55.52" r="1.25" style="fill:#fff"/><path d="M35.75,51.48a1,1,0,0,1-.5-.14,1,1,0,0,1-.46-1.15l5.62-18.71H34.75A1,1,0,0,1,33.86,30l6-12a1,1,0,0,1,.89-.55h13a1,1,0,0,1,1,1.31l-2.56,7.69h5.61a1,1,0,0,1,.72,1.69l-22,23A1,1,0,0,1,35.75,51.48Zm.62-22h5.38a1,1,0,0,1,.8.4,1,1,0,0,1,.16.88l-4.81,16,17.51-18.3H50.75a1,1,0,0,1-1-1.32l2.56-7.68h-11Z" style="fill:#fff"/></g></svg>