<svg xmlns="http://www.w3.org/2000/svg" width="100" height="100" viewBox="0 0 75 75">
    <defs>
        <style>
            .cls-1{fill:#3f8624}
        </style>
    </defs>
    <title>
        Amazon-Elastic-Block-Store-EBS_Volume_light-bg
    </title>
    <g id="Working" transform="scale(1.25) translate(0,10)">
        <path class="cls-1" d="M42.84,48.5H7.22a1,1,0,0,1-1-1V14.69a1,1,0,0,1,1-1H42.84a1,1,0,0,1,1,1V47.5A1,1,0,0,1,42.84,48.5Zm-34.62-2H41.84V15.69H8.22Z"/>
        <path class="cls-1" d="M42.84,11.94H7.16a1,1,0,0,1-.9-.56,1,1,0,0,1,.1-1L12.7,1.9a1,1,0,0,1,.8-.4h23a1,1,0,0,1,.8.4l6.34,8.44a1,1,0,0,1,.1,1A1,1,0,0,1,42.84,11.94Zm-33.68-2H40.84L36,3.5H14Z"/>
    </g>
    <style type="text/css">
        .st4{fill:#d13212}
    </style>
    <g id="grid_x5F_locked"/>
    <g id="icon">
        <g transform="translate(52,0)">
            <path class="st4" d="M13.7,2.3C12.1,0.8,10.1,0,8,0S3.9,0.8,2.3,2.3C0.8,3.9,0,5.9,0,8s0.8,4.1,2.3,5.7C3.9,15.2,5.9,16,8,16
			s4.1-0.8,5.7-2.3C15.2,12.1,16,10.1,16,8S15.2,3.9,13.7,2.3z M12.2,12.2C11.1,13.4,9.6,14,8,14s-3.1-0.6-4.2-1.8S2,9.6,2,8
			s0.6-3.1,1.8-4.2S6.4,2,8,2s3.1,0.6,4.2,1.8S14,6.4,14,8S13.4,11.1,12.2,12.2z"/>
            <polygon class="st4" points="10.1,4.5 8,6.6 5.9,4.5 4.5,5.9 6.6,8 4.5,10.1 5.9,11.5 8,9.4 10.1,11.5 11.5,10.1 9.4,8 11.5,5.9 
					"/>
        </g>
    </g>
</svg>
