<svg id="Layer_1" data-name="Layer 1" xmlns="http://www.w3.org/2000/svg" width="75" height="75" viewBox="0 0 75 75">
    <title>
        Amazon-Elastic-Container-Service_Task_light-bg
    </title>
    <g id="Art" transform="scale(1.5)">
        <path d="M41.88,48.5H8.12a1,1,0,0,1-1-1V2.5a1,1,0,0,1,1-1H41.88a1,1,0,0,1,1,1v45A1,1,0,0,1,41.88,48.5Zm-32.76-2H40.88V3.5H9.12Z" style="fill:#d86613"/>
        <path d="M18.42,14.76H12.8a1,1,0,0,1-1-1V8.13a1,1,0,0,1,1-1h5.62a1,1,0,0,1,1,1v5.63A1,1,0,0,1,18.42,14.76Zm-4.62-2h3.62V9.13H13.8Z" style="fill:#d86613"/>
        <path d="M18.42,27.88H12.8a1,1,0,0,1-1-1V21.25a1,1,0,0,1,1-1h5.62a1,1,0,0,1,1,1v5.63A1,1,0,0,1,18.42,27.88Zm-4.62-2h3.62V22.25H13.8Z" style="fill:#d86613"/>
        <path d="M18.42,41H12.8a1,1,0,0,1-1-1V34.38a1,1,0,0,1,1-1h5.62a1,1,0,0,1,1,1V40A1,1,0,0,1,18.42,41ZM13.8,39h3.62V35.38H13.8Z" style="fill:#d86613"/>
        <rect x="21.25" y="9.94" width="16.88" height="2" style="fill:#d86613"/>
        <rect x="21.25" y="23.06" width="16.88" height="2" style="fill:#d86613"/>
        <rect x="21.25" y="36.19" width="16.88" height="2" style="fill:#d86613"/>
    </g>
        <style type="text/css">
        .st4 {
            fill: #d13212
        }
    </style>
    <g id="grid_x5F_locked" />
    <g id="icon">
        <g transform="translate(59,2)">
            <path class="st4" d="M13.7,2.3C12.1,0.8,10.1,0,8,0S3.9,0.8,2.3,2.3C0.8,3.9,0,5.9,0,8s0.8,4.1,2.3,5.7C3.9,15.2,5.9,16,8,16
			s4.1-0.8,5.7-2.3C15.2,12.1,16,10.1,16,8S15.2,3.9,13.7,2.3z M12.2,12.2C11.1,13.4,9.6,14,8,14s-3.1-0.6-4.2-1.8S2,9.6,2,8
			s0.6-3.1,1.8-4.2S6.4,2,8,2s3.1,0.6,4.2,1.8S14,6.4,14,8S13.4,11.1,12.2,12.2z" />
            <polygon class="st4" points="10.1,4.5 8,6.6 5.9,4.5 4.5,5.9 6.6,8 4.5,10.1 5.9,11.5 8,9.4 10.1,11.5 11.5,10.1 9.4,8 11.5,5.9 
					" />
        </g>
    </g>
</svg>
