<svg id="Layer_1" data-name="Layer 1" 
    xmlns="http://www.w3.org/2000/svg" width="50" height="50" viewBox="0 0 50 50" >
    <title>Amazon-VPC_Network-Access-Control-List_light-bg</title>
    <path d="M25,48.5A23.5,23.5,0,1,1,48.5,25,23.52,23.52,0,0,1,25,48.5Zm0" stroke="#693cc5" fill="transparent" fill-opacity="1.0"/>
    <path d="M30.62,32.56H19.37a1,1,0,0,1-1-1V22.19a1,1,0,0,1,1-1H30.63a1,1,0,0,1,1,1v9.37a1,1,0,0,1-1,1Zm-10.24-2h9.24V23.19H20.38Z" fill="#693cc5" fill-opacity="1.0"/>
    <path d="M28.81,22.19h-2V19.72a2.45,2.45,0,0,0-.57-1.61,1.66,1.66,0,0,0-1.23-.6h0a2,2,0,0,0-1.82,2.19v2.48h-2V19.69A4,4,0,0,1,25,15.51h0a3.62,3.62,0,0,1,2.73,1.29,4.43,4.43,0,0,1,1.06,2.93Z" fill="#693cc5" fill-opacity="1.0"/>
    <path d="M7.19,29.88a.94.94,0,0,1-.43-.1,1,1,0,0,1-.57-.9V21.12a1,1,0,0,1,.57-.9,1,1,0,0,1,1.07.13l4.65,3.88a1,1,0,0,1,0,1.54L7.83,29.65A1,1,0,0,1,7.19,29.88Zm1-6.62v3.48L10.28,25Z" fill="#693cc5" fill-opacity="1.0"/>
    <path d="M42.81,29.88a1,1,0,0,1-.64-.23l-4.65-3.88a1,1,0,0,1,0-1.54l4.65-3.88a1,1,0,0,1,1.07-.13,1,1,0,0,1,.57.9v7.76a1,1,0,0,1-.57.9A.94.94,0,0,1,42.81,29.88ZM39.72,25l2.09,1.74V23.26Z" fill="#693cc5" fill-opacity="1.0"/>
    <rect x="13.69" y="12.81" width="2" height="24.38" fill="#693cc5" fill-opacity="1.0"/>
    <rect x="34.31" y="12.81" width="2" height="24.38" fill="#693cc5" fill-opacity="1.0"/>
</svg>