<svg xmlns="http://www.w3.org/2000/svg" width="100" height="100" viewBox="0 0 75 75">
    <defs>
        <style>
            .cls-1 {
                fill: #fff;
            }

            .cls-2 {
                fill: #3b48cc;
            }
        </style>
    </defs>
    <title>Amazon-Redshift_light-bg</title>
    <g id="Reference">
        <rect id="Blue_Light_BG" data-name="Blue Light BG" class="cls-1" />
        <g id="Product_Icon" data-name="Product Icon">
            <path class="cls-2"
                d="M37.5,62.5c-8.24,0-17-2.39-17-6.82V19.32h2V55.68c0,2,5.71,4.82,15,4.82s15-2.8,15-4.82V19.32h2V55.68C54.5,60.11,45.74,62.5,37.5,62.5Z" />
            <path class="cls-2"
                d="M37.5,62.5c-8.24,0-17-2.39-17-6.82V19.32h2V55.68c0,2,5.71,4.82,15,4.82s15-2.8,15-4.82V19.32h2V55.68C54.5,60.11,45.74,62.5,37.5,62.5Z" />
            <path class="cls-2"
                d="M37.5,26.13c-8.24,0-17-2.39-17-6.81s8.76-6.82,17-6.82,17,2.39,17,6.82S45.74,26.13,37.5,26.13Zm0-11.63c-9.29,0-15,2.8-15,4.82s5.71,4.81,15,4.81,15-2.8,15-4.81S46.79,14.5,37.5,14.5Z" />
            <rect class="cls-2" x="36.48" y="38.02" width="2" height="6.22"
                transform="translate(-10.94 68.55) rotate(-77.19)" />
            <rect class="cls-2" x="42.05" y="35.78" width="6.3" height="2"
                transform="translate(-5.61 65.32) rotate(-68.46)" />
            <rect class="cls-2" x="27.4" y="43.59" width="5.2" height="2"
                transform="translate(-22.78 54.68) rotate(-66.89)" />
            <path class="cls-2"
                d="M28,52.77a3.5,3.5,0,1,1,3.5-3.5A3.5,3.5,0,0,1,28,52.77Zm0-5a1.5,1.5,0,1,0,1.5,1.5A1.5,1.5,0,0,0,28,47.77Z" />
            <path class="cls-2"
                d="M32,43.39a3.5,3.5,0,1,1,3.5-3.5A3.5,3.5,0,0,1,32,43.39Zm0-5a1.5,1.5,0,1,0,1.5,1.5h0A1.5,1.5,0,0,0,32,38.39Z" />
            <path class="cls-2"
                d="M43,45.5A3.5,3.5,0,1,1,46.5,42,3.5,3.5,0,0,1,43,45.5Zm0-5A1.5,1.5,0,1,0,44.5,42,1.5,1.5,0,0,0,43,40.5Z" />
            <path class="cls-2"
                d="M47,35a3.5,3.5,0,1,1,3.5-3.5v.05A3.51,3.51,0,0,1,47,35Zm0-5a1.5,1.5,0,1,0,1.5,1.55A1.5,1.5,0,0,0,47,30Z" />
        </g>
    </g>
    <style type="text/css">
        .st4 {
            fill: #d13212
        }
    </style>
    <g id="grid_x5F_locked" />
    <g id="icon">
        <g transform="translate(50,0)">
            <path class="st4" d="M13.7,2.3C12.1,0.8,10.1,0,8,0S3.9,0.8,2.3,2.3C0.8,3.9,0,5.9,0,8s0.8,4.1,2.3,5.7C3.9,15.2,5.9,16,8,16
			s4.1-0.8,5.7-2.3C15.2,12.1,16,10.1,16,8S15.2,3.9,13.7,2.3z M12.2,12.2C11.1,13.4,9.6,14,8,14s-3.1-0.6-4.2-1.8S2,9.6,2,8
			s0.6-3.1,1.8-4.2S6.4,2,8,2s3.1,0.6,4.2,1.8S14,6.4,14,8S13.4,11.1,12.2,12.2z" />
            <polygon class="st4" points="10.1,4.5 8,6.6 5.9,4.5 4.5,5.9 6.6,8 4.5,10.1 5.9,11.5 8,9.4 10.1,11.5 11.5,10.1 9.4,8 11.5,5.9 
					" />
        </g>
    </g>
</svg>