<svg id="Layer_1" data-name="Layer 1" xmlns="http://www.w3.org/2000/svg" width="50" height="50" viewBox="0 0 50 50"><title>Amazon-EC2_Instance-with-CloudWatch_light-bg</title><path d="M44.31,44.31H5.69V5.69H44.31Zm-36.62-2H42.31V7.69H7.69Z" style="fill:#d86613"/><rect x="11.21" y="1" width="2" height="5.69" style="fill:#d86613"/><rect x="17.48" y="1" width="2" height="5.69" style="fill:#d86613"/><rect x="23.76" y="1" width="2" height="5.69" style="fill:#d86613"/><rect x="30.04" y="1" width="2" height="5.69" style="fill:#d86613"/><rect x="36.32" y="1" width="2" height="5.69" style="fill:#d86613"/><rect x="11.21" y="43.31" width="2" height="5.69" style="fill:#d86613"/><rect x="17.48" y="43.31" width="2" height="5.69" style="fill:#d86613"/><rect x="23.76" y="43.31" width="2" height="5.69" style="fill:#d86613"/><rect x="30.04" y="43.31" width="2" height="5.69" style="fill:#d86613"/><rect x="36.32" y="43.31" width="2" height="5.69" style="fill:#d86613"/><rect x="43.31" y="11.45" width="5.69" height="2" style="fill:#d86613"/><rect x="43.31" y="17.72" width="5.69" height="2" style="fill:#d86613"/><rect x="43.31" y="24" width="5.69" height="2" style="fill:#d86613"/><rect x="43.31" y="30.28" width="5.69" height="2" style="fill:#d86613"/><rect x="43.31" y="36.55" width="5.69" height="2" style="fill:#d86613"/><rect x="1" y="11.45" width="5.69" height="2" style="fill:#d86613"/><rect x="1" y="17.72" width="5.69" height="2" style="fill:#d86613"/><rect x="1" y="24" width="5.69" height="2" style="fill:#d86613"/><rect x="1" y="30.28" width="5.69" height="2" style="fill:#d86613"/><rect x="1" y="36.55" width="5.69" height="2" style="fill:#d86613"/><path d="M21.79,32.27H15.85a3.69,3.69,0,0,1-1.94-.56,6,6,0,0,1-2.84-5.2,5.4,5.4,0,0,1,3.52-5.28v-.1a7.89,7.89,0,0,1,4.5-6.95,7.53,7.53,0,0,1,8.49,1.68,8.22,8.22,0,0,1,1.48,2,3.6,3.6,0,0,1,1.82-.49,4,4,0,0,1,3.83,3.65A5.5,5.5,0,0,1,39,26.55a5.35,5.35,0,0,1-2.79,4.94l-1-1.75A3.35,3.35,0,0,0,37,26.55a3.68,3.68,0,0,0-3.38-3.7,1,1,0,0,1-.66-.42,1,1,0,0,1-.17-.66c-.15-1.75-1.12-2.37-1.91-2.37a1.75,1.75,0,0,0-1.38.73,1,1,0,0,1-1.74-.26,7,7,0,0,0-1.59-2.59A5.55,5.55,0,0,0,19.87,16a5.94,5.94,0,0,0-3.28,5.1,5.22,5.22,0,0,0,0,.69,1,1,0,0,1-.25.79,1,1,0,0,1-.54.31,3.44,3.44,0,0,0-2.77,3.59A4,4,0,0,0,15,30a1.74,1.74,0,0,0,.88.25h5.93Z" style="fill:#d86613"/><path d="M28.87,35.07a6.18,6.18,0,1,1,6.18-6.17A6.18,6.18,0,0,1,28.87,35.07Zm0-10.35a4.18,4.18,0,1,0,4.18,4.18A4.18,4.18,0,0,0,28.87,24.72Z" style="fill:#d86613"/><path d="M26.63,31.42a3.36,3.36,0,0,1,4-5.4l-1.19,1.6a1.36,1.36,0,0,0-1.62,2.19Z" style="fill:#d86613"/><path d="M36.59,38.76a2.32,2.32,0,0,1-1.67-.69l-4.05-4,1.41-1.41,4,4a.32.32,0,0,0,.52,0,.37.37,0,0,0,0-.52L32.75,32l1.41-1.41,4.11,4.12a2.38,2.38,0,0,1,0,3.34A2.32,2.32,0,0,1,36.59,38.76Z" style="fill:#d86613"/></svg>