<svg id="Product_Icon" data-name="Product Icon" 
    xmlns="http://www.w3.org/2000/svg" width="75" height="75" viewBox="0 0 75 75">
    <title>Amazon-API-Gateway_light-bg</title>
    <rect id="Purple_Light_BG" data-name="Purple Light BG" width="75" height="75" fill="transparent" fill-opacity="1.0" />
    <g id="Product_Icon-2" data-name="Product Icon">
        <path d="M48.51,61.5a1,1,0,0,1-.59-.19,1,1,0,0,1-.42-.81v-46a1,1,0,0,1,.48-.85,1,1,0,0,1,1-.05l13,6.35a1,1,0,0,1,.56.89V56.18a1,1,0,0,1-.69,1l-13,4.32A1.19,1.19,0,0,1,48.51,61.5Zm1-45.39v43l11-3.65v-34Z" style="fill:#d6242d"/>
        <path d="M26.5,61.5a1.19,1.19,0,0,1-.32,0l-13-4.32a1,1,0,0,1-.68-1V20.84a1,1,0,0,1,.56-.89l13-6.35a1,1,0,0,1,1,.05,1,1,0,0,1,.47.85v46a1,1,0,0,1-.42.81A.94.94,0,0,1,26.5,61.5Zm-12-6,11,3.65v-43l-11,5.37Z" style="fill:#d6242d"/>
        <path d="M47.5,27.5h-3v-2h3Zm-6,0h-3v-2h3Zm-6,0h-3v-2h3Zm-6,0h-3v-2h3Z" style="fill:#d6242d"/>
        <path d="M47.5,49.5h-3v-2h3Zm-6,0h-3v-2h3Zm-6,0h-3v-2h3Zm-6,0h-3v-2h3Z" style="fill:#d6242d"/>
        <!-- <path d="M33.11,40.94l-3.76-3.21a1,1,0,0,1,0-1.52L33.1,33l1.3,1.52L31.54,37l2.86,2.45Z" style="fill:#d6242d"/> -->
        <!-- <path d="M41.9,40.94l-1.3-1.52L43.46,37l-2.87-2.44L41.89,33l3.76,3.2a1,1,0,0,1,0,1.52Z" style="fill:#d6242d"/> -->
        <!-- <rect x="31.29" y="36.5" width="12.41" height="2" transform="translate(-10.04 61) rotate(-71.32)" style="fill:#d6242d"/> -->
        <text transform="translate(3, -4)" font-size="14" style="fill:#d6242d" font-family="Amazon Ember, Helvetica, Arial, sans-serif" font-weight="bold">
            <tspan x="1em" dy="1em">Stage</tspan>
        </text>
    </g>
</svg>