<?xml version="1.0" encoding="UTF-8"?>
<svg width="80px" height="80px" viewBox="0 0 80 80" version="1.1" xmlns="http://www.w3.org/2000/svg" xmlns:xlink="http://www.w3.org/1999/xlink">
    <title>Icon-Architecture/64/Arch_Amazon-Lookout-for-Metrics_64</title>
    <g id="Icon-Architecture/64/Arch_Amazon-Lookout-for-Metrics_64" stroke="none" stroke-width="1" fill="none" fill-rule="evenodd">
        <g id="Icon-Architecture-BG/64/Machine-Learning" fill="#01A88D">
            <rect id="Rectangle" x="0" y="0" width="80" height="80"></rect>
        </g>
        <g id="Icon-Service/64/Amazon-Lookout-for-Metrics_64" transform="translate(12.000000, 12.000000)" fill="#FFFFFF">
            <path d="M56,54 L56,56 L1,56 C0.447,56 0,55.552 0,55 L0,0 L2,0 L2,54 L56,54 Z M4.852,51.524 L3.148,50.476 L11.148,37.476 C11.512,36.884 12.488,36.884 12.852,37.476 L19.444,48.188 L24.977,14.153 C25.054,13.68 25.457,13.328 25.937,13.314 C25.946,13.314 25.955,13.314 25.964,13.314 C26.433,13.314 26.84,13.64 26.94,14.1 L34.586,49 L40.293,43.293 C40.501,43.085 40.791,42.981 41.082,43.003 C41.375,43.028 41.643,43.18 41.813,43.419 L46.128,49.458 L49.293,46.293 L50.707,47.707 L46.707,51.707 C46.499,51.915 46.206,52.023 45.918,51.997 C45.625,51.972 45.357,51.82 45.187,51.581 L40.872,45.542 L34.707,51.707 C34.448,51.965 34.068,52.063 33.719,51.959 C33.368,51.857 33.102,51.571 33.023,51.214 L26.109,19.651 L20.987,51.161 C20.92,51.573 20.604,51.9 20.194,51.981 C20.129,51.994 20.064,52 20,52 C19.657,52 19.333,51.824 19.148,51.524 L12,39.908 L4.852,51.524 Z M36.929,17.689 C36.185,11.362 30.631,6.987 24.316,7.734 C21.248,8.095 18.536,9.589 16.679,11.941 C14.822,14.293 13.999,17.278 14.36,20.346 C14.804,24.111 16.918,27.276 20.16,29.032 L19.209,30.791 C15.386,28.722 12.895,25 12.374,20.58 C11.95,16.981 12.922,13.473 15.109,10.702 C17.297,7.931 20.483,6.171 24.082,5.748 C31.514,4.876 38.04,10.014 38.915,17.456 C39.532,22.702 37.177,27.651 32.769,30.371 L31.718,28.668 C35.458,26.362 37.454,22.155 36.929,17.689 L36.929,17.689 Z M53.366,37.43 C54.378,38.228 54.058,39.722 53.219,40.785 C52.415,41.803 51.068,42.517 50.019,41.688 L38.287,32.205 C39.507,31.03 40.547,29.692 41.393,28.239 L53.366,37.43 Z M17.323,35.298 L18.231,33.516 C13.401,31.053 10.136,26.344 9.497,20.918 C8.449,12.015 14.84,3.918 23.744,2.871 C32.647,1.819 40.742,8.214 41.791,17.117 C42.586,23.871 39.072,30.46 33.047,33.513 L33.951,35.297 C34.947,34.792 35.874,34.192 36.741,33.527 L48.771,43.251 C49.453,43.79 50.24,44.051 51.047,44.051 C52.369,44.051 53.742,43.35 54.789,42.024 C56.458,39.909 56.379,37.259 54.595,35.851 L42.328,26.435 C43.628,23.499 44.169,20.209 43.777,16.884 C42.601,6.884 33.502,-0.29 23.51,0.884 C13.511,2.061 6.334,11.153 7.511,21.152 C8.228,27.243 11.896,32.531 17.323,35.298 L17.323,35.298 Z" id="Fill-3"></path>
        </g>
        <text transform="translate(17,70)" font-size="10" fill="#d6242d" font-family="Amazon Ember, Helvetica, Arial, sans-serif" font-weight="bold">
            <tspan x="1em" dy="1em">Alert</tspan>
        </text>
    </g>
</svg>