<?xml version="1.0" encoding="UTF-8"?>
<svg width="80px" height="80px" viewBox="0 0 80 80" version="1.1" xmlns="http://www.w3.org/2000/svg" xmlns:xlink="http://www.w3.org/1999/xlink">
    <title>Icon-Architecture/64/Arch_AWS-IoT-TwinMaker_64</title>
    <g id="Icon-Architecture/64/Arch_AWS-IoT-TwinMaker_64" stroke="none" stroke-width="1" fill="none" fill-rule="evenodd">
        <g id="Icon-Architecture-BG/64/Internet-of-Things" fill="#7AA116">
            <rect id="Rectangle" x="0" y="0" width="80" height="80"></rect>
        </g>
        <g id="Icon-Service/64/AWS-IoT-TwinMaker_64" transform="translate(12.000000, 11.999906)" fill="#FFFFFF">
            <path d="M44.96,28.9630939 L44.96,25.9630939 L41.96,25.9630939 L41.96,23.9630939 L45.96,23.9630939 C46.513,23.9630939 46.96,24.4110939 46.96,24.9630939 L46.96,28.9630939 L44.96,28.9630939 Z M44.96,42.9630939 L46.96,42.9630939 L46.96,46.9630939 C46.96,47.5160939 46.513,47.9630939 45.96,47.9630939 L41.96,47.9630939 L41.96,45.9630939 L44.96,45.9630939 L44.96,42.9630939 Z M23.96,23.9630939 L27.96,23.9630939 L27.96,25.9630939 L24.96,25.9630939 L24.96,28.9630939 L22.96,28.9630939 L22.96,24.9630939 C22.96,24.4110939 23.408,23.9630939 23.96,23.9630939 L23.96,23.9630939 Z M31.96,25.9630939 L37.96,25.9630939 L37.96,23.9630939 L31.96,23.9630939 L31.96,25.9630939 Z M11.96,53.9630939 L31.96,53.9630939 L31.96,33.9630939 L11.96,33.9630939 L11.96,53.9630939 Z M55.96,26.8600939 C55.96,18.9900939 49.969,16.6160939 47.152,15.9370939 C46.725,12.1250939 44.769,9.38509391 41.839,8.54809391 C39.768,7.95709391 37.599,8.48209391 35.953,9.89309391 C35.08,7.86709391 33.936,6.11609391 32.538,4.67209391 C28.026,0.0100939131 21.85,-1.25390609 16.019,1.29109391 C11.056,3.45609391 7.313,9.42809391 7.313,15.1810939 C7.313,15.5250939 7.324,15.8700939 7.346,16.2140939 C4.635,17.1330939 0,19.7360939 0,26.7750939 C0,27.2230939 0.02,27.6550939 0.058,28.0710939 C0.517,33.1080939 4.837,37.2730939 9.96,37.8790939 L9.96,54.9630939 C9.96,55.5160939 10.408,55.9630939 10.96,55.9630939 L32.96,55.9630939 C33.513,55.9630939 33.96,55.5160939 33.96,54.9630939 L33.96,47.9630939 L37.96,47.9630939 L37.96,45.9630939 L33.96,45.9630939 L33.96,32.9630939 C33.96,32.4100939 33.513,31.9630939 32.96,31.9630939 L10.96,31.9630939 C10.408,31.9630939 9.96,32.4100939 9.96,32.9630939 L9.96,35.8620939 C5.848,35.2730939 2.418,31.9270939 2.05,27.8900939 C2.017,27.5320939 2,27.1610939 2,26.7750939 C2,20.6540939 6.087,18.6050939 8.587,17.9250939 C9.106,17.8350939 9.469,17.3540939 9.408,16.8250939 C9.345,16.2830939 9.313,15.7300939 9.313,15.1810939 C9.313,10.2560939 12.61,4.96009391 16.818,3.12409391 C24.076,-0.0429060869 29.224,4.12409391 31.101,6.06309391 C32.634,7.64809391 33.828,9.67109391 34.652,12.0750939 C34.774,12.4290939 35.083,12.6860939 35.453,12.7400939 C35.826,12.7940939 36.193,12.6380939 36.411,12.3340939 C37.589,10.6920939 39.504,9.96009391 41.289,10.4710939 C43.509,11.1060939 44.969,13.3960939 45.207,16.6070939 L45.206,16.6110939 C45.127,17.1470939 45.488,17.6480939 46.021,17.7420939 C48.408,18.1650939 53.96,19.9000939 53.96,26.8600939 C53.96,33.4210939 49.11,35.2760939 46.96,35.7800939 L46.96,31.9630939 L44.96,31.9630939 L44.96,36.9620939 L44.959,37.9620939 L44.96,37.9620939 L44.96,39.9630939 L46.96,39.9630939 L46.96,37.8070939 C49.423,37.2910939 55.96,35.1400939 55.96,26.8600939 L55.96,26.8600939 Z" id="Fill-1"></path>
        </g>
        <text transform="translate(17,70)" font-size="10" fill="#d6242d" font-family="Amazon Ember, Helvetica, Arial, sans-serif" font-weight="bold">
            <tspan x="1em" dy="1em">Scene</tspan>
        </text>  
    </g>
</svg>