<?xml version="1.0" encoding="UTF-8"?>
<svg width="80px" height="80px" viewBox="0 0 80 80" version="1.1" xmlns="http://www.w3.org/2000/svg" xmlns:xlink="http://www.w3.org/1999/xlink">
    <title>Icon-Architecture/64/Arch_AWS-AppSync_64</title>
    <g id="Icon-Architecture/64/Arch_AWS-AppSync_64" stroke="none" stroke-width="1" fill="none" fill-rule="evenodd">
        <g id="Icon-Architecture-BG/64/Application-Integration" fill="#E7157B">
            <rect id="Rectangle" x="0" y="0" width="80" height="80"></rect>
        </g>
        <g id="Icon-Service/64/AWS-AppSync" transform="translate(13.000000, 15.000000)" fill="#FFFFFF">
            <path d="M53.5202995,12.9808368 L48.0136554,11.5893498 C53.4776815,21.1163772 52.6104544,33.5996882 45.6260554,41.6019905 C40.8538286,47.0707647 33.7723001,50 26.6521181,50 C22.5092504,50 18.3534983,49.0082274 14.6308641,46.9485462 L15.5833272,45.1914057 C24.9117172,50.353632 37.1886792,48.2408559 44.1393804,40.2766217 C50.5984876,32.8773973 51.3636297,21.2946959 46.2395566,12.4819451 L44.8103663,18.2622761 L42.8876,17.7764077 L44.8698333,9.76208398 C45.002643,9.22612608 45.5398282,8.89553522 46.0710667,9.03378231 L54,11.0373632 L53.5202995,12.9808368 Z M7.7584612,36.5870274 L9.18963365,30.7996838 L11.1124,31.2855522 L9.13016665,39.299876 C9.01817047,39.7556907 8.61379488,40.0592332 8.16977461,40.0592332 C8.09048528,40.0592332 8.00921371,40.0502171 7.92893326,40.0291795 L-3.55271368e-15,38.0255985 L0.479700463,36.082125 L5.97742457,37.4706066 C0.556016445,28.1048675 1.44108362,16.5031321 8.45918068,8.46175995 C16.116548,-0.310919199 29.1170252,-2.55893701 39.370127,3.116206 L38.4176639,4.87334648 C28.9693488,-0.35499798 16.9946773,1.71069397 9.94585566,9.78712874 C3.47089054,17.206389 2.68493503,27.9425774 7.7584612,36.5870274 L7.7584612,36.5870274 Z M18.3961163,28.7199668 C19.6627634,28.7199668 20.6935247,29.7618289 20.6935247,31.0431189 C20.6935247,32.3234072 19.6627634,33.3652692 18.3961163,33.3652692 C17.1284781,33.3652692 16.0977168,32.3234072 16.0977168,31.0431189 C16.0977168,29.7618289 17.1284781,28.7199668 18.3961163,28.7199668 L18.3961163,28.7199668 Z M25.8641803,19.8491122 C26.2279201,19.9512948 26.6045445,20.0234238 27,20.0234238 C27.3716687,20.0234238 27.7264885,19.960311 28.070406,19.869148 L31.7682622,27.8534181 C31.1408854,28.4284458 30.6849717,29.1817922 30.4817928,30.0413285 L22.547904,30.0413285 C22.3486895,29.1968191 21.9056604,28.4524888 21.2951325,27.8804664 L25.8641803,19.8491122 Z M27,13.3745404 C28.2676382,13.3745404 29.2983995,14.4164025 29.2983995,15.6966907 C29.2983995,16.9779807 28.2676382,18.0198428 27,18.0198428 C25.7333529,18.0198428 24.7025916,16.9779807 24.7025916,15.6966907 C24.7025916,14.4164025 25.7333529,13.3745404 27,13.3745404 L27,13.3745404 Z M36.93198,31.0431189 C36.93198,32.3234072 35.9012187,33.3652692 34.6335805,33.3652692 C33.3669334,33.3652692 32.3361721,32.3234072 32.3361721,31.0431189 C32.3361721,29.7618289 33.3669334,28.7199668 34.6335805,28.7199668 C35.9012187,28.7199668 36.93198,29.7618289 36.93198,31.0431189 L36.93198,31.0431189 Z M18.3961163,35.3688502 C20.4130387,35.3688502 22.0989281,33.9463077 22.547904,32.0449094 L30.4817928,32.0449094 C30.9317598,33.9463077 32.6166581,35.3688502 34.6335805,35.3688502 C36.9934293,35.3688502 38.9142133,33.428382 38.9142133,31.0431189 C38.9142133,28.656854 36.9934293,26.7163859 34.6335805,26.7163859 C34.2420894,26.7163859 33.8694296,26.787513 33.5086631,26.8876921 L29.820718,18.9254614 C30.7077674,18.1320434 31.2806328,16.9859951 31.2806328,15.6966907 C31.2806328,13.3114276 29.3598488,11.3709595 27,11.3709595 C24.6401512,11.3709595 22.7203583,13.3114276 22.7203583,15.6966907 C22.7203583,16.9619521 23.2694369,18.0899682 24.1277439,18.8813826 L19.5646428,26.9017171 C19.1909919,26.7935238 18.8044564,26.7163859 18.3961163,26.7163859 C16.0362675,26.7163859 14.1154834,28.656854 14.1154834,31.0431189 C14.1154834,33.428382 16.0362675,35.3688502 18.3961163,35.3688502 L18.3961163,35.3688502 Z" id="AWS-AppSync-Icon_64_Squid"></path>
        </g>
        <text transform="translate(17,70)" font-size="10" fill="#d6242d" font-family="Amazon Ember, Helvetica, Arial, sans-serif" font-weight="bold">
            <tspan x="1em" dy="1em">GraphQLApi</tspan>
        </text> 
    </g>
</svg>