<?xml version="1.0" encoding="UTF-8"?>
<svg width="90px" height="90px" viewBox="0 0 90 90" version="1.1" xmlns="http://www.w3.org/2000/svg" xmlns:xlink="http://www.w3.org/1999/xlink">
    <title>Icon-Architecture-Category/64/Migration-Transfer_64</title>
    <g id="Icon-Architecture-Category/64/Migration-Transfer_64" stroke="none" stroke-width="1" fill="none" fill-rule="evenodd">
        <rect id="Rectangle" fill="#01A88D" x="5" y="5" width="80" height="80"></rect>
        <rect id="#879196-Border-Copy-16" stroke="#879196" stroke-width="2" x="1" y="1" width="88" height="88"></rect>
        <g id="Icon-Category/64/Migration-Transfer_64" transform="translate(17.000000, 17.000000)" fill="#FFFFFF">
            <path d="M39.0671694,42.184 L27.3581694,27.088 L15.6491694,42.184 L23.0051694,42.184 C23.5581694,42.184 24.0051694,42.632 24.0051694,43.184 L24.0051694,53.184 L31.0051694,53.184 L31.0051694,43.184 C31.0051694,42.632 31.4531694,42.184 32.0051694,42.184 L39.0671694,42.184 Z M41.8981694,42.571 C42.1321694,42.872 42.1741694,43.281 42.0061694,43.624 C41.8381694,43.967 41.4901694,44.184 41.1081694,44.184 L33.0051694,44.184 L33.0051694,54.184 C33.0051694,54.736 32.5581694,55.184 32.0051694,55.184 L23.0051694,55.184 C22.4531694,55.184 22.0051694,54.736 22.0051694,54.184 L22.0051694,44.184 L13.6081694,44.184 C13.2261694,44.184 12.8781694,43.967 12.7101694,43.624 C12.5421694,43.281 12.5841694,42.872 12.8181694,42.571 L26.5681694,24.844 C26.9471694,24.355 27.7691694,24.355 28.1481694,24.844 L41.8981694,42.571 Z M56.0051694,27.053 C56.0051694,33.398 52.1361694,38.184 47.0051694,38.184 L41.0051694,38.184 L41.0051694,36.184 L47.0051694,36.184 C50.9961694,36.184 54.0051694,32.258 54.0051694,27.053 C54.0051694,24.183 52.8841694,19.368 45.3741694,19.368 C45.0661694,19.368 44.7751694,19.226 44.5861694,18.983 C44.3961694,18.741 44.3291694,18.424 44.4041694,18.125 C45.0081694,15.705 44.5071694,13.476 43.0281694,12.01 C41.5631694,10.558 39.3581694,10.08 36.9781694,10.696 C36.7201694,10.763 36.4481694,10.725 36.2181694,10.589 C35.9891694,10.454 35.8241694,10.232 35.7581694,9.975 C34.0811694,3.383 28.2551694,2 23.6641694,2 C23.1751694,2.002 11.6371694,2.228 11.6371694,16.921 C11.6371694,17.473 11.1901694,17.921 10.6371694,17.921 C7.87416936,17.921 5.73016936,18.699 4.26416936,20.235 C1.85416936,22.76 2.00316936,26.571 2.00416936,26.609 C2.00516936,31.999 5.79716936,36.184 10.6371694,36.184 L14.0051694,36.184 L14.0051694,38.184 L10.6371694,38.184 C4.67516936,38.184 0.00516935979,33.121 0.00516935979,26.658 C-0.00283064021,26.519 -0.19783064,22.027 2.80316936,18.869 C4.47516936,17.109 6.77616936,16.13 9.65316936,15.951 C10.1791694,0.186 23.5261694,0 23.6641694,0 C30.7711694,0 35.6211694,3.029 37.4281694,8.559 C40.1561694,8.114 42.6631694,8.832 44.4361694,10.59 C46.1711694,12.309 46.9221694,14.747 46.5731694,17.409 C52.5051694,17.823 56.0051694,21.362 56.0051694,27.053 L56.0051694,27.053 Z" id="Migration-Transfer_Category-Icon_64_Squid"></path>
        </g>
        <text transform="translate(17,70)" font-size="10" fill="#d6242d" font-family="Amazon Ember, Helvetica, Arial, sans-serif" font-weight="bold">
            <tspan x="1em" dy="1em">Connector</tspan>
        </text>    
    </g>
</svg>