<?xml version="1.0" encoding="UTF-8"?>
<svg width="80px" height="80px" viewBox="0 0 80 80" version="1.1" xmlns="http://www.w3.org/2000/svg" xmlns:xlink="http://www.w3.org/1999/xlink">
    <title>Icon-Architecture/64/Arch_Amazon-Pinpoint_64</title>
    <g id="Icon-Architecture/64/Arch_Amazon-Pinpoint_64" stroke="none" stroke-width="1" fill="none" fill-rule="evenodd">
        <g id="Icon-Architecture-BG/64/Business-Applications" fill="#DD344C">
            <rect id="Rectangle" x="0" y="0" width="80" height="80"></rect>
        </g>
        <g id="Icon-Service/64/Amazon-Pinpoint" transform="translate(16.000000, 16.000000)" fill="#FFFFFF">
            <path d="M23.293,23.293 L27.473,19.114 C26.492,18.416 25.297,18 24.004,18 C20.697,18 18.007,20.69 18.007,23.997 C18.007,27.303 20.697,29.993 24.004,29.993 C27.311,29.993 30,27.303 30,23.997 C30,22.704 29.585,21.508 28.887,20.528 L24.707,24.707 L23.293,23.293 Z M34.569,14.845 L30.313,19.102 C31.366,20.456 32,22.152 32,23.997 C32,28.406 28.413,31.993 24.004,31.993 C19.595,31.993 16.007,28.406 16.007,23.997 C16.007,19.587 19.595,16 24.004,16 C25.849,16 27.544,16.634 28.898,17.688 L33.155,13.431 C30.699,11.3 27.504,10 24.004,10 C16.286,10 10.007,16.279 10.007,23.997 C10.007,31.714 16.286,37.993 24.004,37.993 C31.722,37.993 38,31.714 38,23.997 C38,20.497 36.7,17.301 34.569,14.845 L34.569,14.845 Z M37.03,7.515 C37.03,9.437 38.594,11 40.515,11 C42.437,11 44,9.437 44,7.515 C44,5.594 42.437,4.03 40.515,4.03 C38.594,4.03 37.03,5.594 37.03,7.515 L37.03,7.515 Z M34.568,12.017 L35.984,10.602 C35.383,9.722 35.03,8.659 35.03,7.515 C35.03,4.491 37.49,2.03 40.515,2.03 C43.539,2.03 46,4.491 46,7.515 C46,10.54 43.539,13 40.515,13 C39.355,13 38.281,12.636 37.395,12.02 L35.982,13.431 C38.475,16.253 40,19.946 40,23.997 C40,32.817 32.824,39.993 24.004,39.993 C15.183,39.993 8.007,32.817 8.007,23.997 C8.007,15.176 15.183,8 24.004,8 C28.055,8 31.747,9.526 34.568,12.017 L34.568,12.017 Z M48,24 C48,37.233 37.233,48 24,48 C10.767,48 0,37.233 0,24 C0,10.767 10.767,0 24,0 C27.361,0 30.614,0.684 33.669,2.032 L32.86,3.862 C30.063,2.626 27.081,2 24,2 C11.869,2 2,11.869 2,24 C2,36.131 11.869,46 24,46 C36.131,46 46,36.131 46,24 C46,20.91 45.378,17.944 44.149,15.186 L45.978,14.372 C47.319,17.389 48,20.628 48,24 L48,24 Z" id="Amazon-Pinpoint-Icon_64_Squid"></path>
        </g>
        <text transform="translate(17,70)" font-size="10" fill="#d6242d" font-family="Amazon Ember, Helvetica, Arial, sans-serif" font-weight="bold">
            <tspan x="1em" dy="1em">Segment</tspan>
        </text>    
    </g>
</svg>