<?xml version="1.0" encoding="UTF-8"?>
<svg width="80px" height="80px" viewBox="0 0 80 80" version="1.1" xmlns="http://www.w3.org/2000/svg" xmlns:xlink="http://www.w3.org/1999/xlink">
    <title>Icon-Architecture/64/Arch_AWS-Resilience-Hub_64</title>
    <g id="Icon-Architecture/64/Arch_AWS-Resilience-Hub_64" stroke="none" stroke-width="1" fill="none" fill-rule="evenodd">
        <g id="Icon-Architecture-BG/64/Management-Governance" fill="#E7157B">
            <rect id="Rectangle" x="0" y="0" width="80" height="80"></rect>
        </g>
        <path d="M51,54.1184246 L56.729,54.1184246 C54.762,59.0214246 49.987,62.2854246 44.667,62.2854246 C37.499,62.2854246 31.667,56.4534246 31.667,49.2854246 C31.667,42.1164246 37.499,36.2854246 44.667,36.2854246 C51.381,36.2854246 57.071,41.5184246 57.622,48.2004246 L59.616,48.0364246 C58.979,40.3254246 52.413,34.2854246 44.667,34.2854246 C36.396,34.2854246 29.667,41.0144246 29.667,49.2854246 C29.667,57.5564246 36.396,64.2854246 44.667,64.2854246 C50.329,64.2854246 55.457,61.0814246 58,56.1444246 L58,60.9514246 L60,60.9514246 L60,52.1184246 L51,52.1184246 L51,54.1184246 Z M37.625,50.3374246 L36.375,51.8994246 L41.375,55.8994246 C41.56,56.0464246 41.78,56.1184246 42,56.1184246 C42.272,56.1184246 42.543,56.0074246 42.74,55.7914246 L52.74,44.7914246 L51.26,43.4454246 L41.892,53.7514246 L37.625,50.3374246 Z M68.0004452,42.2434246 C67.97,45.7064246 66.608,47.8904246 65.472,49.1134246 L64.007,47.7514246 C64.902,46.7884246 65.976,45.0474246 66,42.2264246 C66.039,37.6434246 63.33,34.9454246 57.72,33.9774246 C57.2,33.8884246 56.839,33.4104246 56.896,32.8864246 C57.261,29.4664246 55.446,27.4934246 53.627,26.7864246 C51.784,26.0724246 49.88,26.5764246 48.777,28.0744246 C48.557,28.3724246 48.196,28.5234246 47.824,28.4714246 C47.458,28.4164246 47.151,28.1634246 47.028,27.8134246 C46.163,25.3554246 44.432,23.2764246 43.132,21.9654246 C41.253,20.0724246 36.099,16.0024246 28.821,19.0974246 C24.614,20.8884246 21.318,26.0454246 21.318,30.8384246 C21.318,31.2784246 21.388,32.1604246 21.415,32.4624246 C21.458,32.9504246 21.143,33.3974246 20.668,33.5194246 C18.178,34.1604246 14,36.1334246 14,42.1514246 C14,42.4654246 14.012,42.7684246 14.035,43.0624246 C14.393,47.6474246 17.625,50.7264246 20.421,50.7264246 L25.931,50.7264246 L25.931,52.7264246 L20.421,52.7264246 C16.747,52.7264246 12.499,49.0924246 12.041,43.2194246 C12.014,42.8764246 12,42.5194246 12,42.1514246 C12,35.2604246 16.646,32.7174246 19.36,31.8204246 C19.338,31.4844246 19.318,31.1114246 19.318,30.8384246 C19.318,25.2114246 23.067,19.3724246 28.038,17.2574246 C33.866,14.7774246 40.039,16.0114246 44.552,20.5564246 C45.742,21.7574246 47.261,23.5474246 48.312,25.7124246 C49.968,24.4294246 52.229,24.0994246 54.351,24.9224246 C56.579,25.7874246 59.006,28.1834246 58.941,32.1774246 C66.457,33.7924246 68.031,38.5034246 68.0004452,42.2434246 L68.0004452,42.2434246 Z" id="Icon-Service/64/AWS-Resilience-Hub_64_Squid" fill="#FFFFFF"></path>
        <text transform="translate(17,70)" font-size="10" fill="#d6242d" font-family="Amazon Ember, Helvetica, Arial, sans-serif" font-weight="bold">
            <tspan x="1em" dy="1em">ResiliencyPolicy</tspan>
        </text>
    </g>
</svg>