<?xml version="1.0" encoding="UTF-8"?>
<svg width="80px" height="80px" viewBox="0 0 80 80" version="1.1" xmlns="http://www.w3.org/2000/svg" xmlns:xlink="http://www.w3.org/1999/xlink">
    <title>Icon-Architecture/64/Arch_Amazon-HealthLake_64</title>
    <g id="Icon-Architecture/64/Arch_Amazon-HealthLake_64" stroke="none" stroke-width="1" fill="none" fill-rule="evenodd">
        <g id="Icon-Architecture-BG/64/Machine-Learning" fill="#01A88D">
            <rect id="Rectangle" x="0" y="0" width="80" height="80"></rect>
        </g>
        <g id="Icon-Service/64/Amazon-HealthLake_64" transform="translate(12.000000, 12.000000)" fill="#FFFFFF">
            <path d="M47,36 L49,36 L49,30 L47,30 L47,36 Z M54,45 L50,45 C49.447,45 49,44.552 49,44 L49,40 L45,40 L45,44 C45,44.552 44.553,45 44,45 L40,45 L40,49 L44,49 C44.553,49 45,49.448 45,50 L45,54 L49,54 L49,50 C49,49.448 49.447,49 50,49 L54,49 L54,45 Z M56,44 L56,50 C56,50.552 55.553,51 55,51 L51,51 L51,55 C51,55.552 50.553,56 50,56 L44,56 C43.447,56 43,55.552 43,55 L43,51 L39,51 C38.447,51 38,50.552 38,50 L38,44 C38,43.448 38.447,43 39,43 L43,43 L43,39 C43,38.448 43.447,38 44,38 L50,38 C50.553,38 51,38.448 51,39 L51,43 L55,43 C55.553,43 56,43.448 56,44 L56,44 Z M21,7 L35,7 L35,2 L21,2 L21,7 Z M19,8 L19,1 C19,0.448 19.447,0 20,0 L36,0 C36.553,0 37,0.448 37,1 L37,8 C37,8.552 36.553,9 36,9 L20,9 C19.447,9 19,8.552 19,8 L19,8 Z M9,5.545 C9,4.693 9.693,4 10.546,4 L17,4 L17,2 L10.546,2 C8.591,2 7,3.59 7,5.545 L7,21 L9,21 L9,5.545 Z M47,5.545 L47,21 L49,21 L49,5.545 C49,3.59 47.409,2 45.454,2 L39,2 L39,4 L45.454,4 C46.307,4 47,4.693 47,5.545 L47,5.545 Z M9,52.455 L9,30 L7,30 L7,52.455 C7,54.41 8.591,56 10.546,56 L40,56 L40,54 L10.546,54 C9.693,54 9,53.307 9,52.455 L9,52.455 Z M39.618,25 L34.895,15.553 C34.723,15.209 34.4,15.011 33.984,15 C33.6,15.006 33.253,15.232 33.092,15.581 L27.841,26.958 L22.832,19.445 C22.461,18.889 21.539,18.889 21.168,19.445 L17.465,25 L0,25 L0,27 L18,27 C18.334,27 18.646,26.833 18.832,26.555 L22,21.803 L27.168,29.555 C27.354,29.834 27.667,30 28,30 C28.025,30 28.052,29.999 28.078,29.997 C28.438,29.969 28.756,29.748 28.908,29.419 L34.036,18.308 L38.105,26.447 C38.275,26.786 38.621,27 39,27 L56,27 L56,25 L39.618,25 Z M13,42 L31,42 L31,40 L13,40 L13,42 Z M13,48 L31,48 L31,46 L13,46 L13,48 Z" id="Fill-6"></path>
        </g>
        <text transform="translate(17,70)" font-size="10" fill="#d6242d" font-family="Amazon Ember, Helvetica, Arial, sans-serif" font-weight="bold">
            <tspan x="1em" dy="1em">FHIRDatastore</tspan>
        </text>  
    </g>
</svg>