<?xml version="1.0" encoding="UTF-8"?>
<svg width="80px" height="80px" viewBox="0 0 80 80" version="1.1" xmlns="http://www.w3.org/2000/svg" xmlns:xlink="http://www.w3.org/1999/xlink">
    <title>Icon-Architecture/64/Arch_Amazon-Interactive-Video-Service_64</title>
    <g id="Icon-Architecture/64/Arch_Amazon-Interactive-Video-Service_64" stroke="none" stroke-width="1" fill="none" fill-rule="evenodd">
        <g id="Icon-Architecture-BG/64/Media-Services" fill="#ED7100">
            <rect id="Rectangle" x="0" y="0" width="80" height="80"></rect>
        </g>
        <g id="Icon-Service/64/Amazon-Interactive-Video-Service_64" transform="translate(12.000000, 12.000000)" fill="#FFFFFF">
            <path d="M54,34.28325 L43.522,28.23325 L54,22.18425 L54,34.28325 Z M22,38.17025 L22,18.29825 L39.21,28.23425 L22,38.17025 Z M20,14.83125 L9.522,8.78225 L20,2.73225 L20,14.83125 Z M20,53.73925 L9.522,47.68925 L20,41.63925 L20,53.73925 Z M55.5,19.58625 C55.191,19.40725 54.809,19.40725 54.5,19.58625 L41.366,27.16925 L22,15.98925 L22,1.00025 C22,0.64225 21.81,0.31225 21.5,0.13425 C21.191,-0.04475 20.809,-0.04475 20.5,0.13425 L7.022,7.91525 C6.713,8.09425 6.522,8.42425 6.522,8.78225 C6.522,9.13925 6.713,9.46925 7.022,9.64825 L20,17.14025 L20,39.33025 L7.022,46.82325 C6.713,47.00125 6.522,47.33125 6.522,47.68925 C6.522,48.04625 6.713,48.37625 7.022,48.55525 L20.5,56.33725 C20.654,56.42625 20.827,56.47025 21,56.47025 C21.173,56.47025 21.346,56.42625 21.5,56.33725 C21.81,56.15825 22,55.82825 22,55.47025 L22,40.47925 L41.366,29.29825 L54.5,36.88125 C54.809,37.06025 55.191,37.06025 55.5,36.88125 C55.81,36.70225 56,36.37225 56,36.01525 L56,20.45225 C56,20.09525 55.81,19.76425 55.5,19.58625 L55.5,19.58625 Z M36,53.73425 L36,41.63525 L46.478,47.68525 L36,53.73425 Z M48.978,46.81925 L35.5,39.03725 C35.191,38.85825 34.809,38.85825 34.5,39.03725 C34.19,39.21625 34,39.54625 34,39.90325 L34,55.46625 C34,55.82425 34.19,56.15425 34.5,56.33225 C34.654,56.42225 34.827,56.46625 35,56.46625 C35.173,56.46625 35.346,56.42225 35.5,56.33225 L48.978,48.55125 C49.287,48.37225 49.478,48.04225 49.478,47.68525 C49.478,47.32725 49.287,46.99725 48.978,46.81925 L48.978,46.81925 Z M2,34.28325 L2,22.18325 L12.478,28.23325 L2,34.28325 Z M15.478,28.23325 C15.478,27.87525 15.287,27.54525 14.978,27.36625 L1.5,19.58525 C1.191,19.40725 0.809,19.40725 0.5,19.58525 C0.19,19.76425 0,20.09425 0,20.45125 L0,36.01425 C0,36.37225 0.19,36.70225 0.5,36.88125 C0.654,36.97025 0.827,37.01425 1,37.01425 C1.173,37.01425 1.346,36.97025 1.5,36.88125 L14.978,29.09925 C15.287,28.92025 15.478,28.59025 15.478,28.23325 L15.478,28.23325 Z M36,2.73225 L46.478,8.78225 L36,14.83125 L36,2.73225 Z M34.5,17.42925 C34.654,17.51825 34.827,17.56325 35,17.56325 C35.173,17.56325 35.346,17.51825 35.5,17.42925 L48.978,9.64825 C49.287,9.46925 49.478,9.13925 49.478,8.78225 C49.478,8.42425 49.287,8.09425 48.978,7.91525 L35.5,0.13425 C35.191,-0.04475 34.809,-0.04475 34.5,0.13425 C34.19,0.31225 34,0.64225 34,1.00025 L34,16.56325 C34,16.92025 34.19,17.25025 34.5,17.42925 L34.5,17.42925 Z" id="Amazon-Interactive-Video_Icon_64_Squid"></path>
        </g>
        <text transform="translate(17,70)" font-size="10" fill="#d6242d" font-family="Amazon Ember, Helvetica, Arial, sans-serif" font-weight="bold">
            <tspan x="1em" dy="1em">RecordingConfiguration</tspan>
        </text>    
    </g>
</svg>