<?xml version="1.0" encoding="UTF-8"?>
<svg width="80px" height="80px" viewBox="0 0 80 80" version="1.1" xmlns="http://www.w3.org/2000/svg" xmlns:xlink="http://www.w3.org/1999/xlink">
    <title>Icon-Architecture/64/Arch_AWS-CodeArtifact_64</title>
    <g id="Icon-Architecture/64/Arch_AWS-CodeArtifact_64" stroke="none" stroke-width="1" fill="none" fill-rule="evenodd">
        <g id="Icon-Architecture-BG/64/Developer-Tools" fill="#C925D1">
            <rect id="Rectangle" x="0" y="0" width="80" height="80"></rect>
        </g>
        <g id="Icon-Service/64/AWS-CodeArtifact_64" transform="translate(13.000000, 12.000000)" fill="#FFFFFF">
            <path d="M23.848,34.128 L29.773,20.893 L31.599,21.711 L25.674,34.945 L23.848,34.128 Z M32.143,30.097 L35.702,27.501 L32.567,24.321 L33.991,22.917 L37.94,26.922 C38.144,27.129 38.248,27.416 38.225,27.706 C38.202,27.996 38.052,28.261 37.818,28.432 L33.323,31.712 L32.143,30.097 Z M23.304,24.407 L19.694,27.042 L22.838,30.222 L21.416,31.628 L17.454,27.623 C17.249,27.416 17.145,27.129 17.168,26.839 C17.192,26.549 17.34,26.283 17.576,26.112 L22.124,22.792 L23.304,24.407 Z M22.152,1.721 L2,13.636 L2,36.871 L0,36.871 L0,13.066 C0,12.712 0.187,12.385 0.492,12.205 L21.134,3.55271368e-15 L22.152,1.721 Z M55,18.871 L55,42.935 C55,43.293 54.809,43.623 54.499,43.802 L33.873,55.678 L32.875,53.945 L53,42.357 L53,18.871 L55,18.871 Z M43,36.664 L27.92,45.239 L13,36.496 L13,19.172 L27.91,10.599 L43,19.347 L43,36.664 Z M45,37.246 L45,18.771 C45,18.414 44.811,18.085 44.502,17.905 L28.414,8.579 C28.104,8.399 27.723,8.399 27.414,8.577 L11.502,17.727 C11.192,17.905 11,18.236 11,18.594 L11,37.069 C11,37.424 11.189,37.752 11.494,37.932 L27.407,47.257 C27.563,47.348 27.738,47.394 27.912,47.394 C28.083,47.394 28.253,47.351 28.407,47.263 L44.494,38.115 C44.807,37.937 45,37.605 45,37.246 L45,37.246 Z" id="AWS-CodeArtifact_Icon_64_Squid"></path>
        </g>
        <text transform="translate(17,70)" font-size="10" fill="#d6242d" font-family="Amazon Ember, Helvetica, Arial, sans-serif" font-weight="bold">
            <tspan x="1em" dy="1em">Repository</tspan>
        </text>          
    </g>
</svg>