<?xml version="1.0" encoding="UTF-8"?>
<svg width="80px" height="80px" viewBox="0 0 80 80" version="1.1" xmlns="http://www.w3.org/2000/svg" xmlns:xlink="http://www.w3.org/1999/xlink">
    <title>Icon-Architecture/64/Arch_AWS-Signer_64</title>
    <g id="Icon-Architecture/64/Arch_AWS-Signer_64" stroke="none" stroke-width="1" fill="none" fill-rule="evenodd">
        <g id="Icon-Architecture-BG/64/Security-Identity-Compliance" fill="#DD344C">
            <rect id="Rectangle" x="0" y="0" width="80" height="80"></rect>
        </g>
        <g id="Icon-Service/64/AWS-Signer_64" transform="translate(12.000000, 12.000000)" fill="#FFFFFF">
            <path d="M32.836,39.639 C32.928,40.089 33.19,40.476 33.574,40.729 C33.957,40.983 34.415,41.072 34.867,40.978 C35.317,40.886 35.704,40.624 35.957,40.241 C36.21,39.857 36.299,39.397 36.206,38.947 C36.114,38.497 35.852,38.11 35.468,37.857 C35.184,37.669 34.857,37.572 34.524,37.572 C34.408,37.572 34.292,37.584 34.175,37.608 C33.725,37.7 33.338,37.962 33.085,38.346 C32.832,38.729 32.743,39.189 32.836,39.639 L32.836,39.639 Z M47.422,33.008 L35.77,25.324 L25,33.605 L25,51.692 L31.662,41.649 C31.28,41.186 31,40.645 30.876,40.041 C30.677,39.068 30.868,38.075 31.415,37.245 C31.962,36.415 32.8,35.848 33.773,35.648 C34.746,35.449 35.74,35.64 36.569,36.187 C37.398,36.734 37.966,37.572 38.166,38.545 C38.365,39.518 38.174,40.512 37.627,41.341 C37.08,42.171 36.242,42.738 35.269,42.938 C35.018,42.99 34.765,43.015 34.514,43.015 C34.098,43.015 33.69,42.937 33.298,42.8 L26.648,52.826 L43.584,45.79 L47.422,33.008 Z M49.486,33.284 C49.465,33.31 49.433,33.321 49.409,33.345 L45.363,46.819 C45.276,47.106 45.066,47.34 44.789,47.455 L24.384,55.931 C24.261,55.983 24.13,56.008 24,56.008 L3.55271368e-15,56.008 L3.55271368e-15,54.008 L23,54.008 L23,33.112 C23,32.802 23.145,32.509 23.391,32.319 L35.057,23.349 L35.064,23.359 L41.573,10.549 L43.357,11.455 L37.085,23.795 L48.498,31.321 L54.439,23.929 L55.997,25.181 L49.486,33.284 Z M48.718,0.906 L46.935,0 L42.506,8.714 L44.289,9.62 L48.718,0.906 Z M12.943,21.03 L12.944,21.03 C13.218,21.03 13.48,20.918 13.668,20.72 L22.389,11.554 L20.94,10.175 L12.942,18.58 L9.302,14.762 L7.855,16.141 L12.22,20.72 C12.408,20.918 12.67,21.03 12.943,21.03 L12.943,21.03 Z M2,15.508 C2,16.622 2.792,17.589 3.884,17.807 C4.255,17.881 4.552,18.158 4.652,18.521 C4.901,19.422 5.259,20.284 5.714,21.082 C5.896,21.399 5.889,21.789 5.698,22.101 C5.464,22.481 5.346,22.89 5.346,23.316 C5.346,24.609 6.399,25.662 7.692,25.662 C8.118,25.662 8.526,25.543 8.908,25.309 C9.068,25.211 9.249,25.162 9.431,25.162 C9.602,25.162 9.773,25.206 9.927,25.294 C10.727,25.75 11.587,26.108 12.486,26.356 C12.851,26.456 13.128,26.753 13.201,27.124 C13.419,28.216 14.386,29.008 15.5,29.008 C16.614,29.008 17.581,28.216 17.799,27.124 C17.872,26.753 18.149,26.456 18.514,26.356 C19.413,26.108 20.273,25.75 21.073,25.294 C21.391,25.112 21.78,25.118 22.092,25.309 C22.474,25.543 22.882,25.662 23.308,25.662 C24.602,25.662 25.654,24.609 25.654,23.316 C25.654,22.89 25.536,22.481 25.302,22.101 C25.111,21.789 25.105,21.399 25.286,21.082 C25.741,20.284 26.099,19.422 26.348,18.521 C26.448,18.158 26.745,17.881 27.116,17.807 C28.208,17.589 29,16.622 29,15.508 C29,14.394 28.208,13.427 27.116,13.209 C26.745,13.135 26.448,12.859 26.348,12.495 C26.099,11.595 25.741,10.733 25.286,9.934 C25.105,9.618 25.111,9.227 25.302,8.915 C25.536,8.535 25.654,8.126 25.654,7.701 C25.654,6.407 24.602,5.354 23.308,5.354 C22.882,5.354 22.474,5.473 22.092,5.707 C21.78,5.897 21.391,5.903 21.073,5.722 C20.273,5.266 19.413,4.909 18.514,4.66 C18.149,4.56 17.872,4.263 17.799,3.892 C17.581,2.801 16.614,2.008 15.5,2.008 C14.386,2.008 13.419,2.801 13.201,3.892 C13.128,4.263 12.851,4.56 12.486,4.66 C11.587,4.909 10.727,5.266 9.927,5.722 C9.608,5.903 9.219,5.897 8.908,5.707 C8.526,5.473 8.118,5.354 7.692,5.354 C6.399,5.354 5.346,6.407 5.346,7.701 C5.346,8.126 5.464,8.535 5.698,8.915 C5.889,9.227 5.896,9.618 5.714,9.934 C5.259,10.733 4.901,11.595 4.652,12.495 C4.552,12.859 4.255,13.135 3.884,13.209 C2.792,13.427 2,14.394 2,15.508 L2,15.508 Z M3.55271368e-15,15.508 C3.55271368e-15,13.655 1.183,12.022 2.889,11.414 C3.11,10.728 3.387,10.064 3.714,9.429 C3.472,8.881 3.346,8.293 3.346,7.701 C3.346,5.304 5.296,3.354 7.692,3.354 C8.284,3.354 8.872,3.48 9.42,3.722 C10.056,3.394 10.721,3.118 11.407,2.896 C12.014,1.191 13.647,0.008 15.5,0.008 C17.354,0.008 18.986,1.191 19.593,2.896 C20.279,3.118 20.944,3.394 21.58,3.722 C22.128,3.48 22.716,3.354 23.308,3.354 C25.704,3.354 27.654,5.304 27.654,7.701 C27.654,8.293 27.528,8.881 27.286,9.429 C27.613,10.064 27.89,10.728 28.111,11.414 C29.817,12.022 31,13.655 31,15.508 C31,17.361 29.817,18.994 28.111,19.602 C27.89,20.288 27.613,20.952 27.286,21.588 C27.528,22.136 27.654,22.723 27.654,23.316 C27.654,25.712 25.704,27.662 23.308,27.662 C22.716,27.662 22.128,27.536 21.58,27.294 C20.944,27.622 20.279,27.898 19.593,28.12 C18.986,29.825 17.354,31.008 15.5,31.008 C13.647,31.008 12.014,29.825 11.407,28.12 C10.721,27.898 10.056,27.622 9.42,27.294 C8.872,27.536 8.284,27.662 7.692,27.662 C5.296,27.662 3.346,25.712 3.346,23.316 C3.346,22.723 3.472,22.136 3.714,21.588 C3.387,20.952 3.11,20.288 2.889,19.602 C1.183,18.994 3.55271368e-15,17.361 3.55271368e-15,15.508 L3.55271368e-15,15.508 Z M10,29.008 L10,40.833 L14.712,36.122 C15.103,35.731 15.735,35.732 16.126,36.121 L21.047,41.035 L19.633,42.451 L15.419,38.243 L9.707,43.954 C9.516,44.146 9.26,44.247 9,44.247 C8.871,44.247 8.741,44.222 8.617,44.171 C8.243,44.016 8,43.652 8,43.247 L8,29.008 L10,29.008 Z" id="Fill-1"></path>
        </g>
        <text transform="translate(17,70)" font-size="10" fill="#d6242d" font-family="Amazon Ember, Helvetica, Arial, sans-serif" font-weight="bold">
            <tspan x="1em" dy="1em">SigningProfile</tspan>
        </text>  
    </g>
</svg>