<?xml version="1.0" encoding="UTF-8"?>
<svg width="80px" height="80px" viewBox="0 0 80 80" version="1.1" xmlns="http://www.w3.org/2000/svg" xmlns:xlink="http://www.w3.org/1999/xlink">
    <title>Icon-Architecture/64/Arch_Amazon-Lookout-for-Vision_64</title>
    <g id="Icon-Architecture/64/Arch_Amazon-Lookout-for-Vision_64" stroke="none" stroke-width="1" fill="none" fill-rule="evenodd">
        <g id="Icon-Architecture-BG/64/Machine-Learning" fill="#01A88D">
            <rect id="Rectangle" x="0" y="0" width="80" height="80"></rect>
        </g>
        <g id="Icon-Service/64/Amazon-Lookout-for-Vision_64" transform="translate(12.000000, 12.000000)" fill="#FFFFFF">
            <path d="M7.095,9.664 C7.095,8.248 8.245,7.097 9.66,7.097 C11.075,7.097 12.227,8.248 12.227,9.664 C12.227,11.08 11.075,12.231 9.66,12.231 C8.245,12.231 7.095,11.08 7.095,9.664 L7.095,9.664 Z M14.227,9.664 C14.227,7.145 12.178,5.097 9.66,5.097 C7.143,5.097 5.095,7.145 5.095,9.664 C5.095,12.183 7.143,14.231 9.66,14.231 C12.178,14.231 14.227,12.183 14.227,9.664 L14.227,9.664 Z M47.878,52 C45.053,52 42.755,49.702 42.755,46.875 C42.755,44.049 45.053,41.75 47.878,41.75 C50.702,41.75 53,44.049 53,46.875 C53,49.702 50.702,52 47.878,52 L47.878,52 Z M29.529,25.443 C31.224,25.443 32.604,26.823 32.604,28.519 C32.604,30.216 31.224,31.597 29.529,31.597 C27.833,31.597 26.453,30.216 26.453,28.519 C26.453,26.823 27.833,25.443 29.529,25.443 L29.529,25.443 Z M25.29,25.741 C24.764,26.54 24.453,27.493 24.453,28.519 C24.453,31.319 26.73,33.597 29.529,33.597 C32.327,33.597 34.604,31.319 34.604,28.519 C34.604,25.72 32.327,23.443 29.529,23.443 C28.479,23.443 27.502,23.764 26.692,24.312 L22.08,20.139 C24.065,18.372 26.669,17.289 29.529,17.289 C35.719,17.289 40.755,22.327 40.755,28.519 C40.755,34.712 35.719,39.75 29.529,39.75 C23.338,39.75 18.302,34.712 18.302,28.519 C18.302,25.906 19.206,23.504 20.708,21.594 L25.29,25.741 Z M29.529,53 C16.034,53 5.057,42.018 5.057,28.519 C5.057,25.188 5.718,21.974 7.007,18.948 C7.851,19.19 8.74,19.328 9.66,19.328 C11.981,19.328 14.113,18.503 15.781,17.134 L19.222,20.248 C17.399,22.516 16.302,25.39 16.302,28.519 C16.302,35.815 22.236,41.75 29.529,41.75 C36.822,41.75 42.755,35.815 42.755,28.519 C42.755,21.224 36.822,15.289 29.529,15.289 C26.082,15.289 22.949,16.625 20.593,18.793 L17.186,15.708 C18.518,14.052 19.321,11.951 19.321,9.664 C19.321,8.565 19.127,7.513 18.788,6.528 C22.143,4.882 25.751,4.039 29.529,4.039 C33.575,4.039 37.553,5.053 41.092,6.954 C41.04,7.296 41.005,7.644 41.005,8 C41.005,11.86 44.144,15 48.002,15 C48.61,15 49.197,14.914 49.759,14.768 C52.528,18.832 54,23.571 54,28.519 C54,32.707 52.921,36.802 50.897,40.432 C49.979,39.999 48.958,39.75 47.878,39.75 C43.95,39.75 40.755,42.947 40.755,46.875 C40.755,47.956 41.004,48.977 41.436,49.895 C37.808,51.921 33.715,53 29.529,53 L29.529,53 Z M2,9.664 C2,5.438 5.437,2 9.66,2 C13.884,2 17.321,5.438 17.321,9.664 C17.321,13.89 13.884,17.328 9.66,17.328 C5.437,17.328 2,13.89 2,9.664 L2,9.664 Z M48.002,3.001 C50.758,3.001 53,5.244 53,8 C53,10.757 50.758,13 48.002,13 C45.246,13 43.005,10.757 43.005,8 C43.005,5.244 45.246,3.001 48.002,3.001 L48.002,3.001 Z M52.572,41.531 C54.809,37.573 56,33.097 56,28.519 C56,23.3 54.481,18.298 51.63,13.975 C53.647,12.745 55,10.531 55,8 C55,4.141 51.861,1.001 48.002,1.001 C45.216,1.001 42.813,2.642 41.688,5.005 C37.946,3.068 33.772,2.039 29.529,2.039 C25.516,2.039 21.528,2.97 17.944,4.717 C16.254,1.897 13.178,0 9.66,0 C4.334,0 0,4.335 0,9.664 C0,13.363 2.091,16.58 5.151,18.204 C3.767,21.467 3.057,24.931 3.057,28.519 C3.057,43.121 14.932,55 29.529,55 C34.105,55 38.578,53.808 42.534,51.571 C43.84,53.057 45.749,54 47.878,54 C51.805,54 55,50.804 55,46.875 C55,44.746 54.057,42.837 52.572,41.531 L52.572,41.531 Z" id="Fill-1"></path>
        </g>
        <text transform="translate(17,70)" font-size="10" fill="#d6242d" font-family="Amazon Ember, Helvetica, Arial, sans-serif" font-weight="bold">
            <tspan x="1em" dy="1em">Project</tspan>
        </text>
    </g>
</svg>