<svg xmlns="http://www.w3.org/2000/svg" viewBox="0 0 75 75">
    <defs>
        <style>
            .cls-2{fill:#3b48cc}
        </style>
    </defs>
    <title>
        AWS-CodeStar_light-bg
    </title>
    <g id="Reference">
        <rect id="Blue_Light_BG" data-name="Blue Light BG" width="75" height="75" style="fill:transparent"/>
        <g id="Product_Icon" data-name="Product Icon">
            <path class="cls-2" d="M31.8,41.59,27.4,37.3a1,1,0,0,1,.1-1.49l4.91-3.69,1.18,1.57-4,3,3.58,3.5Z"/>
            <path class="cls-2" d="M42.38,42.28l-1.17-1.57,4-3-3.58-3.5L43,32.81l4.4,4.29a1,1,0,0,1-.1,1.49Z"/>
            <rect class="cls-2" x="29.55" y="36.89" width="15.6" height="1.96" transform="translate(-12.34 56.83) rotate(-66.28)"/>
            <path class="cls-2" d="M48.5,17.51v2.35L46,19a5.88,5.88,0,0,0,.11-1.11,5.38,5.38,0,1,0-.87,2.93l4,1.33a.76.76,0,0,0,.33.05,1,1,0,0,0,.58-.18,1,1,0,0,0,.42-.8V17.51Zm-7.82,3.82a3.44,3.44,0,1,1,3.43-3.43A3.44,3.44,0,0,1,40.68,21.33Z"/>
            <path class="cls-2" d="M30,18.88a1,1,0,0,0-.48-.76l-3.24-1.86-1,1.69,2.05,1.19-1.87,1.62a4.88,4.88,0,0,0-.7-.49,5.28,5.28,0,0,0-4.09-.54,5.39,5.39,0,0,0,1.38,10.6,5.68,5.68,0,0,0,1.41-.18,5.4,5.4,0,0,0,3.81-6.61,5.11,5.11,0,0,0-.54-1.3l2.92-2.53A1,1,0,0,0,30,18.88Zm-5,7.77A3.37,3.37,0,0,1,23,28.26a3.47,3.47,0,0,1-2.6-.36,3.34,3.34,0,0,1-1.6-2.07,3.43,3.43,0,0,1,2.43-4.21,3.34,3.34,0,0,1,.89-.11,3.4,3.4,0,0,1,3.31,2.54A3.43,3.43,0,0,1,25.08,26.65Z"/>
            <path class="cls-2" d="M23.6,41.84a5.42,5.42,0,0,0-3.28-2.51,5.54,5.54,0,0,0-1.4-.18l-.73-3.8a1,1,0,0,0-.56-.7,1,1,0,0,0-.9.05L13.5,36.57l1,1.7,2-1.19L17,39.52a4,4,0,0,0-.76.36,5.38,5.38,0,0,0-2,7.35,5.39,5.39,0,0,0,3.27,2.53,5.67,5.67,0,0,0,1.41.17,5.24,5.24,0,0,0,2.68-.72,5.39,5.39,0,0,0,2-7.37Zm-1.36,3.59A3.41,3.41,0,0,1,18,47.85,3.38,3.38,0,0,1,16,46.26a3.45,3.45,0,0,1-.35-2.61,3.47,3.47,0,0,1,3.31-2.54,4,4,0,0,1,.9.11,3.43,3.43,0,0,1,2.08,1.61A3.37,3.37,0,0,1,22.24,45.43Z"/>
            <path class="cls-2" d="M34.31,51.71a5.39,5.39,0,0,0-4.52,2.47l-4-1.35a1,1,0,0,0-1.33.94v3.74h2V55.14L29,56a5.1,5.1,0,0,0-.12,1.11,5.39,5.39,0,1,0,5.39-5.39Zm0,8.82a3.43,3.43,0,1,1,3.43-3.43A3.44,3.44,0,0,1,34.31,60.53Z"/>
            <path class="cls-2" d="M55.58,45.4a5.38,5.38,0,0,0-7.9,6.06,5.26,5.26,0,0,0,.54,1.3l-2.93,2.53a1,1,0,0,0-.33.83,1,1,0,0,0,.48.77l3.25,1.87,1-1.71-2.05-1.17,1.88-1.64a4.24,4.24,0,0,0,.69.48,5.26,5.26,0,0,0,4.09.55,5.33,5.33,0,0,0,3.27-2.51A5.39,5.39,0,0,0,55.58,45.4Zm.27,6.37a3.3,3.3,0,0,1-3,1.71A3.44,3.44,0,0,1,51.17,53a3.43,3.43,0,0,1-1.26-4.69,3.43,3.43,0,1,1,5.94,3.43Z"/>
            <path class="cls-2" d="M60.52,36.73l-2.05,1.19L58,35.48a4,4,0,0,0,.76-.36,5.39,5.39,0,1,0-7.36-2,5.33,5.33,0,0,0,3.27,2.51,5.6,5.6,0,0,0,1.4.18l.73,3.81a1,1,0,0,0,.56.69,1,1,0,0,0,.41.09.9.9,0,0,0,.49-.13l3.24-1.87Zm-5.34-3a3.43,3.43,0,1,1,3.86-5,3.43,3.43,0,0,1-1.26,4.68A3.34,3.34,0,0,1,55.18,33.77Z"/>
        </g>
    </g>
</svg>
