<svg xmlns="http://www.w3.org/2000/svg" width="100" height="100" viewBox="0 0 75 75">
    <title>
        AWS-Identity-and-Access-Management-IAM_Permissions_light-bg
    </title>
    <g id="Working" transform="scale(1.2) translate(0, 10)">
        <path style="fill:#d86613" d="M41,48.5H9a2.81,2.81,0,0,1-2.8-2.81V4.31A2.81,2.81,0,0,1,9,1.5H41a2.81,2.81,0,0,1,2.8,2.81V45.69A2.81,2.81,0,0,1,41,48.5ZM9,3.5a.8.8,0,0,0-.8.81V45.69a.8.8,0,0,0,.8.81H41a.8.8,0,0,0,.8-.81V4.31A.8.8,0,0,0,41,3.5Z"/>
        <rect style="fill:#d86613" x="15.09" y="31.69" width="2" height="11.93" transform="translate(-21.91 22.41) rotate(-45)"/>
        <rect style="fill:#d86613" x="10.13" y="36.66" width="11.93" height="2" transform="translate(-21.91 22.41) rotate(-45)"/>
        <path style="fill:#d86613" d="M14.69,15.69a1,1,0,0,1-.71-.3l-3.75-3.75,1.41-1.41,3,3,6.79-6.79,1.41,1.41-7.5,7.5A1,1,0,0,1,14.69,15.69Z"/>
        <path style="fill:#d86613" d="M14.69,27.88a1,1,0,0,1-.71-.3l-3.75-3.75,1.41-1.41,3,3,6.79-6.79,1.41,1.41-7.5,7.5A1,1,0,0,1,14.69,27.88Z"/>
    </g>
    <style type="text/css">
        .st4{fill:#1d8102}
    </style>
    <g id="grid_x5F_locked"/>
    <g id="icon">
        <g transform="translate(52,0)">
            <path class="st4" d="M8,0C3.6,0,0,3.6,0,8s3.6,8,8,8s8-3.6,8-8S12.4,0,8,0z M8,14c-3.3,0-6-2.7-6-6s2.7-6,6-6s6,2.7,6,6
			S11.3,14,8,14z"/>
            <polygon class="st4" points="7,8.6 5,6.6 3.6,8 7,11.4 11.9,6.5 10.5,5.1 		"/>
        </g>
    </g>
</svg>
