<svg xmlns="http://www.w3.org/2000/svg" viewBox="0 0 75 75">
    <defs>
        <style>
            .cls-2{fill:#3b48cc}
        </style>
    </defs>
    <title>
        AWS-CodeDeploy_light-bg
    </title>
    <g id="Reference">
        <rect id="Blue_Light_BG" data-name="Blue Light BG" width="75" height="75" style="fill:transparent"/>
        <g id="Product_Icon" data-name="Product Icon">
            <path class="cls-2" d="M45.5,38.18a1,1,0,0,1-1-.91V37c-.14-1.3-.65-1.79-1.68-2.77l-.32-.31a7.17,7.17,0,0,0-5-2c-3.11,0-6.58,1.33-7,5.07v.29a1,1,0,0,1-2,0c-.1-1.48-.69-2.05-1.87-3.19l-.13-.14a7.17,7.17,0,0,0-5-2c-3.81,0-6.54,1.93-7,4.91a1,1,0,0,1-2-.18,24.71,24.71,0,0,1,25-24.14c14,0,24.75,10.38,25,24.16v.1a1,1,0,0,1-1,1h0a1,1,0,0,1-1-1v-.07c0-.83-.82-1.65-2-2.8a7.11,7.11,0,0,0-5-2c-3.07,0-6.74,1.4-7,5.33a1,1,0,0,1-1,.93Zm-24-8.26a9.11,9.11,0,0,1,6.37,2.58l.16.15a13.82,13.82,0,0,1,1.34,1.42C30.77,31.5,33.72,30,37.51,30a9.1,9.1,0,0,1,6.37,2.55l.31.3a12.11,12.11,0,0,1,1.21,1.27c1.41-2.57,4.37-4.15,8.1-4.15a9.11,9.11,0,0,1,6.38,2.58l.21.2C58.09,22.07,49,14.5,37.5,14.5A22.64,22.64,0,0,0,15.16,31.93,10,10,0,0,1,21.5,29.92Z"/>
            <rect class="cls-2" x="17.02" y="34.29" width="2" height="10.67" transform="translate(-25.02 33.11) rotate(-56.94)"/>
            <rect class="cls-2" x="52.66" y="38.55" width="9.72" height="2" transform="translate(-12.28 39.96) rotate(-34.85)"/>
            <path class="cls-2" d="M45.44,41.76l-1.94-.53,1-4.2v-1c0-12.71-3.66-21.56-7-21.56s-7,8.86-7,21.57V37l1,4.21-1.93.53-1-4.32V36C28.5,20.75,33.14,12.5,37.5,12.5s9,8.26,9,23.57v.69a3.38,3.38,0,0,0,0,.45.33.33,0,0,1,0,.14.38.38,0,0,1,0,.15Z"/>
            <path class="cls-2" d="M33.17,56.25,29.5,52.64a1,1,0,0,1-.3-.78,1,1,0,0,1,.4-.73L33.74,48l1.2,1.6L31.74,52l2.86,2.79Z"/>
            <path class="cls-2" d="M42.31,56.84l-1.2-1.6,3.21-2.4L41.5,50.05l1.4-1.43,3.7,3.61a1,1,0,0,1-.1,1.52Z"/>
            <rect class="cls-2" x="31.41" y="52" width="13.11" height="2" transform="translate(-25.85 66.36) rotate(-66.21)"/>
            <path class="cls-2" d="M50.5,62.5h-25a1,1,0,0,1-1-1v-17a1,1,0,0,1,1-1h25a1,1,0,0,1,1,1v17A1,1,0,0,1,50.5,62.5Zm-24-2h23v-15h-23Z"/>
        </g>
    </g>
</svg>
