<svg xmlns="http://www.w3.org/2000/svg" width="100" height="100"  viewBox="0 0 75 75">
    <defs>
        <style>
            .cls-1{fill:#d86613}
        </style>
    </defs>
    <title>
        AWS-Lambda_Lambda-Function_light-bg
    </title>
    <g id="Working" transform="translate(0,10) scale(1.25)">
        <path class="cls-1" d="M39.06,39.12H31.47a1,1,0,0,1-.91-.57L19.92,15.69h-4.3a1,1,0,0,1-1-1V8.12a1,1,0,0,1,1-1h9.49A1,1,0,0,1,26,7.7L36.62,30.56h2.44a1,1,0,0,1,1,1v6.56A1,1,0,0,1,39.06,39.12Zm-7-2h6V32.56H36a1,1,0,0,1-.91-.58L24.48,9.12H16.63v4.57h3.93a1,1,0,0,1,.91.58Z"/>
        <path class="cls-1" d="M18.43,39.12H10.31a1,1,0,0,1-.9-1.43L17.9,19.91a1,1,0,0,1,.9-.57h0a1,1,0,0,1,.9.56l4.07,8.4a1,1,0,0,1,0,.86l-4.44,9.39A1,1,0,0,1,18.43,39.12Zm-6.53-2h5.89l4-8.38-3-6.09Z"/>
        <path class="cls-1" d="M25,48.5A23.5,23.5,0,1,1,48.5,25,23.52,23.52,0,0,1,25,48.5Zm0-45A21.5,21.5,0,1,0,46.5,25,21.53,21.53,0,0,0,25,3.5Z"/>
    </g>
    <style type="text/css">
        .st4{fill:#d13212}
    </style>
    <g id="grid_x5F_locked"/>
    <g id="icon">
        <g transform="translate(55,2)">
            <path class="st4" d="M13.7,2.3C12.1,0.8,10.1,0,8,0S3.9,0.8,2.3,2.3C0.8,3.9,0,5.9,0,8s0.8,4.1,2.3,5.7C3.9,15.2,5.9,16,8,16
			s4.1-0.8,5.7-2.3C15.2,12.1,16,10.1,16,8S15.2,3.9,13.7,2.3z M12.2,12.2C11.1,13.4,9.6,14,8,14s-3.1-0.6-4.2-1.8S2,9.6,2,8
			s0.6-3.1,1.8-4.2S6.4,2,8,2s3.1,0.6,4.2,1.8S14,6.4,14,8S13.4,11.1,12.2,12.2z"/>
            <polygon class="st4" points="10.1,4.5 8,6.6 5.9,4.5 4.5,5.9 6.6,8 4.5,10.1 5.9,11.5 8,9.4 10.1,11.5 11.5,10.1 9.4,8 11.5,5.9 
					"/>
        </g>
    </g>
</svg>
