<svg xmlns="http://www.w3.org/2000/svg" width="75" height="75" viewBox="0 0 75 75">
    <title>AWS-Identity-and-Access-Management-IAM_Role_light-bg</title>
    <g id="Icon-Resource/Compute/Res_Amazon-EC2_Instance_48" transform="scale(1.5)" stroke="none" stroke-width="1" fill="none" fill-rule="evenodd">
        <path d="M9,39 L39,39 L39,9 L9,9 L9,39 Z M46,13 L46,11 L41,11 L41,8 C41,7.448 40.552,7 40,7 L37,7 L37,2 L35,2 L35,7 L31,7 L31,2 L29,2 L29,7 L25,7 L25,2 L23,2 L23,7 L19,7 L19,2 L17,2 L17,7 L13,7 L13,2 L11,2 L11,7 L8,7 C7.447,7 7,7.448 7,8 L7,11 L2,11 L2,13 L7,13 L7,17 L2,17 L2,19 L7,19 L7,23 L2,23 L2,25 L7,25 L7,29 L2,29 L2,31 L7,31 L7,35 L2,35 L2,37 L7,37 L7,40 C7,40.553 7.447,41 8,41 L11,41 L11,46 L13,46 L13,41 L17,41 L17,46 L19,46 L19,41 L23,41 L23,46 L25,46 L25,41 L29,41 L29,46 L31,46 L31,41 L35,41 L35,46 L37,46 L37,41 L40,41 C40.552,41 41,40.553 41,40 L41,37 L46,37 L46,35 L41,35 L41,31 L46,31 L46,29 L41,29 L41,25 L46,25 L46,23 L41,23 L41,19 L46,19 L46,17 L41,17 L41,13 L46,13 Z" id="Amazon-EC2-Instance_Resource-Icon_light-bg" fill="#ED7100"></path>
    </g>
    <g id="Working" transform="scale(0.725) translate(24, 24)">
        <path style="fill:#d6242d" d="M7.94,31.62c0-.28,0-.55,0-.83a19.8,19.8,0,0,1,39.55-1.35l-2,.13A17.8,17.8,0,0,0,9.92,30.79c0,.25,0,.5,0,.75Z"/>
        <path style="fill:#d6242d" d="M8.73,32.22c0-.34,0-1.11,0-1.31a16.49,16.49,0,0,1,6.55-13.07l.1-.07a18.34,18.34,0,0,1,9.3-2.51A17.61,17.61,0,0,1,41.73,27.69l-1.92.54a15.6,15.6,0,0,0-15.16-11,16.33,16.33,0,0,0-8.23,2.2A14.48,14.48,0,0,0,10.7,30.91c0,.2,0,.94,0,1.26Z"/>
        <path style="fill:#d6242d" d="M10.05,37.83l-.27-2a11.65,11.65,0,0,0,5-1.67c3.31-2.4,10.31-3.26,14.09-3a23.81,23.81,0,0,1,7.06,2.22A17.59,17.59,0,0,0,39,34.57,29,29,0,0,0,44,34.29l.17,0c.59-.06,1.17-.12,1.73-.16l.56,0V30.52l-.21,0-1.8.17-1.36.12-.15-2,1.34-.11,1.77-.17.46-.05a1.73,1.73,0,0,1,2,1.72v4.09A1.74,1.74,0,0,1,46.88,36h-.14l-.62.05-1.7.16-.18,0a28.57,28.57,0,0,1-5.54.27,16.54,16.54,0,0,1-3.58-1.29A22.25,22.25,0,0,0,28.7,33.2c-3.4-.26-9.89.51-12.76,2.6A13.61,13.61,0,0,1,10.05,37.83ZM46.74,34Z"/>
        <path style="fill:#d6242d" d="M37.37,30.78c-.57-.17-1.2-.41-1.93-.69a18.5,18.5,0,0,0-7.73-1.65c-4.86.29-7.22.57-9,1.08l-.56-1.92c2-.56,4.42-.86,9.45-1.15a20.24,20.24,0,0,1,8.56,1.77c.68.27,1.28.49,1.76.63Z"/>
        <path style="fill:#d6242d" d="M7.4,38c-2.14,0-4.25-.39-5.34-1.48A1.7,1.7,0,0,1,1.53,35c.24-1.27,1.87-2,4.14-3,1-.41,1.93-.84,2.79-1.31l1,1.75c-.94.52-2,1-2.95,1.4a18.94,18.94,0,0,0-2.82,1.4c.9.63,3.16,1,6.13.59l.27,2A20.68,20.68,0,0,1,7.4,38Z"/>
        <path style="fill:#d6242d" d="M42.35,32.56h-4a1.71,1.71,0,0,1-1.7-1.71V28.66a1.7,1.7,0,0,1,1.7-1.7h4a1.7,1.7,0,0,1,1.7,1.7v2.19A1.71,1.71,0,0,1,42.35,32.56Zm-3.7-2h3.4V29h-3.4Z"/>
        <path style="fill:#d6242d" d="M16.49,35.28a13,13,0,0,1-8.22-3L9.6,30.83a11,11,0,0,0,7,2.45Z"/>
    </g>
</svg>