<svg xmlns="http://www.w3.org/2000/svg" width="100" height="100" viewBox="0 0 75 75">
    <title>
        AWS-Identity-and-Access-Management-IAM_Permissions_light-bg
    </title>
    <g id="Working" transform="scale(1.25) translate(0,10)">
        <path style="fill:#d86613" d="M41,48.5H9a2.81,2.81,0,0,1-2.8-2.81V4.31A2.81,2.81,0,0,1,9,1.5H41a2.81,2.81,0,0,1,2.8,2.81V45.69A2.81,2.81,0,0,1,41,48.5ZM9,3.5a.8.8,0,0,0-.8.81V45.69a.8.8,0,0,0,.8.81H41a.8.8,0,0,0,.8-.81V4.31A.8.8,0,0,0,41,3.5Z"/>
        <rect style="fill:#d86613" x="15.09" y="31.69" width="2" height="11.93" transform="translate(-21.91 22.41) rotate(-45)"/>
        <rect style="fill:#d86613" x="10.13" y="36.66" width="11.93" height="2" transform="translate(-21.91 22.41) rotate(-45)"/>
        <path style="fill:#d86613" d="M14.69,15.69a1,1,0,0,1-.71-.3l-3.75-3.75,1.41-1.41,3,3,6.79-6.79,1.41,1.41-7.5,7.5A1,1,0,0,1,14.69,15.69Z"/>
        <path style="fill:#d86613" d="M14.69,27.88a1,1,0,0,1-.71-.3l-3.75-3.75,1.41-1.41,3,3,6.79-6.79,1.41,1.41-7.5,7.5A1,1,0,0,1,14.69,27.88Z"/>
    </g>
    <style type="text/css">
        .st4{fill:#d13212}
    </style>
    <g id="grid_x5F_locked"/>
    <g id="icon">
        <g transform="translate(52,0)">
            <path class="st4" d="M13.7,2.3C12.1,0.8,10.1,0,8,0S3.9,0.8,2.3,2.3C0.8,3.9,0,5.9,0,8s0.8,4.1,2.3,5.7C3.9,15.2,5.9,16,8,16
			s4.1-0.8,5.7-2.3C15.2,12.1,16,10.1,16,8S15.2,3.9,13.7,2.3z M12.2,12.2C11.1,13.4,9.6,14,8,14s-3.1-0.6-4.2-1.8S2,9.6,2,8
			s0.6-3.1,1.8-4.2S6.4,2,8,2s3.1,0.6,4.2,1.8S14,6.4,14,8S13.4,11.1,12.2,12.2z"/>
            <polygon class="st4" points="10.1,4.5 8,6.6 5.9,4.5 4.5,5.9 6.6,8 4.5,10.1 5.9,11.5 8,9.4 10.1,11.5 11.5,10.1 9.4,8 11.5,5.9 
					"/>
        </g>
    </g>
</svg>
