<svg xmlns="http://www.w3.org/2000/svg" width="75" height="75" viewBox="0 0 75 75">
    <title>AWS-AutoScaling-ScalingPolicy</title>
    <g id="Working" transform="scale(1.5)">
        <path style="fill:#d86613" d="M41,48.5H9a2.81,2.81,0,0,1-2.8-2.81V4.31A2.81,2.81,0,0,1,9,1.5H41a2.81,2.81,0,0,1,2.8,2.81V45.69A2.81,2.81,0,0,1,41,48.5ZM9,3.5a.8.8,0,0,0-.8.81V45.69a.8.8,0,0,0,.8.81H41a.8.8,0,0,0,.8-.81V4.31A.8.8,0,0,0,41,3.5Z"/>
        <rect style="fill:#d86613" x="15.09" y="31.69" width="2" height="11.93" transform="translate(-21.91 22.41) rotate(-45)"/>
        <rect style="fill:#d86613" x="10.13" y="36.66" width="11.93" height="2" transform="translate(-21.91 22.41) rotate(-45)"/>
        <path style="fill:#d86613" d="M14.69,15.69a1,1,0,0,1-.71-.3l-3.75-3.75,1.41-1.41,3,3,6.79-6.79,1.41,1.41-7.5,7.5A1,1,0,0,1,14.69,15.69Z"/>
        <path style="fill:#d86613" d="M14.69,27.88a1,1,0,0,1-.71-.3l-3.75-3.75,1.41-1.41,3,3,6.79-6.79,1.41,1.41-7.5,7.5A1,1,0,0,1,14.69,27.88Z"/>
    </g>
    <defs>
        <style>
            .cls-2{fill:#d86613}
        </style>
    </defs>    
    <g id="Working" transform="scale(0.75) translate(38, 25)">
        <rect width="35" height="35" style="fill:none"/>
        <polygon class="cls-2" transform="scale(1.5)" points="12.3 14.83 11.59 15.54 13.05 17 5 17 5 18 13.05 18 11.59 19.46 12.3 20.17 14.97 17.5 12.3 14.83"/>
        <polygon class="cls-2" transform="scale(1.5)" points="30 17 21.95 17 23.41 15.54 22.7 14.83 20.03 17.5 22.7 20.17 23.41 19.46 21.95 18 30 18 30 17"/>
        <polygon class="cls-2" transform="scale(1.5)" points="17 6.64 17 14.69 18 14.69 18 6.64 19.46 8.1 20.17 7.39 17.5 4.72 14.83 7.39 15.54 8.1 17 6.64"/>
        <polygon class="cls-2" transform="scale(1.5)" points="18 28.36 18 20.31 17 20.31 17 28.36 15.54 26.9 14.83 27.61 17.5 30.28 20.17 27.61 19.46 26.9 18 28.36"/>
    </g>
</svg>