<svg xmlns="http://www.w3.org/2000/svg" width="50" height="50" viewBox="0 0 50 50"><defs><style>.cls-1{fill:#d6242d;}</style></defs><title>AWS-Identity-and-Access-Management-IAM_Data-Encryption-Key_light-bg</title><g id="Working"><path class="cls-1" d="M41,48.5H9a2.81,2.81,0,0,1-2.8-2.81V4.31A2.81,2.81,0,0,1,9,1.5H41a2.81,2.81,0,0,1,2.8,2.81V45.69A2.81,2.81,0,0,1,41,48.5ZM9,3.5a.8.8,0,0,0-.8.81V45.69a.8.8,0,0,0,.8.81H41a.8.8,0,0,0,.8-.81V4.31A.8.8,0,0,0,41,3.5Z"/><path class="cls-1" d="M16.58,31.62a1,1,0,0,1-.65-.24L14.09,29.8a1,1,0,0,1-.35-.76V18.36a7.08,7.08,0,1,1,5.69,0v.76l1.29,1.3a1,1,0,0,1,0,1.41l-1.29,1.29v.23l1.29,1.29a1,1,0,0,1,0,1.41l-1.29,1.29v1.17a1,1,0,0,1-.24.66l-1.85,2.11A1,1,0,0,1,16.58,31.62Zm-.84-3,.74.64.95-1.08V26.93a1,1,0,0,1,.3-.71l.87-.87-.87-.88a1,1,0,0,1-.3-.71V22.71a1,1,0,0,1,.3-.71l.87-.88-.87-.87a1,1,0,0,1-.3-.71V17.66a1,1,0,0,1,.7-.95,5.08,5.08,0,1,0-3.09,0,1,1,0,0,1,.7.95Zm.84-15.7A2.85,2.85,0,1,1,19.43,10,2.84,2.84,0,0,1,16.58,12.88Zm0-3.69a.85.85,0,1,0,.85.85A.85.85,0,0,0,16.58,9.19Z"/><path class="cls-1" d="M39.06,44.75H22.19a1,1,0,0,1-1-1v-14a1,1,0,0,1,.29-.71,1,1,0,0,1,.71-.29H39.06a1,1,0,0,1,.71.3,1,1,0,0,1,.29.7V43.75A1,1,0,0,1,39.06,44.75Zm-15.87-2H38.06V30.69H23.19Z"/><path class="cls-1" d="M36.3,29.81h-2V26a3.87,3.87,0,0,0-3.66-4h0a3.86,3.86,0,0,0-3.69,4l0,3.89h-2l0-3.88a5.86,5.86,0,0,1,5.69-6h0a5.87,5.87,0,0,1,5.65,6Z"/><path class="cls-1" d="M30.63,37.86h0a2.81,2.81,0,0,1,0-5.61h0a2.81,2.81,0,0,1,0,5.61Zm0-3.61a.81.81,0,0,0,0,1.61h0a.79.79,0,0,0,.8-.81h0a.81.81,0,0,0-.23-.57.83.83,0,0,0-.57-.23Z"/><rect class="cls-1" x="29.63" y="36.52" width="2" height="4.22"/></g></svg>