<svg xmlns="http://www.w3.org/2000/svg" viewBox="0 0 50 50">
    <defs>
        <style>
            .cls-1{fill:transparent}
        </style>
    </defs>
    <title>
        AWS-Shield_Shield-Advanced_light-bg
    </title>
    <g id="Working">
        <path style="fill:#d6242d" class="cls-1" d="M20.67,45.92c-17,0-17.15-18.06-17.15-18.24V8.09L20.67,1,37.82,8.09V27.73a19.06,19.06,0,0,1-.2,2.43l-2-.28a17.1,17.1,0,0,0,.18-2.15V9.43L20.67,3.17,5.52,9.43V27.68c0,.66.21,16.24,15.15,16.24a16.3,16.3,0,0,0,6.56-1.25L28,44.5A18.27,18.27,0,0,1,20.67,45.92Z"/>
        <rect style="fill:#d6242d" class="cls-1" x="19.67" y="9.42" width="2" height="29.47"/>
        <path style="fill:#d6242d" class="cls-1" d="M20.67,39.9c-3.8,0-7-2-9.24-5.91a20.64,20.64,0,0,1-2.22-5.72V12.9L20.67,8.35,32.15,12.9l0,15.37A20.43,20.43,0,0,1,29.92,34C27.67,37.85,24.47,39.9,20.67,39.9ZM11.2,28c.21,1,2.4,9.93,9.47,9.93S29.93,29,30.15,28V14.25L20.67,10.5,11.2,14.25Z"/>
        <path style="fill:#d6242d" class="cls-1" d="M37.86,48.92a8.62,8.62,0,1,1,8.62-8.62A8.63,8.63,0,0,1,37.86,48.92Zm0-15.24a6.62,6.62,0,1,0,6.62,6.62A6.63,6.63,0,0,0,37.86,33.68Z"/>
        <rect style="fill:#d6242d" class="cls-1" x="36.86" y="35.54" width="2" height="9.52"/>
        <rect style="fill:#d6242d" class="cls-1" x="33.1" y="39.3" width="9.52" height="2"/>
    </g>
</svg>
