<?xml version="1.0" encoding="utf-8"?>
<!-- Generator: Adobe Illustrator 21.0.0, SVG Export Plug-In . SVG Version: 6.00 Build 0)  -->
<svg version="1.1" id="Layer_1" xmlns="http://www.w3.org/2000/svg" xmlns:xlink="http://www.w3.org/1999/xlink" x="0px" y="0px"
	 viewBox="0 0 75 75" style="enable-background:new 0 0 75 75;" xml:space="preserve">
<style type="text/css">
	.st0{fill:#CC2264;}
	.st1{fill:#FFFFFF;}
</style>
<title>AWS-Organizations_light-bg</title>
<rect id="Pink_Light_BG" class="st0" width="75" height="75"/>
<path class="st1" d="M61.5,50.5h-4v-5c0-0.6-0.4-1-1-1h-18v-3h-2v3h-18c-0.6,0-1,0.4-1,1v5h-4c-0.6,0-1,0.4-1,1v10c0,0.6,0.4,1,1,1
	h10c0.6,0,1-0.4,1-1v-10c0-0.6-0.4-1-1-1h-4v-4h17v4h-4c-0.6,0-1,0.4-1,1v10c0,0.6,0.4,1,1,1h10c0.6,0,1-0.4,1-1v-10
	c0-0.6-0.4-1-1-1h-4v-4h17v4h-4c-0.6,0-1,0.4-1,1v10c0,0.6,0.4,1,1,1h10c0.6,0,1-0.4,1-1v-10C62.5,50.9,62.1,50.5,61.5,50.5z
	 M22.5,52.5v8h-8v-8H22.5z M41.5,52.5v8h-8v-8H41.5z M60.5,60.5h-8v-8h8V60.5z"/>
<path class="st1" d="M54.6,21c-0.6-4.5-3.6-6.6-6.3-6.6c-1.3,0-2.6,0.5-3.7,1.3c-0.7-1.6-1.7-3.1-3-4.4c-3.8-4-9.7-5.2-14.8-2.9
	c-4.7,2.2-7.7,6.9-7.8,12.1c0,0.3,0,0.5,0,0.8c-4,1.2-6.7,5-6.5,9.2c-0.1,3.6,1.8,7,4.9,8.9c0.9,0.6,2,0.9,3.1,0.9h9.9h1.1h20.6
	c3.5,0,5.6-1.3,5.6-1.3c3.1-1.6,4.9-4.9,4.7-8.4C62.5,23.7,57.2,21.6,54.6,21z M56.8,37.2c-2,1.2-4.6,1.1-4.6,1.1H31.5h-1.1h-9.9
	c-0.7,0-1.5-0.2-2.1-0.6c-2.5-1.5-4-4.3-3.9-7.2c-0.2-3.6,2.3-6.8,5.8-7.5c0.5-0.1,0.9-0.6,0.8-1.1C21,21.4,21,20.9,21,20.5
	c0.1-4.4,2.7-8.3,6.6-10.2c4.3-1.9,9.3-0.9,12.5,2.5c1.4,1.5,2.5,3.2,3.1,5.1c0.1,0.3,0.4,0.6,0.8,0.7c0.4,0.1,0.7-0.1,1-0.4
	c0.7-1,1.9-1.7,3.2-1.7c2,0,4.1,1.6,4.4,5.3c0,0.3,0,0.5,0.2,0.7c0.2,0.2,0.4,0.4,0.7,0.4c2.1,0.4,7,1.8,7,7.7
	C60.6,33.3,59.2,35.9,56.8,37.2z"/>
</svg>
