<svg xmlns="http://www.w3.org/2000/svg" width="75" height="75" viewBox="0 0 75 75">
    <defs>
        <style>
            .cls-2{fill:transparent}
        </style>
    </defs>
    <title>
        AWS-WAF_light-bg
    </title>
    <g id="Reference" transform="translate(0,-10)">
        <g id="Product_Icon" data-name="Product Icon">
            <rect style="fill:#d6242d"  class="cls-2" x="54.52" y="47.03" width="2" height="16.91" transform="translate(-22.97 55.51) rotate(-45)"/>
            <rect style="fill:#d6242d"  class="cls-2" x="19.13" y="10.72" width="2" height="18.74" transform="translate(-8.31 20.12) rotate(-45)"/>
            <rect style="fill:#d6242d"  class="cls-2" x="15.05" y="54" width="9.9" height="2" transform="translate(-33.03 30.25) rotate(-45)"/>
            <rect style="fill:#d6242d"  class="cls-2" x="50.05" y="19" width="9.9" height="2" transform="translate(1.97 44.75) rotate(-45)"/>
            <path style="fill:#d6242d"  class="cls-2" d="M62.5,36.5v2h-2A22.8,22.8,0,0,1,56.15,51l-1.62-1.18A20.7,20.7,0,0,0,58.47,38.5h-2v-2h2a20.7,20.7,0,0,0-3.94-11.29L56.15,24A22.8,22.8,0,0,1,60.48,36.5Z"/>
            <path style="fill:#d6242d"  class="cls-2" d="M51,18.85l-1.18,1.62A20.7,20.7,0,0,0,38.5,16.53v2h-2v-2a20.7,20.7,0,0,0-11.29,3.94L24,18.85A22.8,22.8,0,0,1,36.5,14.52v-2h2v2A22.8,22.8,0,0,1,51,18.85Z"/>
            <path style="fill:#d6242d"  class="cls-2" d="M51,56.15A22.8,22.8,0,0,1,38.5,60.48v2h-2v-2A22.8,22.8,0,0,1,24,56.15l1.18-1.62A20.7,20.7,0,0,0,36.5,58.47v-2h2v2a20.7,20.7,0,0,0,11.29-3.94Z"/>
            <path style="fill:#d6242d"  class="cls-2" d="M16.53,38.5a20.7,20.7,0,0,0,3.94,11.29L18.85,51A22.8,22.8,0,0,1,14.52,38.5h-2v-2h2A22.8,22.8,0,0,1,18.85,24l1.62,1.18A20.7,20.7,0,0,0,16.53,36.5h2v2Z"/>
            <path style="fill:#d6242d"  class="cls-2" d="M46.54,31.19a1,1,0,0,0-.94,0,1,1,0,0,0-.54.78,13.28,13.28,0,0,1-.31,1.81,14,14,0,0,0-8-11.33,10.46,10.46,0,0,0-4.61-2,1,1,0,0,0-.81,1.75,8.57,8.57,0,0,1,2.37,8c-1.16-1.53-3-3.36-5.18-3.36a1,1,0,0,0-.82.43,1,1,0,0,0-.11.93c.58,1.49,1.73,5.94.09,8.52-.11.16-.2.32-.3.49a9.24,9.24,0,0,0,2.79,12,26.85,26.85,0,0,0,6.3,3.15,1,1,0,0,0,.34.06h.21c1.33-.12,10.38-1.29,12.23-8.47C51.81,34.2,46.76,31.31,46.54,31.19ZM35.34,49.8a23.41,23.41,0,0,1-4-2.18,7.23,7.23,0,0,1-2.19-9.41l.24-.41c1.69-2.64,1.2-6.24.67-8.42a11.79,11.79,0,0,1,3.18,3.72A1,1,0,0,0,35.08,33a11.66,11.66,0,0,0-.32-9.47,7.21,7.21,0,0,1,2.91,3.17c1.42,2.94,1.1,7-.82,10.51A18.48,18.48,0,0,0,35.34,49.8Zm12-6.33c-1.31,5.1-7.56,6.54-9.8,6.89C37,48.42,35.93,43,38.6,38.12a14.43,14.43,0,0,0,1.47-10.74c1.81,2.12,3.33,5.47,2.52,10.49a1,1,0,0,0,1.62.93,8.75,8.75,0,0,0,2.51-4.69C47.68,35.5,48.68,38.31,47.35,43.47Z"/>
        </g>
        <text transform="translate(17,70)" font-size="10" fill="#d6242d" font-family="Amazon Ember, Helvetica, Arial, sans-serif" font-weight="bold">
            <tspan x="1em" dy="1em">Rule</tspan>
        </text>
    </g>
</svg>
