<svg xmlns="http://www.w3.org/2000/svg" width="75" height="75" viewBox="0 0 75 75">
    <defs>
        <style>
            .cls-2{fill:#d86613}
        </style>
    </defs>
    <title>
        AWS-AutoScaling-LaunchConfiguration
    </title>
    <g id="Reference">
        <!-- <rect id="Pink_Light_BG" data-name="Pink Light BG" style="fill:#d86613"/> -->
        <g id="Product_Icon" data-name="Product Icon">
            <path class="cls-2" transform="scale(1.5)" d="M25,48.5A23.5,23.5,0,1,1,48.5,25,23.52,23.52,0,0,1,25,48.5Zm0-45A21.5,21.5,0,1,0,46.5,25,21.52,21.52,0,0,0,25,3.5Z"/>    
            <path class="cls-2" transform="translate(3,3)" d="M55.5,12.5h-42a1,1,0,0,0-1,1v38a1,1,0,0,0,1,1H34a13.25,13.25,0,0,1-.33-2H14.5v-36h40v20a14.43,14.43,0,0,1,2,.91V13.5A1,1,0,0,0,55.5,12.5Z"/>
            <path class="cls-2" transform="translate(3,3)" d="M51.5,21.5h-1v-4a1,1,0,0,0-1-1h-4a1,1,0,0,0-1,1v4h-1a1,1,0,0,0-1,1v4a1,1,0,0,0,1,1h1v6.7a13.55,13.55,0,0,1,2-.48V27.5h2v6h.59a13.05,13.05,0,0,1,1.41.07V27.5h1a1,1,0,0,0,1-1v-4A1,1,0,0,0,51.5,21.5Zm-5-3h2v3h-2Zm4,7h-6v-2h6Z"/>
            <path class="cls-2" transform="translate(3,3)" d="M38.5,32.5h-1v-15a1,1,0,0,0-1-1h-4a1,1,0,0,0-1,1.05v15l-1,0a1,1,0,0,0-1,1v4a1,1,0,0,0,1,1h1v9a1,1,0,0,0,1,1h1.14a14.72,14.72,0,0,1,.19-2h-.33v-8h2v3.06a15,15,0,0,1,2-2.84V38.5h.2a15,15,0,0,1,1.8-1.68V33.5A1,1,0,0,0,38.5,32.5Zm-5-14h2v14h-2Zm4,18h-6v-2h6Z"/>
            <path class="cls-2" transform="translate(3,3)" d="M25.5,24.5h-1v-7a1,1,0,0,0-1-1h-4a1,1,0,0,0-1,1v7h-1a1,1,0,0,0-1,1v4a1,1,0,0,0,1,1h1v17a1,1,0,0,0,1,1h4a1,1,0,0,0,1-1v-17h1a1,1,0,0,0,1-1v-4A1,1,0,0,0,25.5,24.5Zm-5-6h2v6h-2Zm2,28h-2v-16h2Zm2-18h-6v-2h6Z"/>
            <path class="cls-2" transform="translate(2,2)" d="M62.19,45.79a1,1,0,0,0-.75-.27l-1.26.07a11.83,11.83,0,0,0-.86-2.08l.94-.85a.94.94,0,0,0,.33-.71,1,1,0,0,0-.29-.74L56.79,37.7a1.09,1.09,0,0,0-.74-.3,1,1,0,0,0-.72.34l-.84.95a11.44,11.44,0,0,0-2.08-.87l.07-1.26a1,1,0,0,0-.27-.75,1,1,0,0,0-.73-.31h-5a1,1,0,0,0-1,1.06l.07,1.26a11.83,11.83,0,0,0-2.08.86l-.85-.94a1,1,0,0,0-.72-.34,1,1,0,0,0-.73.3L37.7,41.21a1,1,0,0,0-.3.74,1,1,0,0,0,.34.71l.94.85a11.83,11.83,0,0,0-.86,2.08l-1.26-.07a1,1,0,0,0-.75.27,1,1,0,0,0-.31.73v5a1,1,0,0,0,.31.73,1,1,0,0,0,.75.27l1.25-.07a11.53,11.53,0,0,0,.87,2.09l-.94.84a1,1,0,0,0-.34.71,1,1,0,0,0,.3.74l3.51,3.51a1,1,0,0,0,.73.3,1,1,0,0,0,.72-.34l.84-.94a11.53,11.53,0,0,0,2.09.87l-.07,1.25a1,1,0,0,0,1,1.06h5a1,1,0,0,0,.73-.31,1,1,0,0,0,.27-.75l-.07-1.25a11.53,11.53,0,0,0,2.09-.87l.83.94a1,1,0,0,0,.72.34,1.07,1.07,0,0,0,.74-.3l3.51-3.51a1,1,0,0,0,.29-.74.94.94,0,0,0-.33-.71l-.94-.84a12.25,12.25,0,0,0,.86-2.09l1.26.07a1,1,0,0,0,.75-.27,1,1,0,0,0,.31-.73v-5A1,1,0,0,0,62.19,45.79ZM60.5,50.43l-1-.06a1,1,0,0,0-1,.78,9.61,9.61,0,0,1-1.25,3,1,1,0,0,0,.18,1.28l.76.67-2,2-.67-.76a1,1,0,0,0-1.28-.18,9.73,9.73,0,0,1-3,1.26,1,1,0,0,0-.77,1l.05,1H47.57l.06-1a1,1,0,0,0-.78-1,9.88,9.88,0,0,1-3-1.26,1,1,0,0,0-1.28.18l-.67.76-2-2,.76-.67a1,1,0,0,0,.18-1.28,9.52,9.52,0,0,1-1.25-3,1,1,0,0,0-1-.78l-1,.06V47.57l1,.06a1,1,0,0,0,1-.78,9.46,9.46,0,0,1,1.25-3,1,1,0,0,0-.18-1.28l-.76-.68,2-2,.68.76a1,1,0,0,0,1.28.18,10,10,0,0,1,3-1.25,1,1,0,0,0,.78-1l-.06-1h2.85l-.05,1a1,1,0,0,0,.77,1,9.52,9.52,0,0,1,3,1.25,1,1,0,0,0,1.28-.18l.68-.77,2,2-.76.68a1,1,0,0,0-.18,1.28,9.7,9.7,0,0,1,1.25,3,1,1,0,0,0,1,.78l1-.06Z"/>
            <path class="cls-2" transform="translate(2,2)" d="M56.52,44.79l-1.3,3.08a1,1,0,0,1-.92.61h-.11l-3.33-.35.21-2,1.52.16a4.48,4.48,0,0,0-8,1.83l-2-.4a6.48,6.48,0,0,1,11.53-2.6L54.67,44Z"/>
            <path class="cls-2" transform="translate(2,2)" d="M55.39,50.32A6.48,6.48,0,0,1,44.08,53.2l-.22.84-1.94-.52.87-3.26a1,1,0,0,1,1.12-.73l3.2.48-.3,2-1.28-.19a4.47,4.47,0,0,0,7.9-1.88Z"/>
        </g>
    </g>
</svg>
