<svg xmlns="http://www.w3.org/2000/svg" width="75" height="75" viewBox="0 0 75 75">
    <defs>
        <style>
            .cls-1{fill:#d86613}
        </style>
    </defs>
    <title>
        AWS-AutoScaling-ScheduledAction
    </title>
    <g id="Reference">
        <path class="cls-1" d="M25,48.5A23.5,23.5,0,1,1,48.5,25,23.52,23.52,0,0,1,25,48.5Zm0-45A21.5,21.5,0,1,0,46.5,25,21.52,21.52,0,0,0,25,3.5Z"/>
        <path class="cls-1" transform="scale(0.75) translate(5, 15)" d="M 16,6 C 10.488997,6 6,10.488997 6,16 6,21.511003 10.488997,26 16,26 21.511003,26 26,21.511003 26,16 26,10.488997 21.511003,6 16,6 z m 0,2 c 4.430123,0 8,3.569877 8,8 0,4.430123 -3.569877,8 -8,8 -4.430123,0 -8,-3.569877 -8,-8 0,-4.430123 3.569877,-8 8,-8 z m -1,2 0,7 1,0 1,0 3,0 0,-2 -3,0 0,-5 -2,0 z"/>
        <path class="cls-1" transform="translate(5, 0)" d="M20.1,40.68l-1.45-1.36L32.07,25,18.65,10.68,20.1,9.32l14.07,15a1,1,0,0,1,0,1.36Z"/>
    </g>
</svg>
