<svg xmlns="http://www.w3.org/2000/svg" width="75" height="75" viewBox="0 0 75 75">
    <title>AWS-Zoom_light-bg-exported</title>
    <rect width="75" height="75" fill="none"/>
    <path d="M61.5,50.5h-4v-5a.94.94,0,0,0-1-1h-18v-3h-2v3h-18a.94.94,0,0,0-1,1v5h-4a.94.94,0,0,0-1,1v10a.94.94,0,0,0,1,1h10a.94.94,0,0,0,1-1v-10a.94.94,0,0,0-1-1h-4v-4h17v4h-4a.94.94,0,0,0-1,1v10a.94.94,0,0,0,1,1h10a.94.94,0,0,0,1-1v-10a.94.94,0,0,0-1-1h-4v-4h17v4h-4a.94.94,0,0,0-1,1v10a.94.94,0,0,0,1,1h10a.94.94,0,0,0,1-1v-10A.94.94,0,0,0,61.5,50.5Zm-39,2v8h-8v-8Zm19,0v8h-8v-8Zm19,8h-8v-8h8Z" fill="#fff"/>
    <path d="M54.6,21c-.6-4.5-3.6-6.6-6.3-6.6a6.4,6.4,0,0,0-3.7,1.3,14.34,14.34,0,0,0-3-4.4A13,13,0,0,0,26.8,8.4,13.61,13.61,0,0,0,19,20.5v.8a9.16,9.16,0,0,0-6.5,9.2,10.18,10.18,0,0,0,4.9,8.9,5.61,5.61,0,0,0,3.1.9H52.1A11.39,11.39,0,0,0,57.7,39a8.82,8.82,0,0,0,4.7-8.4C62.5,23.7,57.2,21.6,54.6,21Zm2.2,16.2a9.47,9.47,0,0,1-4.6,1.1H20.5a3.94,3.94,0,0,1-2.1-.6,8.12,8.12,0,0,1-3.9-7.2A7.26,7.26,0,0,1,20.3,23a1,1,0,0,0,.8-1.1,7.08,7.08,0,0,1-.1-1.4,11.67,11.67,0,0,1,6.6-10.2,11,11,0,0,1,12.5,2.5,13.49,13.49,0,0,1,3.1,5.1,1.14,1.14,0,0,0,.8.7,1,1,0,0,0,1-.4,4,4,0,0,1,3.2-1.7c2,0,4.1,1.6,4.4,5.3a.84.84,0,0,0,.2.7,1,1,0,0,0,.7.4c2.1.4,7,1.8,7,7.7A7.2,7.2,0,0,1,56.8,37.2Z" fill="#fff"/>
</svg>