<svg xmlns="http://www.w3.org/2000/svg" viewBox="0 0 75 75">
    <defs>
        <style>
            .cls-2{fill:#3b48cc}
        </style>
    </defs>
    <title>
        AWS-CodeCommit_light-bg
    </title>
    <g id="Reference">
        <rect id="Blue_Light_BG" data-name="Blue Light BG" width="75" height="75" style="fill:transparent"/>
        <g id="Product_Icon" data-name="Product Icon">
            <path class="cls-2" d="M34.5,27.43a5,5,0,0,0-1,9.9v6.59a2.42,2.42,0,0,1-1.63,2.22L22.8,49.7a5.19,5.19,0,0,0-3,3.06,4.72,4.72,0,0,0-1.29-.46V44.52a5,5,0,0,0,0-9.8V22.46a5,5,0,1,0-2,0V34.72a5,5,0,0,0,0,9.8V52.3a5,5,0,1,0,5,1.92,3,3,0,0,1,2-2.65L32.6,48a4.43,4.43,0,0,0,2.9-4.09V37.33a5,5,0,0,0-1-9.9Zm-20-9.86a3,3,0,1,1,3,3A3,3,0,0,1,14.5,17.57Zm0,22a3,3,0,1,1,3,3A3,3,0,0,1,14.5,39.62Zm3,20.58a3,3,0,1,1,3-3A3,3,0,0,1,17.5,60.2Zm17-24.77a3,3,0,1,1,3-3A3,3,0,0,1,34.5,35.43Z"/>
            <path class="cls-2" d="M61.5,62.43h-27a1,1,0,0,1-1-1v-11h2v10h25v-36h-25v-2h26a1,1,0,0,1,1,1v38A1,1,0,0,1,61.5,62.43Z"/>
            <path class="cls-2" d="M43.32,46.9,39.3,43a1,1,0,0,1-.3-.78,1,1,0,0,1,.4-.73l4.49-3.36,1.2,1.6-3.55,2.66,3.17,3.09Z"/>
            <path class="cls-2" d="M53.11,47.54l-1.2-1.6,3.55-2.66-3.17-3.09,1.39-1.44,4,3.91a1,1,0,0,1-.1,1.52Z"/>
            <rect class="cls-2" x="41.35" y="42.43" width="14.22" height="2" transform="translate(-10.8 70.33) rotate(-66.28)"/>
            <path class="cls-2" d="M31.21,25.72l-.71.71-.71.71L25.5,22.85v3.58h-2v-6a1,1,0,0,1,1-1h6v2H26.92Z"/>
        </g>
    </g>
</svg>
