<svg xmlns="http://www.w3.org/2000/svg" width="75" height="75" viewBox="0 0 75 75">
    <defs>
        <style>
            .cls-2{fill:#3b48cc}
        </style>
    </defs>
    <title>
        AWS-CodeBuild_light-bg
    </title>
    <g id="Reference">
        <rect id="Blue_Light_BG" data-name="Blue Light BG" width="75" height="75" style="fill:transparent"/>
        <g id="Product_Icon" data-name="Product Icon">
            <path class="cls-2" d="M42.92,48.25l1.39-1.43L41.45,44l3.2-2.39L43.45,40l-4.14,3.1a1,1,0,0,0-.1,1.52Z"/>
            <path class="cls-2" d="M54.05,44.85l-3.2,2.4,1.2,1.6,4.14-3.1a1,1,0,0,0,.4-.74,1,1,0,0,0-.3-.78l-3.71-3.6-1.39,1.43Z"/>
            <rect class="cls-2" x="41.16" y="44" width="13.11" height="2" transform="translate(-12.69 70.55) rotate(-66.25)"/>
            <path class="cls-2" d="M63.39,20.73l-2.8-2.32-4.44-3.68h0l-1.17-1a1,1,0,0,0-.64-.23l-37.08,0h0a1,1,0,0,0-1-1h-4a1,1,0,0,0-1,1v10a1,1,0,0,0,1,1h4v37a1,1,0,0,0,1,1h11a1,1,0,0,0,1-1v-39h18v7.33L36.05,34.5h-.8a1,1,0,0,0-1,1v18a1,1,0,0,0,1,1h26a1,1,0,0,0,1-1v-18a1,1,0,0,0-1-1h-.8l-11.2-4.67V22.5h13.5a1,1,0,0,0,.94-.66A1,1,0,0,0,63.39,20.73ZM54,15.54,48.84,20.2l-6.18-4.68H54Zm-25.73,5h-8l4.94-3.75L30.1,20.5ZM18.76,41l8.49-7.53V48.53Zm8,9.75-8.49,7.53V43.22Zm-8.49-12V23.72l8.49,7.53Zm8.58-23.27H39.32l-6.24,4.74ZM41,16.75l4.94,3.75H36.05ZM23.5,15.5l-6.25,4.75V15.5Zm-8.25,7h-2v-8h2v8Zm3.51,38L27.25,53V60.5ZM27.25,29,19.89,22.5h7.36Zm33,23.47h-24v-16h24Zm-19-18,7-2.92,7,2.92Zm10.24-14,4-3.68L60,20.5Z"/>
        </g>
    </g>
</svg>
