<svg xmlns="http://www.w3.org/2000/svg" height="75" width="75" viewBox="0 0 75 75">
    <defs>
        <style>
            .cls-2{fill:transparent}
        </style>
    </defs>
    <title>
        AWS-Shield_light-bg
    </title>
    <g id="Reference">
        <rect id="Red_Light_BG" data-name="Red Light BG" width="75" height="75" style="fill:transparent"/>
        <g id="Product_Icon" data-name="Product Icon">
            <path style="fill:#d6242d" class="cls-2" d="M52.5,18.61V38.55a10,10,0,0,0-2,0V19.34l-18-5.78-18,6.73v20.5a29.37,29.37,0,0,0,2.3,10.45c3,6.81,8.25,10.26,15.7,10.26a18.39,18.39,0,0,0,8.76-2L42.58,61h0l0,.1A20.17,20.17,0,0,1,32.5,63.5C22.14,63.5,17.25,57.27,15,52A31.08,31.08,0,0,1,12.5,40.79V19.6a1,1,0,0,1,.65-.94l19-7.1a1,1,0,0,1,.66,0l19,6.11A1,1,0,0,1,52.5,18.61Z"/>
            <path style="fill:#d6242d" class="cls-2" d="M46.85,22.08l-14-5.26a1.05,1.05,0,0,0-.7,0l-14,5.26a1,1,0,0,0-.65.94V42.76a1.23,1.23,0,0,0,0,.19,27,27,0,0,0,2.91,7.55c2.94,5.06,7.11,7.74,12.07,7.74a12.19,12.19,0,0,0,6.88-2,13.57,13.57,0,0,1-.6-2l-.24.17a10.16,10.16,0,0,1-5,1.82v-37l12,4.5V40a12.19,12.19,0,0,1,2-.83V23A1,1,0,0,0,46.85,22.08ZM19.5,42.66V23.71l12-4.5v37C22.5,55.39,19.74,43.79,19.5,42.66Z"/>
            <polygon style="fill:#d6242d" class="cls-2" points="56.5 50.3 56.5 52.3 52.5 52.3 52.5 56.3 50.5 56.3 50.5 52.3 46.5 52.3 46.5 50.3 50.5 50.3 50.5 46.3 52.5 46.3 52.5 50.3 56.5 50.3"/>
            <path style="fill:#d6242d" class="cls-2" d="M51.5,62.5a11,11,0,1,1,11-11A11,11,0,0,1,51.5,62.5Zm0-20a9,9,0,1,0,9,9A9,9,0,0,0,51.5,42.5Z"/>
        </g>
    </g>
</svg>
