<svg xmlns="http://www.w3.org/2000/svg" width="100" height="100"  viewBox="0 0 75 75">
    <defs>
        <style>
            .cls-1{fill:#d86613}
        </style>
    </defs>
    <title>
        AWS-Lambda_Lambda-Function_light-bg
    </title>
    <g id="Working" transform="translate(0,10) scale(1.25)">
        <path class="cls-1" d="M39.06,39.12H31.47a1,1,0,0,1-.91-.57L19.92,15.69h-4.3a1,1,0,0,1-1-1V8.12a1,1,0,0,1,1-1h9.49A1,1,0,0,1,26,7.7L36.62,30.56h2.44a1,1,0,0,1,1,1v6.56A1,1,0,0,1,39.06,39.12Zm-7-2h6V32.56H36a1,1,0,0,1-.91-.58L24.48,9.12H16.63v4.57h3.93a1,1,0,0,1,.91.58Z"/>
        <path class="cls-1" d="M18.43,39.12H10.31a1,1,0,0,1-.9-1.43L17.9,19.91a1,1,0,0,1,.9-.57h0a1,1,0,0,1,.9.56l4.07,8.4a1,1,0,0,1,0,.86l-4.44,9.39A1,1,0,0,1,18.43,39.12Zm-6.53-2h5.89l4-8.38-3-6.09Z"/>
        <path class="cls-1" d="M25,48.5A23.5,23.5,0,1,1,48.5,25,23.52,23.52,0,0,1,25,48.5Zm0-45A21.5,21.5,0,1,0,46.5,25,21.53,21.53,0,0,0,25,3.5Z"/>
    </g>
     <style type="text/css">
        .st4{fill:#1d8102}
    </style>
    <g id="grid_x5F_locked"/>
    <g id="icon">
        <g transform="translate(55,2)">
            <path class="st4" d="M8,0C3.6,0,0,3.6,0,8s3.6,8,8,8s8-3.6,8-8S12.4,0,8,0z M8,14c-3.3,0-6-2.7-6-6s2.7-6,6-6s6,2.7,6,6
			S11.3,14,8,14z"/>
            <polygon class="st4" points="7,8.6 5,6.6 3.6,8 7,11.4 11.9,6.5 10.5,5.1 		"/>
        </g>
    </g>
</svg>
