<svg id="Product_Icon" data-name="Product Icon" xmlns="http://www.w3.org/2000/svg" width="75" height="75" viewBox="0 0 75 75"><title>Amazon-CloudFront_light-bg</title><rect id="Purple_Light_BG" data-name="Purple Light BG" width="75" height="75" style="fill:#693cc5"/><g id="Product_Icon-2" data-name="Product Icon"><path d="M46.14,60.67l-1.78-.92a29.75,29.75,0,0,0,2.27-5.66l1.92.56A31.93,31.93,0,0,1,46.14,60.67ZM48,42.36a31.87,31.87,0,0,0-5.27-15.68l1.67-1.09A33.81,33.81,0,0,1,50,42.24ZM34.81,18.23a30.08,30.08,0,0,0-4.62-2.84l.91-1.78a31.94,31.94,0,0,1,4.92,3Z" style="fill:#fff"/><path d="M43,44.9a29.91,29.91,0,0,0-11.17-7L32.45,36a31.91,31.91,0,0,1,11.9,7.45Z" style="fill:#fff"/><path d="M51.24,56.84c-.37-1-.79-1.92-1.25-2.85l1.79-.89a32.71,32.71,0,0,1,1.33,3Z" style="fill:#fff"/><path d="M45.57,61.15l-.64-1.89a22.4,22.4,0,0,0,6.63-3.57l1.23,1.58A24.36,24.36,0,0,1,45.57,61.15Z" style="fill:#fff"/><path d="M13.78,37l-.46-1.94a31.25,31.25,0,0,1,6.77-.89l.05,2A29.4,29.4,0,0,0,13.78,37Z" style="fill:#fff"/><path d="M30.18,30.64,28.5,29.55a28.67,28.67,0,0,1,5.37-6.4l1.32,1.51A26.64,26.64,0,0,0,30.18,30.64Z" style="fill:#fff"/><path d="M45.05,18.78l-.68-1.88A29.77,29.77,0,0,1,49,15.58l.37,2A26.9,26.9,0,0,0,45.05,18.78Z" style="fill:#fff"/><path d="M25.25,59a31.53,31.53,0,0,1-2.57-12,21.72,21.72,0,0,1,.62-4.72c.07-.35.15-.71.22-1.08l2,.39c-.07.38-.15.74-.22,1.1a20,20,0,0,0-.58,4.31A29.56,29.56,0,0,0,27.1,58.28Z" style="fill:#fff"/><path d="M37.5,62.5a25,25,0,0,1-25-25c0-.51,0-1,.05-1.51A25,25,0,0,1,30.36,13.54,25,25,0,0,1,49.72,15.7a25,25,0,0,1,3.07,41.58A25.2,25.2,0,0,1,37.5,62.5Zm0-48a22.56,22.56,0,0,0-6.57,1A23,23,0,0,0,14.55,36.13c0,.47-.05.92-.05,1.37a23,23,0,0,0,23,23,22.61,22.61,0,0,0,7.42-1.24,22.32,22.32,0,0,0,6.64-3.57A23,23,0,0,0,37.5,14.5Z" style="fill:#fff"/><path d="M39.93,25.93a4.43,4.43,0,1,1,4.43-4.42A4.42,4.42,0,0,1,39.93,25.93Zm0-6.85a2.43,2.43,0,1,0,2.43,2.43A2.43,2.43,0,0,0,39.93,19.08Z" style="fill:#fff"/><path d="M26.29,39.88a4.43,4.43,0,1,1,4.43-4.43A4.44,4.44,0,0,1,26.29,39.88Zm0-6.86a2.43,2.43,0,1,0,2.43,2.43A2.43,2.43,0,0,0,26.29,33Z" style="fill:#fff"/><path d="M48.28,52.7a4.43,4.43,0,1,1,4.42-4.42A4.42,4.42,0,0,1,48.28,52.7Zm0-6.85a2.43,2.43,0,1,0,2.42,2.43A2.43,2.43,0,0,0,48.28,45.85Z" style="fill:#fff"/></g></svg>