<?xml version="1.0" encoding="iso-8859-1"?>
<!-- Generator: Adobe Illustrator 19.0.0, SVG Export Plug-In . SVG Version: 6.00 Build 0)  -->
<svg version="1.1" id="Layer_1" xmlns="http://www.w3.org/2000/svg" xmlns:xlink="http://www.w3.org/1999/xlink" height="75" width="75"
	 viewBox="0 0 75 75">
<g id="XMLID_19_" transform="scale(0.2)">
	<path id="XMLID_20_" d="M246.504,35.833C224.202,12.726,195.257,0,165,0C101.589,0,50,51.589,50,115c0,8.284,6.716,15,15,15
		c8.284,0,15-6.716,15-15c0-46.869,38.131-85,85-85c48.649,0,85,44.876,85,85c0,44.866-48.145,116.704-66.779,140.712
		C168.75,273.793,149.653,294.946,142.31,300H105c-8.284,0-15,6.716-15,15s6.716,15,15,15h39.998c0.001,0,0.001,0,0.003,0
		c8.385,0,17.229-4.777,39.898-29.965c11.41-12.679,21.394-25.141,21.814-25.665c0.042-0.053,0.085-0.107,0.127-0.161
		C209.828,270.368,280,179.407,280,115C280,86.744,267.791,57.889,246.504,35.833z"/>
	<path id="XMLID_21_" d="M125,220c-8.284,0-15,6.716-15,15s6.716,15,15,15c24.813,0,45-20.186,45-45
		c0-19.555-12.542-36.227-30-42.42V115c0-13.785,11.215-25,25-25c13.785,0,25,11.215,25,25c0,8.284,6.716,15,15,15
		c8.284,0,15-6.716,15-15c0-30.327-24.673-55-55-55c-30.327,0-55,24.673-55,55v60c0,8.284,6.716,15,15,15c8.271,0,15,6.729,15,15
		S133.271,220,125,220z"/>
</g>
</svg>

