<?xml version="1.0" encoding="UTF-8"?><!DOCTYPE svg>
<svg id="Product_Icon" data-name="Product Icon" 
    xmlns="http://www.w3.org/2000/svg" width="75" height="75">
    <title>Amazon-EC2_iight-bg</title>
    <rect id="Orange_Light_BG" data-name="Orange Light BG" width="75" height="75" style="fill:#d86613"/>
    <g id="Product_Icon-2" data-name="Product Icon">
        <path d="M60.49,40.5h-5v-2h5v-24h-24v5h-2v-5a2,2,0,0,1,2-2h24a2,2,0,0,1,2,2v24A2,2,0,0,1,60.49,40.5Z" style="fill:#fff"/>
        <path d="M38.49,62.5h-24a2,2,0,0,1-2-2v-24a2,2,0,0,1,2-2h5v2h-5v24h24v-5h2v5A2,2,0,0,1,38.49,62.5Z" style="fill:#fff"/>
        <path d="M53.5,28.5v-2h-3a2.18,2.18,0,0,0-2-2v-3h-2v3h-3v-3h-2v3h-3v-3h-2v3h-3v-3h-2v3h-3v-3h-2v3a2.18,2.18,0,0,0-2,2h-3v2h3v3h-3v2h3v3h-3v2h3v3h-3v2h3v3h-3v2h3a2.18,2.18,0,0,0,2,2v3h2v-3h3v3h2v-3h3v3h2v-3h3v3h2v-3h3v3h2v-3a2.18,2.18,0,0,0,2-2h3v-2h-3v-3h3v-2h-3v-3h3v-2h-3v-3h3v-2h-3v-3Zm-5,19.82a.18.18,0,0,1-.18.18H26.68a.18.18,0,0,1-.18-.18V26.68a.18.18,0,0,1,.18-.18H48.32a.18.18,0,0,1,.18.18Z" style="fill:#fff"/>
    </g>
</svg>