<svg xmlns="http://www.w3.org/2000/svg" width="75" height="75" viewBox="0 0 75 75">
    <title>
        exp-ECS-Task-Definition-light-bg
    </title>
    <g transform="scale(1.5)">
        <rect x="5.6" y="4.8" width="2" height="20.6" fill="#d86613"/>
        <rect x="11.3" y="4.8" width="2" height="20.6" fill="#d86613"/>
        <rect x="16.9" y="4.8" width="2" height="20.6" fill="#d86613"/>
        <rect x="22.5" y="4.8" width="2" height="20.6" fill="#d86613"/>
        <rect x="28.1" y="4.8" width="2" height="9.9" fill="#d86613"/>
        <rect x="33.8" y="4.8" width="2" height="9.9" fill="#d86613"/>
        <rect x="39.4" y="4.8" width="2" height="9.9" fill="#d86613"/>
        <path d="M29.1,37.6H3.5V11.4h43V24h2V10.4a.94.94,0,0,0-1-1H2.5a.94.94,0,0,0-1,1V38.5a.94.94,0,0,0,1,1H29.1Z" transform="translate(-1.5 -9.4)" fill="#d86613"/>
        <rect x="30.4" y="17.4" width="15.9" height="21.2" fill="none" stroke="#d86613" stroke-linejoin="round" stroke-width="2"/>
        <rect x="32.6" y="20.1" width="2.7" height="2.7" fill="none" stroke="#d86613" stroke-linejoin="round" stroke-width="2"/>
        <rect x="32.6" y="26.2" width="2.7" height="2.7" fill="none" stroke="#d86613" stroke-linejoin="round" stroke-width="2"/>
        <line x1="36.6" y1="21.4" x2="44.6" y2="21.4" fill="none" stroke="#d86613" stroke-linejoin="round" stroke-width="2"/>
        <line x1="36.6" y1="27.6" x2="44.6" y2="27.6" fill="none" stroke="#d86613" stroke-linejoin="round" stroke-width="2"/>
        <rect x="32.6" y="32.4" width="2.7" height="2.7" fill="none" stroke="#d86613" stroke-linejoin="round" stroke-width="2"/>
        <line x1="36.6" y1="33.8" x2="44.6" y2="33.8" fill="none" stroke="#d86613" stroke-linejoin="round" stroke-width="2"/>
    </g>
    
</svg>
