<svg xmlns="http://www.w3.org/2000/svg" width="100" height="100" viewBox="0 0 75 75">
    <defs>
        <style>
            .cls-1{fill:#693cc5}
        </style>
    </defs>
    <title>
        Elastic-Load-Balancing-ELB_Network-load-balancer_light-bg
    </title>
    <g id="Reference" transform="scale(1.25)">
        <path class="cls-1" d="M25,0A25,25,0,1,0,50,25,25,25,0,0,0,25,0Zm0,48A23,23,0,1,1,48,25,23,23,0,0,1,25,48Z"/>
        <path class="cls-1" d="M16,31H6a1,1,0,0,1-1-1V20a1,1,0,0,1,1-1H16a1,1,0,0,1,1,1V30A1,1,0,0,1,16,31ZM7,29h8V21H7Z"/>
        <path class="cls-1" d="M39,18H33a1,1,0,0,1-1-1V11a1,1,0,0,1,1-1h6a1,1,0,0,1,1,1v6A1,1,0,0,1,39,18Zm-5-2h4V12H34Z"/>
        <path class="cls-1" d="M39,29H33a1,1,0,0,1-1-1V22a1,1,0,0,1,1-1h6a1,1,0,0,1,1,1v6A1,1,0,0,1,39,29Zm-5-2h4V23H34Z"/>
        <path class="cls-1" d="M39,40H33a1,1,0,0,1-1-1V33a1,1,0,0,1,1-1h6a1,1,0,0,1,1,1v6A1,1,0,0,1,39,40Zm-5-2h4V34H34Z"/>
        <path class="cls-1" d="M30.71,25.71l-3.37,3.36-1.41-1.41L27.59,26H19V24h8.59l-1.66-1.66,1.41-1.41,3.37,3.36A1,1,0,0,1,30.71,25.71Z"/>
        <path class="cls-1" d="M30.16,14.51,28.92,19.1,27,18.58l.64-2.38-8.87,4.68-.93-1.76,8.66-4.57L24.34,14,24.87,12l4.59,1.24A1,1,0,0,1,30.16,14.51Z"/>
        <path class="cls-1" d="M29.46,36.72,24.87,38,24.34,36l2.15-.59-8.66-4.57.93-1.76,8.87,4.68L27,31.42l1.93-.52,1.24,4.59A1,1,0,0,1,29.46,36.72Z"/>
    </g>
     <style type="text/css">
        .st4{fill:#1d8102}
    </style>
    <g id="grid_x5F_locked"/>
    <g id="icon">
        <g transform="translate(59,0)">
            <path class="st4" d="M8,0C3.6,0,0,3.6,0,8s3.6,8,8,8s8-3.6,8-8S12.4,0,8,0z M8,14c-3.3,0-6-2.7-6-6s2.7-6,6-6s6,2.7,6,6
			S11.3,14,8,14z"/>
            <polygon class="st4" points="7,8.6 5,6.6 3.6,8 7,11.4 11.9,6.5 10.5,5.1 		"/>
        </g>
    </g>
</svg>
