<svg xmlns="http://www.w3.org/2000/svg" width="100" height="100" viewBox="0 0 75 75">
    <defs>
        <style>
            .cls-1{fill:#693cc5}
        </style>
    </defs>
    <title>
        Elastic-Load-Balancing-ELB_Network-load-balancer_light-bg
    </title>
    <g id="Reference" transform="scale(1.25)">
        <path class="cls-1" d="M25,0A25,25,0,1,0,50,25,25,25,0,0,0,25,0Zm0,48A23,23,0,1,1,48,25,23,23,0,0,1,25,48Z"/>
        <path class="cls-1" d="M16,31H6a1,1,0,0,1-1-1V20a1,1,0,0,1,1-1H16a1,1,0,0,1,1,1V30A1,1,0,0,1,16,31ZM7,29h8V21H7Z"/>
        <path class="cls-1" d="M39,18H33a1,1,0,0,1-1-1V11a1,1,0,0,1,1-1h6a1,1,0,0,1,1,1v6A1,1,0,0,1,39,18Zm-5-2h4V12H34Z"/>
        <path class="cls-1" d="M39,29H33a1,1,0,0,1-1-1V22a1,1,0,0,1,1-1h6a1,1,0,0,1,1,1v6A1,1,0,0,1,39,29Zm-5-2h4V23H34Z"/>
        <path class="cls-1" d="M39,40H33a1,1,0,0,1-1-1V33a1,1,0,0,1,1-1h6a1,1,0,0,1,1,1v6A1,1,0,0,1,39,40Zm-5-2h4V34H34Z"/>
        <path class="cls-1" d="M30.71,25.71l-3.37,3.36-1.41-1.41L27.59,26H19V24h8.59l-1.66-1.66,1.41-1.41,3.37,3.36A1,1,0,0,1,30.71,25.71Z"/>
        <path class="cls-1" d="M30.16,14.51,28.92,19.1,27,18.58l.64-2.38-8.87,4.68-.93-1.76,8.66-4.57L24.34,14,24.87,12l4.59,1.24A1,1,0,0,1,30.16,14.51Z"/>
        <path class="cls-1" d="M29.46,36.72,24.87,38,24.34,36l2.15-.59-8.66-4.57.93-1.76,8.87,4.68L27,31.42l1.93-.52,1.24,4.59A1,1,0,0,1,29.46,36.72Z"/>
    </g>
    <style type="text/css">
        .st4{fill:#d13212}
    </style>
    <g id="grid_x5F_locked"/>
    <g id="icon">
        <g transform="translate(59,0)">
            <path class="st4" d="M13.7,2.3C12.1,0.8,10.1,0,8,0S3.9,0.8,2.3,2.3C0.8,3.9,0,5.9,0,8s0.8,4.1,2.3,5.7C3.9,15.2,5.9,16,8,16
			s4.1-0.8,5.7-2.3C15.2,12.1,16,10.1,16,8S15.2,3.9,13.7,2.3z M12.2,12.2C11.1,13.4,9.6,14,8,14s-3.1-0.6-4.2-1.8S2,9.6,2,8
			s0.6-3.1,1.8-4.2S6.4,2,8,2s3.1,0.6,4.2,1.8S14,6.4,14,8S13.4,11.1,12.2,12.2z"/>
            <polygon class="st4" points="10.1,4.5 8,6.6 5.9,4.5 4.5,5.9 6.6,8 4.5,10.1 5.9,11.5 8,9.4 10.1,11.5 11.5,10.1 9.4,8 11.5,5.9 
					"/>
        </g>
    </g>
</svg>
