<svg xmlns="http://www.w3.org/2000/svg" width="100" height="100" viewBox="0 0 75 75">
    <defs>
        <style>
            .cls-1{fill:#693cc5}
        </style>
    </defs>
    <title>
        Elastic-Load-Balancing_Classic-load-balancer_light-bg
    </title>
    <g id="Reference" transform="scale(1.25)">
        <path class="cls-1" d="M25.5,15.19A10.41,10.41,0,1,0,36,25.59,10.46,10.46,0,0,0,25.5,15.19ZM25.5,34A8.41,8.41,0,1,1,34,25.59,8.46,8.46,0,0,1,25.5,34Z"/>
        <path class="cls-1" d="M25,0A25,25,0,1,0,50,25,25,25,0,0,0,25,0Zm0,48A23,23,0,1,1,48,25,23,23,0,0,1,25,48Z"/>
        <path class="cls-1" d="M38.71,13.29l-6-6A1,1,0,0,0,32,7H13a1,1,0,0,0-1,1V41a1,1,0,0,0,1,1H38a1,1,0,0,0,1-1V14A1,1,0,0,0,38.71,13.29ZM33,10.41,35.59,13H33ZM37,40H14V9H31v5a1,1,0,0,0,1,1h5Z"/>
        <path class="cls-1" d="M28.5,26.55a3,3,0,0,0-1.94.72l-3.09-1.72V25.5a2,2,0,0,0,0-.35l3.08-1.54a2.82,2.82,0,0,0,2,.79,2.9,2.9,0,1,0-2.9-2.9c0,.11,0,.22,0,.33l-3.07,1.54a3,3,0,1,0,.19,4.06L25.58,29a2,2,0,0,0,0,.49,3,3,0,1,0,3-2.95Zm0-5.95a.9.9,0,1,1-.9.9A.9.9,0,0,1,28.5,20.6Zm-8,5.85a1,1,0,1,1,1-.95A1,1,0,0,1,20.5,26.45Zm8,4a1,1,0,1,1,1-.95A1,1,0,0,1,28.5,30.45Z"/>
    </g>
    <style type="text/css">
        .st4{fill:#d13212}
    </style>
    <g id="grid_x5F_locked"/>
    <g id="icon">
        <g transform="translate(59,0)">
            <path class="st4" d="M13.7,2.3C12.1,0.8,10.1,0,8,0S3.9,0.8,2.3,2.3C0.8,3.9,0,5.9,0,8s0.8,4.1,2.3,5.7C3.9,15.2,5.9,16,8,16
			s4.1-0.8,5.7-2.3C15.2,12.1,16,10.1,16,8S15.2,3.9,13.7,2.3z M12.2,12.2C11.1,13.4,9.6,14,8,14s-3.1-0.6-4.2-1.8S2,9.6,2,8
			s0.6-3.1,1.8-4.2S6.4,2,8,2s3.1,0.6,4.2,1.8S14,6.4,14,8S13.4,11.1,12.2,12.2z"/>
            <polygon class="st4" points="10.1,4.5 8,6.6 5.9,4.5 4.5,5.9 6.6,8 4.5,10.1 5.9,11.5 8,9.4 10.1,11.5 11.5,10.1 9.4,8 11.5,5.9 
					"/>
        </g>
    </g>

</svg>
