<svg xmlns="http://www.w3.org/2000/svg" width="100" height="100" viewBox="0 0 75 75">
    <defs>
        <style>
            .cls-1{fill:#693cc5}
        </style>
    </defs>
    <title>
        Elastic-Load-Balancing-ELB_Application-load-balancer_light-bg
    </title>
    <g id="Reference" transform="translate(2,5) scale(1.25)">
        <path class="cls-1" d="M25,50A25,25,0,1,1,50,25,25,25,0,0,1,25,50ZM25,2A23,23,0,1,0,48,25,23,23,0,0,0,25,2Z"/>
        <path class="cls-1" d="M39.9,32H38V28a1,1,0,0,0-1-1H34V23a1,1,0,0,0-1-1H26V19h7a1,1,0,0,0,1-1V9a1,1,0,0,0-1-1H17a1,1,0,0,0-1,1v9a1,1,0,0,0,1,1h7v3H17a1,1,0,0,0-1,1v4H13a1,1,0,0,0-1,1v4H10.1a1,1,0,0,0-1,1v5a1,1,0,0,0,1,1H15a1,1,0,0,0,1-1V33a1,1,0,0,0-1-1H14V29h5v3H18a1,1,0,0,0-1,1v5a1,1,0,0,0,1,1h5a1,1,0,0,0,1-1V33a1,1,0,0,0-1-1H21V28a1,1,0,0,0-1-1H18V24H32v3H30a1,1,0,0,0-1,1v4H27a1,1,0,0,0-1,1v5a1,1,0,0,0,1,1h5a1,1,0,0,0,1-1V33a1,1,0,0,0-1-1H31V29h5v3H34.93a1,1,0,0,0-1,1v5a1,1,0,0,0,1,1h5a1,1,0,0,0,1-1V33A1,1,0,0,0,39.9,32ZM14,37H11.1V34H14Zm8-3v3H19V34ZM18,17V10H32v7ZM31,37H28V34h3Zm7.9,0h-3V34h3Z"/>
    </g>
    <style type="text/css">
        .st4{fill:#d13212}
    </style>
    <g id="grid_x5F_locked"/>
    <g id="icon">
        <g transform="translate(59,0)">
            <path class="st4" d="M13.7,2.3C12.1,0.8,10.1,0,8,0S3.9,0.8,2.3,2.3C0.8,3.9,0,5.9,0,8s0.8,4.1,2.3,5.7C3.9,15.2,5.9,16,8,16
			s4.1-0.8,5.7-2.3C15.2,12.1,16,10.1,16,8S15.2,3.9,13.7,2.3z M12.2,12.2C11.1,13.4,9.6,14,8,14s-3.1-0.6-4.2-1.8S2,9.6,2,8
			s0.6-3.1,1.8-4.2S6.4,2,8,2s3.1,0.6,4.2,1.8S14,6.4,14,8S13.4,11.1,12.2,12.2z"/>
            <polygon class="st4" points="10.1,4.5 8,6.6 5.9,4.5 4.5,5.9 6.6,8 4.5,10.1 5.9,11.5 8,9.4 10.1,11.5 11.5,10.1 9.4,8 11.5,5.9 
					"/>
        </g>
    </g>
</svg>
