<svg xmlns="http://www.w3.org/2000/svg" width="100" height="100" viewBox="0 0 75 75">
    <defs>
        <style>
            .cls-1{fill:#693cc5}
        </style>
    </defs>
    <title>
        Elastic-Load-Balancing-ELB_Application-load-balancer_light-bg
    </title>
    <g id="Reference" transform="scale(1.25) translate(2,5)">
        <path class="cls-1" d="M25,50A25,25,0,1,1,50,25,25,25,0,0,1,25,50ZM25,2A23,23,0,1,0,48,25,23,23,0,0,0,25,2Z"/>
        <path class="cls-1" d="M39.9,32H38V28a1,1,0,0,0-1-1H34V23a1,1,0,0,0-1-1H26V19h7a1,1,0,0,0,1-1V9a1,1,0,0,0-1-1H17a1,1,0,0,0-1,1v9a1,1,0,0,0,1,1h7v3H17a1,1,0,0,0-1,1v4H13a1,1,0,0,0-1,1v4H10.1a1,1,0,0,0-1,1v5a1,1,0,0,0,1,1H15a1,1,0,0,0,1-1V33a1,1,0,0,0-1-1H14V29h5v3H18a1,1,0,0,0-1,1v5a1,1,0,0,0,1,1h5a1,1,0,0,0,1-1V33a1,1,0,0,0-1-1H21V28a1,1,0,0,0-1-1H18V24H32v3H30a1,1,0,0,0-1,1v4H27a1,1,0,0,0-1,1v5a1,1,0,0,0,1,1h5a1,1,0,0,0,1-1V33a1,1,0,0,0-1-1H31V29h5v3H34.93a1,1,0,0,0-1,1v5a1,1,0,0,0,1,1h5a1,1,0,0,0,1-1V33A1,1,0,0,0,39.9,32ZM14,37H11.1V34H14Zm8-3v3H19V34ZM18,17V10H32v7ZM31,37H28V34h3Zm7.9,0h-3V34h3Z"/>
    </g>
    <style type="text/css">
        .st4{fill:#1d8102}
    </style>
    <g id="grid_x5F_locked"/>
    <g id="icon">
        <g transform="translate(59,0)">
            <path class="st4" d="M8,0C3.6,0,0,3.6,0,8s3.6,8,8,8s8-3.6,8-8S12.4,0,8,0z M8,14c-3.3,0-6-2.7-6-6s2.7-6,6-6s6,2.7,6,6
			S11.3,14,8,14z"/>
            <polygon class="st4" points="7,8.6 5,6.6 3.6,8 7,11.4 11.9,6.5 10.5,5.1 		"/>
        </g>
    </g>
</svg>
