<svg xmlns="http://www.w3.org/2000/svg" width="75" height="75" viewBox="0 0 75 75">
<title>exp-ELB-Listener-light-bg</title>
<circle cx="35.9" cy="35.9" r="34.9" fill="none" stroke="#693cc5" stroke-miterlimit="10" stroke-width="2"/><path d="M53.7,41.7a4.2,4.2,0,1,0,0-8.4,4.1,4.1,0,0,0-4.2,4.2A4.23,4.23,0,0,0,53.7,41.7Z" transform="translate(-1.5 -1.8)" fill="none"/><path d="M51.6,22.9a4.2,4.2,0,1,0,0-8.4,4.16,4.16,0,0,0-4.2,4.2A4.23,4.23,0,0,0,51.6,22.9Z" transform="translate(-1.5 -1.8)" fill="none"/><path d="M51.6,60.5a4.2,4.2,0,1,0-4.2-4.2A4.23,4.23,0,0,0,51.6,60.5Z" transform="translate(-1.5 -1.8)" fill="none"/><path d="M53.7,41.7a4.2,4.2,0,1,0,0-8.4,4.1,4.1,0,0,0-4.2,4.2A4.23,4.23,0,0,0,53.7,41.7Z" transform="translate(-1.5 -1.8)" fill="none"/><path d="M25.4,43.8A7.46,7.46,0,0,0,18.7,48a12.74,12.74,0,0,0,6.9,2.1,12.41,12.41,0,0,0,6.6-1.9A7.35,7.35,0,0,0,25.4,43.8Z" transform="translate(-1.5 -1.8)" fill="none"/><path d="M51.6,22.9a4.2,4.2,0,1,0,0-8.4,4.16,4.16,0,0,0-4.2,4.2A4.23,4.23,0,0,0,51.6,22.9Z" transform="translate(-1.5 -1.8)" fill="none"/><path d="M18.7,27.1a7.53,7.53,0,0,0,13.5-.2,12.4,12.4,0,0,0-13.5.2Z" transform="translate(-1.5 -1.8)" fill="none"/><path d="M51.6,60.5a4.2,4.2,0,1,0-4.2-4.2A4.23,4.23,0,0,0,51.6,60.5Z" transform="translate(-1.5 -1.8)" fill="none"/><path d="M25.4,31.2a7.68,7.68,0,0,1-6.7-4.1,12.46,12.46,0,0,0,0,20.8,7.45,7.45,0,0,1,13.5.2,12.52,12.52,0,0,0,5.9-10.6,12.39,12.39,0,0,0-6-10.6A7.44,7.44,0,0,1,25.4,31.2Z" transform="translate(-1.5 -1.8)" fill="none"/><path d="M47.5,38.5a6.18,6.18,0,1,0,0-2H40a14.39,14.39,0,0,0-1.4-5.3l9-7.6a6.19,6.19,0,1,0-1-8.7,6.12,6.12,0,0,0-1.3,3.9,5.89,5.89,0,0,0,1,3.4l-8.7,7.3a16.12,16.12,0,0,0-4.8-4.6,6,6,0,0,1-.6,1.9,12.39,12.39,0,0,1,6,10.6A12.52,12.52,0,0,1,32.3,48a6.64,6.64,0,0,1,.6,2,5.58,5.58,0,0,0,.8-.5,13.86,13.86,0,0,0,4-4l8.7,7.3a5.89,5.89,0,0,0-1,3.4A6.2,6.2,0,1,0,51.6,50a6.76,6.76,0,0,0-3.9,1.3l-9-7.6a14.39,14.39,0,0,0,1.4-5.3l7.4.1Zm6.2-5.2a4.2,4.2,0,1,1-4.2,4.2A4.1,4.1,0,0,1,53.7,33.3ZM51.6,14.5a4.2,4.2,0,1,1-4.2,4.2A4.16,4.16,0,0,1,51.6,14.5Zm0,37.6a4.2,4.2,0,1,1-4.2,4.2A4.23,4.23,0,0,1,51.6,52.1Z" transform="translate(-1.5 -1.8)" fill="#693cc5"/><path d="M13.1,37.5a12.27,12.27,0,0,1,5.6-10.4,10.66,10.66,0,0,1-.7-1.9,2.19,2.19,0,0,0-.5.3,14.41,14.41,0,0,0-4,20.1A14.14,14.14,0,0,0,18,49.9a6.79,6.79,0,0,1,.7-2A12.4,12.4,0,0,1,13.1,37.5Z" transform="translate(-1.5 -1.8)" fill="#693cc5"/><path d="M25.6,25a12.07,12.07,0,0,1,6.5,1.9,6,6,0,0,0,.6-1.9,14.59,14.59,0,0,0-14.7.2,6.19,6.19,0,0,0,.7,1.9A12.74,12.74,0,0,1,25.6,25Z" transform="translate(-1.5 -1.8)" fill="#693cc5"/><path d="M25.6,50a12.49,12.49,0,0,1-6.9-2.1,11.76,11.76,0,0,0-.7,2,14.52,14.52,0,0,0,14.8.2,6.64,6.64,0,0,0-.6-2A12.41,12.41,0,0,1,25.6,50Z" transform="translate(-1.5 -1.8)" fill="#693cc5"/><polyline points="14.5 19.1 6.9 24 6.9 45.8 14.5 52.3" fill="none" stroke="#693cc5" stroke-linecap="round" stroke-linejoin="round" stroke-width="2"/><path d="M25.4,11.6A9.37,9.37,0,0,0,16,20.9H34.7A9.28,9.28,0,0,0,25.4,11.6Z" transform="translate(-1.5 -1.8)" fill="none" stroke="#693cc5" stroke-linecap="round" stroke-linejoin="round" stroke-width="2"/><path d="M25.3,63.4a9.37,9.37,0,0,0,9.4-9.3H16A9.35,9.35,0,0,0,25.3,63.4Z" transform="translate(-1.5 -1.8)" fill="none" stroke="#693cc5" stroke-linecap="round" stroke-linejoin="round" stroke-width="2"/><circle cx="24.1" cy="35.8" r="13.5" fill="none" stroke="#693cc5" stroke-linecap="round" stroke-linejoin="round" stroke-width="1.93"/></svg>