<svg xmlns="http://www.w3.org/2000/svg" width="75" height="75" viewBox="0 0 75 75">
<title>exp-ELB-Target-light-bg</title><path d="M47.5,38.5a6.18,6.18,0,1,0,0-2H40a14.39,14.39,0,0,0-1.4-5.3l9-7.6a6.19,6.19,0,1,0-1-8.7,6.12,6.12,0,0,0-1.3,3.9,5.89,5.89,0,0,0,1,3.4l-8.7,7.3a14.49,14.49,0,1,0-4,20.1,13.86,13.86,0,0,0,4-4l8.7,7.3a5.89,5.89,0,0,0-1,3.4,6.2,6.2,0,1,0,6.2-6.2,6.76,6.76,0,0,0-3.9,1.3l-9-7.6A14.39,14.39,0,0,0,40,38.5Zm6.2-5.2a4.2,4.2,0,1,1-4.2,4.2h0A4.1,4.1,0,0,1,53.7,33.3ZM51.6,14.5a4.2,4.2,0,1,1-4.2,4.2,4.16,4.16,0,0,1,4.2-4.2Zm0,37.6a4.2,4.2,0,1,1-4.2,4.2h0A4.23,4.23,0,0,1,51.6,52.1ZM25.6,50A12.5,12.5,0,1,1,38.1,37.5,12.5,12.5,0,0,1,25.6,50Z" transform="translate(-1.5 -1.8)" fill="#693cc5"/><circle cx="53.72" cy="37.58" r="1.6" transform="translate(-12.34 47.19) rotate(-45)" fill="#693cc5"/><circle cx="35.9" cy="35.9" r="34.9" fill="none" stroke="#693cc5" stroke-miterlimit="10" stroke-width="2"/></svg>