<?xml version="1.0" encoding="UTF-8"?>
<svg width="48px" height="48px" viewBox="0 0 48 48" version="1.1" xmlns="http://www.w3.org/2000/svg" xmlns:xlink="http://www.w3.org/1999/xlink">
    <title>Icon-Resource/Analytics/Res_AWS-Glue_AWS-Glue-for-Ray_48</title>
    <g id="Icon-Resource/Analytics/Res_AWS-Glue_AWS-Glue-for-Ray_48" stroke="none" stroke-width="1" fill="none" fill-rule="evenodd">
        <path d="M41,44 C39.346,44 38,42.654 38,41 C38,39.346 39.346,38 41,38 C42.654,38 44,39.346 44,41 C44,42.654 42.654,44 41,44 L41,44 Z M28.107,31.107 L27.046,29.917 C26.72,29.551 26.177,29.478 25.766,29.738 C24.547,30.508 23.216,31.06 21.809,31.377 C21.331,31.485 21.002,31.922 21.03,32.41 L21.121,34 L16.879,34 L16.97,32.409 C16.998,31.92 16.669,31.484 16.192,31.376 C14.79,31.06 13.459,30.507 12.236,29.735 C11.822,29.474 11.28,29.549 10.956,29.915 L9.893,31.107 L6.894,28.107 L8.085,27.044 C8.449,26.719 8.525,26.178 8.265,25.765 C7.495,24.546 6.944,23.215 6.628,21.809 C6.52,21.331 6.075,21.007 5.595,21.03 L4,21.121 L4,16.878 L5.601,16.97 C6.051,16.995 6.523,16.669 6.633,16.193 C6.95,14.792 7.502,13.463 8.272,12.244 C8.533,11.831 8.457,11.289 8.093,10.964 L6.894,9.894 L9.894,6.894 L10.963,8.092 C11.287,8.457 11.831,8.532 12.242,8.272 C13.461,7.503 14.79,6.954 16.191,6.637 C16.669,6.529 16.998,6.093 16.97,5.605 L16.879,4 L21.121,4 L21.03,5.606 C21.002,6.094 21.331,6.53 21.808,6.638 C23.21,6.956 24.538,7.507 25.754,8.274 C26.167,8.535 26.707,8.459 27.034,8.095 L28.106,6.894 L31.106,9.894 L29.909,10.961 C29.545,11.287 29.469,11.829 29.729,12.242 C30.5,13.459 31.051,14.789 31.368,16.192 C31.476,16.669 31.937,16.995 32.4,16.97 L34,16.878 L34,21.121 L32.402,21.03 C31.937,21.007 31.478,21.331 31.37,21.808 C31.054,23.212 30.502,24.542 29.732,25.762 C29.472,26.175 29.548,26.717 29.912,27.042 L31.106,28.107 L28.107,31.107 Z M21,42 C21,43.103 20.103,44 19,44 C17.897,44 17,43.103 17,42 C17,40.897 17.897,40 19,40 C20.103,40 21,40.897 21,42 L21,42 Z M42,17 C43.103,17 44,17.897 44,19 C44,20.103 43.103,21 42,21 C40.897,21 40,20.103 40,19 C40,17.897 40.897,17 42,17 L42,17 Z M41,36 C40.068,36 39.205,36.273 38.457,36.719 L31.89,30.152 L33.27,28.772 C33.464,28.578 33.57,28.312 33.562,28.037 C33.555,27.762 33.434,27.502 33.229,27.319 L31.857,26.097 C32.388,25.138 32.807,24.126 33.109,23.074 L34.943,23.179 C35.213,23.193 35.487,23.096 35.687,22.907 C35.887,22.718 36,22.455 36,22.18 L36,20 L38.142,20 C38.589,21.72 40.141,23 42,23 C44.206,23 46,21.206 46,19 C46,16.794 44.206,15 42,15 C40.141,15 38.589,16.28 38.142,18 L36,18 L36,15.82 C36,15.545 35.887,15.282 35.687,15.093 C35.487,14.904 35.214,14.803 34.943,14.821 L33.107,14.926 C32.805,13.875 32.385,12.864 31.854,11.906 L33.229,10.681 C33.434,10.498 33.555,10.239 33.562,9.963 C33.57,9.688 33.464,9.422 33.27,9.228 L28.772,4.731 C28.578,4.536 28.311,4.43 28.037,4.438 C27.763,4.446 27.503,4.567 27.319,4.772 L26.089,6.15 C25.133,5.621 24.124,5.203 23.073,4.9 L23.178,3.057 C23.193,2.782 23.096,2.513 22.906,2.313 C22.718,2.113 22.455,2 22.18,2 L15.82,2 C15.545,2 15.282,2.113 15.094,2.313 C14.904,2.513 14.807,2.782 14.822,3.057 L14.927,4.897 C13.876,5.2 12.866,5.618 11.908,6.147 L10.681,4.772 C10.497,4.567 10.238,4.446 9.963,4.438 C9.693,4.433 9.422,4.536 9.228,4.731 L4.73,9.228 C4.536,9.422 4.43,9.688 4.437,9.963 C4.445,10.238 4.566,10.498 4.771,10.681 L6.147,11.909 C5.617,12.867 5.197,13.876 4.895,14.926 L3.057,14.821 C2.781,14.803 2.513,14.904 2.313,15.093 C2.113,15.282 2,15.545 2,15.82 L2,22.18 C2,22.455 2.113,22.718 2.313,22.907 C2.514,23.096 2.768,23.194 3.058,23.179 L4.888,23.074 C5.19,24.127 5.609,25.14 6.14,26.099 L4.771,27.319 C4.566,27.502 4.445,27.762 4.437,28.037 C4.43,28.312 4.536,28.578 4.73,28.772 L9.228,33.27 C9.422,33.464 9.691,33.573 9.963,33.562 C10.238,33.554 10.498,33.434 10.681,33.228 L11.901,31.86 C12.862,32.392 13.875,32.812 14.927,33.115 L14.822,34.943 C14.807,35.218 14.904,35.487 15.094,35.687 C15.282,35.887 15.545,36 15.82,36 L18,36 L18,38.142 C16.279,38.589 15,40.142 15,42 C15,44.206 16.794,46 19,46 C21.206,46 23,44.206 23,42 C23,40.142 21.721,38.589 20,38.142 L20,36 L22.18,36 C22.455,36 22.718,35.887 22.906,35.687 C23.096,35.487 23.193,35.218 23.178,34.943 L23.073,33.117 C24.128,32.813 25.142,32.394 26.102,31.862 L27.319,33.228 C27.502,33.434 27.762,33.554 28.037,33.562 C28.312,33.576 28.578,33.464 28.772,33.27 L30.476,31.566 L36.974,38.063 C36.369,38.89 36,39.899 36,41 C36,43.757 38.243,46 41,46 C43.757,46 46,43.757 46,41 C46,38.243 43.757,36 41,36 L41,36 Z M20,18 L23,18 L23,20 L20,20 L20,23 L18,23 L18,20 L15,20 L15,18 L18,18 L18,15 L20,15 L20,18 Z M19,25 C15.691,25 13,22.309 13,19 C13,15.691 15.691,13 19,13 C22.309,13 25,15.691 25,19 C25,22.309 22.309,25 19,25 L19,25 Z M19,11 C14.589,11 11,14.589 11,19 C11,23.411 14.589,27 19,27 C23.411,27 27,23.411 27,19 C27,14.589 23.411,11 19,11 L19,11 Z" id="Fill-1" fill="#8C4FFF"></path>
        <text transform="translate(17,70)" font-size="10" fill="#d6242d" font-family="Amazon Ember, Helvetica, Arial, sans-serif" font-weight="bold">
            <tspan x="1em" dy="1em">MLTransform</tspan>
        </text>        
    </g>
</svg>