<?xml version="1.0" encoding="UTF-8"?>
<svg width="48px" height="48px" viewBox="0 0 48 48" version="1.1" xmlns="http://www.w3.org/2000/svg" xmlns:xlink="http://www.w3.org/1999/xlink">
    <title>Icon-Resource/Application-Integration/Res_Amazon-EventBridge_Pipes_48</title>
    <g id="Icon-Resource/Application-Integration/Res_Amazon-EventBridge_Pipes_48" stroke="none" stroke-width="1" fill="none" fill-rule="evenodd">
        <path d="M18.033,37 L26.033,37 L26.033,39 L18.033,39 C13.622,39 10.033,35.411 10.033,31 C10.033,26.589 13.622,23 18.033,23 L30.033,23 C33.342,23 36.033,20.309 36.033,17 C36.033,13.691 33.342,11 30.033,11 L22.033,11 L22.033,9 L30.033,9 C34.444,9 38.033,12.589 38.033,17 C38.033,21.411 34.444,25 30.033,25 L18.033,25 C14.724,25 12.033,27.691 12.033,31 C12.033,34.309 14.724,37 18.033,37 L18.033,37 Z M40.42,44 L33.58,44 L30.151,38 L33.58,32 L40.42,32 L43.848,38 L40.42,44 Z M45.868,37.504 L41.868,30.504 C41.69,30.192 41.358,30 41,30 L33,30 C32.641,30 32.309,30.192 32.132,30.504 L28.132,37.504 C27.956,37.812 27.956,38.188 28.132,38.496 L32.132,45.496 C32.309,45.808 32.641,46 33,46 L41,46 C41.358,46 41.69,45.808 41.868,45.496 L45.868,38.496 C46.044,38.188 46.044,37.812 45.868,37.504 L45.868,37.504 Z M7.58,16 L4.151,10 L7.58,4 L14.42,4 L17.848,10 L14.42,16 L7.58,16 Z M15.868,17.496 L19.868,10.496 C20.044,10.188 20.044,9.812 19.868,9.504 L15.868,2.504 C15.69,2.192 15.358,2 15,2 L7,2 C6.641,2 6.309,2.192 6.132,2.504 L2.132,9.504 C1.956,9.812 1.956,10.188 2.132,10.496 L6.132,17.496 C6.309,17.808 6.641,18 7,18 L15,18 C15.358,18 15.69,17.808 15.868,17.496 L15.868,17.496 Z" id="Fill-1" fill="#E7157B"></path>
    </g>
</svg>