<?xml version="1.0" encoding="UTF-8"?>
<svg width="48px" height="48px" viewBox="0 0 48 48" version="1.1" xmlns="http://www.w3.org/2000/svg" xmlns:xlink="http://www.w3.org/1999/xlink">
    <title>Icon-Resource/Analytics/Res_Amazon-OpenSearch-Service_Index_48</title>
    <g id="Icon-Resource/Analytics/Res_Amazon-OpenSearch-Service_Index_48" stroke="none" stroke-width="1" fill="none" fill-rule="evenodd">
        <path d="M21,32 L27,32 L27,30 L21,30 L21,32 Z M16,34 L32,34 L32,28 L16,28 L16,34 Z M33,26 L15,26 C14.447,26 14,26.448 14,27 L14,35 C14,35.552 14.447,36 15,36 L33,36 C33.553,36 34,35.552 34,35 L34,27 C34,26.448 33.553,26 33,26 L33,26 Z M11,12 L17,12 L17,10 L11,10 L11,12 Z M25,10 L31,10 L31,8 L25,8 L25,10 Z M4,44 L44,44 L44,16 L4,16 L4,44 Z M22,4 L34,4 L34,9 C34,9.552 34.447,10 35,10 L40,10 L40,14 L22,14 L22,4 Z M36,5.261 L38.645,8 L36,8 L36,5.261 Z M45,14 L42,14 L42,9 C42,8.741 41.899,8.492 41.72,8.305 L35.927,2.305 C35.738,2.11 35.479,2 35.207,2 L21,2 C20.447,2 20,2.448 20,3 L20,14 L8,14 L8,7 L18,7 L18,5 L7,5 C6.447,5 6,5.448 6,6 L6,14 L3,14 C2.447,14 2,14.448 2,15 L2,45 C2,45.552 2.447,46 3,46 L45,46 C45.553,46 46,45.552 46,45 L46,15 C46,14.448 45.553,14 45,14 L45,14 Z" id="Fill-1" fill="#8C4FFF"></path>
    </g>
</svg>