<?xml version="1.0" encoding="UTF-8"?>
<svg width="48px" height="48px" viewBox="0 0 48 48" version="1.1" xmlns="http://www.w3.org/2000/svg" xmlns:xlink="http://www.w3.org/1999/xlink">
    <title>Icon-Resource/Networking-and-Content-Delivery/Res_AWS-Cloud-WAN_Transit-Gateway-Route-Table-Attachment_48</title>
    <g id="Icon-Resource/Networking-and-Content-Delivery/Res_AWS-Cloud-WAN_Transit-Gateway-Route-Table-Attachment_48" stroke="none" stroke-width="1" fill="none" fill-rule="evenodd">
        <path d="M42,26 C40.897,26 40,25.103 40,24 C40,22.897 40.897,22 42,22 C43.103,22 44,22.897 44,24 C44,25.103 43.103,26 42,26 L42,26 Z M13,26 L35,26 L35,22 L13,22 L13,26 Z M6,26 C4.897,26 4,25.103 4,24 C4,22.897 4.897,22 6,22 C7.103,22 8,22.897 8,24 C8,25.103 7.103,26 6,26 L6,26 Z M42,20 C40.141,20 38.589,21.28 38.142,23 L37,23 L37,21 C37,20.448 36.553,20 36,20 L12,20 C11.447,20 11,20.448 11,21 L11,23 L9.858,23 C9.411,21.28 7.859,20 6,20 C3.794,20 2,21.794 2,24 C2,26.206 3.794,28 6,28 C7.859,28 9.411,26.72 9.858,25 L11,25 L11,27 C11,27.552 11.447,28 12,28 L36,28 C36.553,28 37,27.552 37,27 L37,25 L38.142,25 C38.589,26.72 40.141,28 42,28 C44.206,28 46,26.206 46,24 C46,21.794 44.206,20 42,20 L42,20 Z M13,17 L35,17 L35,13 L13,13 L13,17 Z M22,6 C22,4.897 22.897,4 24,4 C25.103,4 26,4.897 26,6 C26,7.103 25.103,8 24,8 C22.897,8 22,7.103 22,6 L22,6 Z M12,19 L36,19 C36.553,19 37,18.552 37,18 L37,12 C37,11.448 36.553,11 36,11 L25,11 L25,9.858 C26.721,9.411 28,7.858 28,6 C28,3.794 26.206,2 24,2 C21.794,2 20,3.794 20,6 C20,7.858 21.279,9.411 23,9.858 L23,11 L12,11 C11.447,11 11,11.448 11,12 L11,18 C11,18.552 11.447,19 12,19 L12,19 Z M13,35 L35,35 L35,31 L13,31 L13,35 Z M26,42 C26,43.103 25.103,44 24,44 C22.897,44 22,43.103 22,42 C22,40.897 22.897,40 24,40 C25.103,40 26,40.897 26,42 L26,42 Z M36,29 L12,29 C11.447,29 11,29.448 11,30 L11,36 C11,36.552 11.447,37 12,37 L23,37 L23,38.142 C21.279,38.589 20,40.142 20,42 C20,44.206 21.794,46 24,46 C26.206,46 28,44.206 28,42 C28,40.142 26.721,38.589 25,38.142 L25,37 L36,37 C36.553,37 37,36.552 37,36 L37,30 C37,29.448 36.553,29 36,29 L36,29 Z" id="Fill-1" fill="#8C4FFF"></path>
    </g>
</svg>