<?xml version="1.0" encoding="UTF-8"?>
<svg width="48px" height="48px" viewBox="0 0 48 48" version="1.1" xmlns="http://www.w3.org/2000/svg" xmlns:xlink="http://www.w3.org/1999/xlink">
    <title>Icon-Resource/Management-Governance/Res_AWS-Systems-Manager_Application-Manager_48</title>
    <g id="Icon-Resource/Management-Governance/Res_AWS-Systems-Manager_Application-Manager_48" stroke="none" stroke-width="1" fill="none" fill-rule="evenodd">
        <path d="M39,23.9766689 C39,20.9486689 38.103,18.0306689 36.404,15.5396689 L38.057,14.4136689 C39.982,17.2376689 41,20.5446689 41,23.9766689 L39,23.9766689 Z M27.751,38.5046689 L28.249,40.4406689 C26.869,40.7966689 25.439,40.9766689 24,40.9766689 C23.289,40.9766689 22.574,40.9326689 21.876,40.8446689 L22.124,38.8606689 C23.987,39.0936689 25.932,38.9726689 27.751,38.5046689 L27.751,38.5046689 Z M9,23.9766689 L7,23.9766689 C7,20.3936689 8.103,16.9646689 10.188,14.0636689 L11.812,15.2306689 C9.973,17.7896689 9,20.8146689 9,23.9766689 L9,23.9766689 Z M17.037,10.7216689 C17.522,10.5976689 17.841,10.1336689 17.782,9.63666889 C17.763,9.46666889 17.752,9.29466889 17.752,9.11866889 C17.752,7.60566889 18.824,5.91966889 20.142,5.35866889 C20.748,5.10066889 21.309,4.99766889 21.817,4.99766889 C23.267,4.99766889 24.291,5.83166889 24.738,6.28266889 C25.23,6.77966889 25.634,7.44766889 25.903,8.21366889 C26.026,8.56266889 26.333,8.81566889 26.699,8.87066889 C27.07,8.92366889 27.433,8.77266889 27.652,8.47366889 C27.939,8.08266889 28.379,7.91566889 28.796,8.03966889 C29.331,8.19566889 29.69,8.78466889 29.769,9.62466889 C29.736,10.1276689 30.088,10.5846689 30.597,10.6726689 C31.498,10.8286689 33.01,11.3806689 33.01,13.3316689 C33.01,15.6326689 30.993,15.9416689 30.678,15.9766689 L17.774,15.9626689 C16.494,15.9616689 15.205,14.8906689 15.069,13.7156689 C15.055,13.5836689 15.046,13.4456689 15.046,13.3006689 C15.046,11.5906689 16.129,10.9546689 17.037,10.7216689 L17.037,10.7216689 Z M17.772,17.9626689 L30.758,17.9736689 C32.229,17.8526689 35.01,16.7286689 35.01,13.3316689 C35.01,10.7996689 33.399,9.41466889 31.679,8.88066889 C31.395,7.47966889 30.558,6.46966889 29.355,6.11966889 C28.634,5.90866889 27.883,5.98066889 27.226,6.29666889 C26.926,5.76466889 26.569,5.28866889 26.158,4.87466889 C24.302,3.00366889 21.76,2.49666889 19.358,3.51866889 C17.322,4.38466889 15.782,6.75366889 15.752,9.04966889 C14.042,9.78266889 13.046,11.3216689 13.046,13.3006689 C13.046,13.5266689 13.059,13.7416689 13.083,13.9456689 C13.334,16.1206689 15.481,17.9606689 17.772,17.9626689 L17.772,17.9626689 Z M18.154,41.8036689 C17.933,42.0226689 17.59,42.0366689 17.386,41.8326689 L13.697,38.1516689 C13.978,37.8966689 14.24,37.6206689 14.477,37.3236689 L18.185,41.0416689 C18.386,41.2436689 18.372,41.5846689 18.154,41.8036689 L18.154,41.8036689 Z M4,32.9766689 C4,30.2196689 6.243,27.9766689 9,27.9766689 C11.757,27.9766689 14,30.2196689 14,32.9766689 C14,35.7336689 11.757,37.9766689 9,37.9766689 C6.243,37.9766689 4,35.7336689 4,32.9766689 L4,32.9766689 Z M15.511,35.5286689 C15.823,34.7366689 16,33.8776689 16,32.9766689 C16,29.1166689 12.859,25.9766689 9,25.9766689 C5.141,25.9766689 2,29.1166689 2,32.9766689 C2,36.8366689 5.141,39.9766689 9,39.9766689 C10.077,39.9766689 11.093,39.7246689 12.005,39.2886689 L15.974,43.2476689 C16.459,43.7336689 17.099,43.9756689 17.742,43.9756689 C18.4,43.9756689 19.062,43.7226689 19.566,43.2186689 C20.564,42.2226689 20.58,40.6116689 19.601,39.6296689 L15.511,35.5286689 Z M37,38.9766689 C33.629,38.9766689 30,37.4126689 30,33.9766689 C30,31.9266689 30.948,29.5206689 33,28.4146689 L33,32.9766689 C33,33.5286689 33.447,33.9766689 34,33.9766689 L40,33.9766689 C40.553,33.9766689 41,33.5286689 41,32.9766689 L41,28.4146689 C43.052,29.5206689 44,31.9266689 44,33.9766689 C44,37.4126689 40.371,38.9766689 37,38.9766689 L37,38.9766689 Z M46,33.9766689 C46,30.0826689 43.627,26.8036689 40.229,26.0036689 C39.93,25.9326689 39.619,26.0026689 39.379,26.1926689 C39.14,26.3826689 39,26.6706689 39,26.9766689 L39,31.9766689 L35,31.9766689 L35,26.9766689 C35,26.6706689 34.86,26.3826689 34.621,26.1926689 C34.382,26.0026689 34.068,25.9336689 33.771,26.0036689 C30.373,26.8036689 28,30.0826689 28,33.9766689 C28,36.8926689 29.962,39.2266689 33,40.3126689 L33,43.9766689 L35,43.9766689 L35,40.8206689 C35.638,40.9206689 36.305,40.9766689 37,40.9766689 C37.695,40.9766689 38.362,40.9206689 39,40.8206689 L39,43.9766689 L41,43.9766689 L41,40.3126689 C44.038,39.2266689 46,36.8926689 46,33.9766689 L46,33.9766689 Z" id="Fill-1" fill="#E7157B"></path>
        <text transform="translate(17,70)" font-size="10" fill="#d6242d" font-family="Amazon Ember, Helvetica, Arial, sans-serif" font-weight="bold">
            <tspan x="1em" dy="1em">AssociationCompliance</tspan>
        </text>        
    </g>
</svg>