<?xml version="1.0" encoding="UTF-8"?>
<svg width="48px" height="48px" viewBox="0 0 48 48" version="1.1" xmlns="http://www.w3.org/2000/svg" xmlns:xlink="http://www.w3.org/1999/xlink">
    <title>Icon-Resource/Networking-and-Content-Delivery/Res_AWS-Amazon-Route-53-Hosted-Zone_48_Light</title>
    <g id="Icon-Resource/Networking-and-Content-Delivery/Res_AWS-Amazon-Route-53-Hosted-Zone_48" stroke="none" stroke-width="1" fill="none" fill-rule="evenodd">
        <path d="M33.4488,39.3643 C28.8848,40.1843 25.0338,42.5853 23.5848,43.5833 C22.1358,42.5853 18.2848,40.1843 13.7198,39.3643 C11.4398,38.9553 3.9998,37.1363 3.9998,30.9253 C3.9998,28.3293 4.9828,26.6353 6.0238,24.8433 C7.0038,23.1543 8.0158,21.4103 8.0158,19.0203 C8.0158,15.4343 6.0408,12.8533 4.9278,11.6843 C6.0608,10.3063 8.5278,7.2973 9.8918,5.5523 C11.9708,7.4423 14.3708,8.4703 16.7468,8.4703 C19.3928,8.4703 21.5918,7.4293 23.5848,5.2123 C25.5768,7.4293 27.7748,8.4703 30.4228,8.4703 C32.7988,8.4703 35.1968,7.4423 37.2758,5.5523 C38.6398,7.2963 41.1068,10.3063 42.2408,11.6843 C41.1278,12.8533 39.1518,15.4343 39.1518,19.0203 C39.1518,21.4103 40.1648,23.1543 41.1438,24.8433 C42.1848,26.6353 43.1688,28.3293 43.1688,30.9253 C43.1688,37.1363 35.7288,38.9553 33.4488,39.3643 M42.8748,23.8383 C41.9498,22.2463 41.1518,20.8713 41.1518,19.0203 C41.1518,15.1103 44.2038,12.5673 44.2328,12.5443 L45.0178,11.9093 L44.3758,11.1303 C44.3248,11.0693 39.3318,5.0173 38.1898,3.4543 L37.4768,2.4783 L36.6518,3.3613 C34.7758,5.3663 32.5638,6.4703 30.4228,6.4703 C28.0598,6.4703 26.1968,5.4123 24.3788,3.0373 L23.5848,2.0003 L22.7908,3.0363 C20.9718,5.4113 19.1078,6.4703 16.7468,6.4703 C14.6038,6.4703 12.3918,5.3663 10.5158,3.3613 L9.6898,2.4773 L8.9778,3.4553 C7.8378,5.0173 2.8448,11.0693 2.7938,11.1303 L2.1508,11.9093 L2.9358,12.5443 C2.9678,12.5693 6.0158,15.0803 6.0158,19.0203 C6.0158,20.8713 5.2188,22.2463 4.2938,23.8383 C3.2188,25.6913 1.9998,27.7913 1.9998,30.9253 C1.9998,36.1653 6.2488,40.0553 13.3668,41.3333 C18.5718,42.2673 22.9318,45.5733 22.9758,45.6063 L23.5858,46.0723 L24.1928,45.6063 C24.2368,45.5733 28.5968,42.2673 33.8028,41.3333 C40.9198,40.0553 45.1688,36.1653 45.1688,30.9253 C45.1688,27.7913 43.9498,25.6913 42.8748,23.8383" id="AWS-Amazon-Route-53-Hosted-zone_Resource-Icon_dark-bg" fill="#4D27AA"></path>
        <g transform="translate(5,5) scale(0.75)">
            <path d="M25,41.94c-5,0-8.76-2.61-10.77-7.54a21.33,21.33,0,0,1-1.45-6.52l2-.13a19.52,19.52,0,0,0,1.3,5.89c1.7,4.18,4.7,6.3,8.92,6.3,10.1,0,10.25-11.52,10.25-12V14.27L25,10.14,14.75,14.27v7.92h-2v-8.6a1,1,0,0,1,.63-.93L24.63,8.13a1,1,0,0,1,.74,0l11.25,4.53a1,1,0,0,1,.63.93V27.93C37.25,28.07,37.11,41.94,25,41.94Z" style="fill:#4D27AA"/>
            <path d="M25,37.62c-6.76,0-8.42-8.77-8.48-9.14a1.1,1.1,0,0,1,0-.18v-.49h2v.39c.17.81,1.7,7.42,6.5,7.42S31.33,29,31.5,28.2V17.64L25,15l-6.5,2.61v4.55h-2V17a1,1,0,0,1,.63-.93l7.5-3a1,1,0,0,1,.74,0l7.5,3a1,1,0,0,1,.63.93V28.3a1.1,1.1,0,0,1,0,.18C33.42,28.85,31.76,37.62,25,37.62Z" style="fill:#4D27AA"/>
            <path d="M22.89,30.39,21.48,29l4-4-4-4,1.41-1.41,4.69,4.68a1,1,0,0,1,0,1.42Z" style="fill:#4D27AA"/>
            <rect x="6.25" y="24" width="20.63" height="2" style="fill:#4D27AA"/>
        </g>
    </g>
</svg>