<?xml version="1.0" encoding="utf-8"?>
<!-- Generator: Adobe Illustrator 23.0.1, SVG Export Plug-In . SVG Version: 6.00 Build 0)  -->
<svg version="1.1" xmlns="http://www.w3.org/2000/svg" xmlns:xlink="http://www.w3.org/1999/xlink" x="0px" y="0px"
	 viewBox="0 0 16 16" style="enable-background:new 0 0 16 16;" xml:space="preserve">
<style type="text/css">
	.st0{fill:none;stroke:#545B64;stroke-width:2;stroke-linejoin:round;stroke-miterlimit:10;}
	.st1{fill:#545B64;stroke:#545B64;stroke-width:2;stroke-linejoin:round;stroke-miterlimit:10;}
	.st2{fill:none;stroke:#545B64;stroke-width:2;stroke-miterlimit:10;}
	.st3{fill:none;stroke:#545B64;stroke-width:2;stroke-linecap:square;stroke-miterlimit:10;}
	.st4{fill:#545B64;}
	.st5{fill:none;stroke:#545B64;stroke-width:2;stroke-linecap:round;stroke-linejoin:round;stroke-miterlimit:10;}
	.st6{fill:none;stroke:#545B64;stroke-width:2;stroke-linecap:round;stroke-miterlimit:10;}
</style>
<g id="grid_x5F_locked">
</g>
<g id="icon">
	<g>
		<path class="st4" d="M8,0C3.6,0,0,3.6,0,8s3.6,8,8,8s8-3.6,8-8S12.4,0,8,0z M8,14c-3.3,0-6-2.7-6-6s2.7-6,6-6s6,2.7,6,6
			S11.3,14,8,14z"/>
		<polygon class="st4" points="9,7 6,7 6,9 7,9 7,10 6,10 6,12 10,12 10,10 9,10 		"/>
		<polygon class="st4" points="9,6 9,4 7,4 7,6 		"/>
	</g>
</g>
</svg>
