<svg xmlns="http://www.w3.org/2000/svg" width="75" height="75" viewBox="0 0 75 75">
    <defs>
        <style>
            .cls-1{fill:#232f3e}
        </style>
    </defs>
    <title>
        User_light-bg
    </title>
    <g id="Working" transform="scale(1.5)">
        <path class="cls-1" d="M47.5,48.44H2.5a1,1,0,0,1-1-1v-3a22.73,22.73,0,0,1,17.36-22.1,1.06,1.06,0,0,1,.72.09,11.29,11.29,0,0,0,10.82,0,1,1,0,0,1,.71-.09A22.73,22.73,0,0,1,48.5,44.45v3A1,1,0,0,1,47.5,48.44Zm-44-2h43v-2A20.71,20.71,0,0,0,31,24.39a13.51,13.51,0,0,1-6,1.43,13.21,13.21,0,0,1-6-1.43A20.72,20.72,0,0,0,3.5,44.45Z"/>
        <path class="cls-1" d="M25,25.75a12.18,12.18,0,0,1-5.9-1.5A12.13,12.13,0,1,1,37.16,13.67a12,12,0,0,1-6.32,10.58h0A12.38,12.38,0,0,1,25,25.75ZM25,3.56A10.08,10.08,0,0,0,20,22.5a10.33,10.33,0,0,0,9.85,0A10.08,10.08,0,0,0,25,3.56Z"/>
    </g>
</svg>
