<svg xmlns="http://www.w3.org/2000/svg" width="75" height="75" viewBox="0 0 75 75">
    <defs>
        <style>.cls-1{fill:#232f3e;}</style>
    </defs>
    <title>Users_light-bg</title>
    <g id="Working" transform="scale(1.5)">
        <path class="cls-1" d="M14.69,26H2.5a1,1,0,0,1-1-1v-1.5a11.89,11.89,0,0,1,9.09-11.57,1,1,0,0,1,.72.1,5.22,5.22,0,0,0,4.93,0,1,1,0,0,1,.72-.1,11.92,11.92,0,0,1,3.81,1.68l-1.12,1.66A9.84,9.84,0,0,0,16.84,14a7.33,7.33,0,0,1-6.13,0A9.89,9.89,0,0,0,3.5,23.51V24H14.69Z"/>
        <path class="cls-1" d="M13.76,14.63a6.56,6.56,0,1,1,0-13.12,6.55,6.55,0,0,1,3.18,12.31h0A6.65,6.65,0,0,1,13.76,14.63Zm0-11.12A4.59,4.59,0,0,0,9.15,8.07a4.54,4.54,0,0,0,2.38,4,4.67,4.67,0,0,0,4.46,0h0a4.55,4.55,0,0,0-2.23-8.55Z"/>
        <path class="cls-1" d="M47.5,26H35.31V24H46.5v-.5A9.88,9.88,0,0,0,39.28,14a7.26,7.26,0,0,1-6.13,0,9.29,9.29,0,0,0-2.85,1.33l-1.13-1.64A11.45,11.45,0,0,1,33,11.94a1.06,1.06,0,0,1,.72.09,5.2,5.2,0,0,0,4.95,0,1,1,0,0,1,.71-.09,11.89,11.89,0,0,1,9.1,11.57V25A1,1,0,0,1,47.5,26Z"/>
        <path class="cls-1" d="M36.2,14.63a6.61,6.61,0,1,1,3.18-.81h0A6.65,6.65,0,0,1,36.2,14.63Zm0-11.12a4.59,4.59,0,0,0-4.61,4.56,4.54,4.54,0,0,0,2.38,4,4.67,4.67,0,0,0,4.46,0h0A4.55,4.55,0,0,0,36.2,3.51Z"/>
        <path class="cls-1" d="M40.94,48.49H9a1,1,0,0,1-1-1V45.37a16.42,16.42,0,0,1,12.54-16,1,1,0,0,1,.72.09,7.85,7.85,0,0,0,7.4,0,1,1,0,0,1,.72-.09,16.41,16.41,0,0,1,12.56,16v2.12A1,1,0,0,1,40.94,48.49ZM10,46.49H39.94V45.37A14.43,14.43,0,0,0,29.26,31.44a9.87,9.87,0,0,1-8.6,0A14.43,14.43,0,0,0,10,45.37Z"/>
        <path class="cls-1" d="M25,32.39a9,9,0,0,1-4.33-1.1,9,9,0,1,1,8.63,0h0A9,9,0,0,1,25,32.39Zm0-15.75a6.87,6.87,0,0,0-3.37,12.9,7.09,7.09,0,0,0,6.71,0h0A6.86,6.86,0,0,0,25,16.64Z"/>
    </g>
</svg>