<svg id="Layer_1" data-name="Layer 1" 
    xmlns="http://www.w3.org/2000/svg" width="100" height="100" viewBox="0 0 75 75">
    <title>VPC-subnet-private_light-bg</title>
    <g transform="scale(2.0) translate(0,0)">
    <rect width="100" height="100" style="fill:transparent"/>
    <path d="M17.51,17.83a2.38,2.38,0,0,0-.5,4.71v3.29h1V22.54a2.38,2.38,0,0,0-.5-4.71Zm0,3.76a1.38,1.38,0,1,1,1.38-1.38A1.38,1.38,0,0,1,17.51,21.59Z" style="fill:#248814"/>
    <path d="M22.72,14.3V11.63a5.22,5.22,0,1,0-10.44,0V14.3H9.14V28.59H25.86V14.3Zm-9.44-2.67a4.22,4.22,0,1,1,8.44,0V14.3H13.28Zm11.58,16H10.14V15.3H24.86Z" style="fill:#248814"/>
    </g>
    <style type="text/css">
        .st4{fill:#d13212}
    </style>
    <g id="grid_x5F_locked"/>
    <g id="icon">
        <g transform="translate(50,2)">
            <path class="st4" d="M13.7,2.3C12.1,0.8,10.1,0,8,0S3.9,0.8,2.3,2.3C0.8,3.9,0,5.9,0,8s0.8,4.1,2.3,5.7C3.9,15.2,5.9,16,8,16
			s4.1-0.8,5.7-2.3C15.2,12.1,16,10.1,16,8S15.2,3.9,13.7,2.3z M12.2,12.2C11.1,13.4,9.6,14,8,14s-3.1-0.6-4.2-1.8S2,9.6,2,8
			s0.6-3.1,1.8-4.2S6.4,2,8,2s3.1,0.6,4.2,1.8S14,6.4,14,8S13.4,11.1,12.2,12.2z"/>
            <polygon class="st4" points="10.1,4.5 8,6.6 5.9,4.5 4.5,5.9 6.6,8 4.5,10.1 5.9,11.5 8,9.4 10.1,11.5 11.5,10.1 9.4,8 11.5,5.9 
					"/>
        </g>
    </g>
</svg>